<svg xmlns="http://www.w3.org/2000/svg" xmlns:xlink="http://www.w3.org/1999/xlink" viewBox="0 0 130.18 62.17"><defs><style>.cls-1,.cls-5,.cls-7,.cls-8{fill:none;}.cls-2{isolation:isolate;}.cls-3,.cls-6{mix-blend-mode:multiply;}.cls-3{opacity:0.25;fill:url(#linear-gradient);}.cls-4{fill:url(#linear-gradient-2);}.cls-5,.cls-7,.cls-8{stroke-miterlimit:10;}.cls-5{stroke:url(#linear-gradient-3);}.cls-6{opacity:0.2;}.cls-7{stroke:#8c8c8c;}.cls-8{stroke:#fff;}.cls-9{clip-path:url(#clip-path);}.cls-10,.cls-11{fill:#fff;}.cls-10,.cls-11,.cls-12{mix-blend-mode:soft-light;}.cls-10{opacity:0.5;}.cls-11{opacity:0.75;}.cls-12{fill:url(#radial-gradient);}.cls-13,.cls-14{mix-blend-mode:hard-light;}.cls-13{fill:url(#radial-gradient-2);}.cls-14{fill:url(#radial-gradient-3);}</style><linearGradient id="linear-gradient" x1="-12.7" y1="-97.7" x2="55.88" y2="-97.91" gradientTransform="translate(23.81 133.98)" gradientUnits="userSpaceOnUse"><stop offset="0" stop-color="#2b2b2b"/><stop offset="1" stop-color="#636363"/></linearGradient><linearGradient id="linear-gradient-2" x1="-13.7" y1="-99.14" x2="54.88" y2="-99.35" gradientTransform="translate(23.82 133.97)" gradientUnits="userSpaceOnUse"><stop offset="0" stop-color="#cfcfcf"/><stop offset="1" stop-color="#9e9e9e"/></linearGradient><linearGradient id="linear-gradient-3" x1="-10.36" y1="-99.15" x2="55.2" y2="-99.35" gradientTransform="translate(23.82 133.97)" gradientUnits="userSpaceOnUse"><stop offset="0" stop-color="#fff"/><stop offset="0.59" stop-color="#9e9e9e"/></linearGradient><clipPath id="clip-path" transform="translate(8.41)"><rect class="cls-1" x="14.02" y="9.18" width="64.46" height="51.06" rx="7.49" transform="translate(0.3 -0.4) rotate(0.49)"/></clipPath><radialGradient id="radial-gradient" cx="36.02" cy="-109.38" r="21.16" gradientTransform="matrix(0.81, 0.58, -0.58, 0.81, -32.88, 92.88)" gradientUnits="userSpaceOnUse"><stop offset="0" stop-color="#fff"/><stop offset="1" stop-color="#fff" stop-opacity="0"/></radialGradient><radialGradient id="radial-gradient-2" cx="-687.22" cy="-378.12" r="19.05" gradientTransform="matrix(0.12, 2.14, -0.4, 0.42, -30.7, 1638.39)" gradientUnits="userSpaceOnUse"><stop offset="0" stop-color="#fff"/><stop offset="0.04" stop-color="#fff" stop-opacity="0.87"/><stop offset="0.1" stop-color="#fff" stop-opacity="0.69"/><stop offset="0.17" stop-color="#fff" stop-opacity="0.52"/><stop offset="0.24" stop-color="#fff" stop-opacity="0.38"/><stop offset="0.31" stop-color="#fff" stop-opacity="0.26"/><stop offset="0.39" stop-color="#fff" stop-opacity="0.17"/><stop offset="0.49" stop-color="#fff" stop-opacity="0.09"/><stop offset="0.59" stop-color="#fff" stop-opacity="0.04"/><stop offset="0.73" stop-color="#fff" stop-opacity="0.01"/><stop offset="1" stop-color="#fff" stop-opacity="0"/></radialGradient><radialGradient id="radial-gradient-3" cx="-697.37" cy="-294.17" r="19.05" gradientTransform="matrix(0.12, 2.14, -0.4, 0.42, 23.49, 1667.63)" xlink:href="#radial-gradient-2"/></defs><g class="cls-2"><g id="Layer_2" data-name="Layer 2"><g id="OBJECTS"><rect class="cls-3" x="15.01" y="10.63" width="64.46" height="51.06" rx="7.49" transform="translate(8.72 -0.4) rotate(0.49)"/><rect class="cls-4" x="14.02" y="9.18" width="64.46" height="51.06" rx="7.49" transform="translate(8.7 -0.4) rotate(0.49)"/><rect class="cls-5" x="14.02" y="9.18" width="64.46" height="51.06" rx="7.49" transform="translate(8.7 -0.4) rotate(0.49)"/><g class="cls-6"><rect class="cls-7" x="33.86" y="23.94" width="22.58" height="20.22" transform="translate(8.7 -0.39) rotate(0.49)"/><rect class="cls-7" x="45.27" y="16.34" width="21.65" height="7.69" transform="translate(8.58 -0.48) rotate(0.49)"/><rect class="cls-7" x="23.61" y="16.15" width="21.65" height="7.69" transform="translate(8.58 -0.29) rotate(0.49)"/><rect class="cls-7" x="45.03" y="44.25" width="21.65" height="7.69" transform="translate(8.82 -0.48) rotate(0.49)"/><rect class="cls-7" x="23.38" y="44.07" width="21.65" height="7.69" transform="translate(8.82 -0.29) rotate(0.49)"/><line class="cls-7" x1="75.29" y1="24.12" x2="86.36" y2="24.22"/><line class="cls-7" x1="75.12" y1="44.34" x2="86.18" y2="44.44"/><line class="cls-7" x1="21.41" y1="23.66" x2="32.48" y2="23.76"/><line class="cls-7" x1="21.24" y1="43.88" x2="32.3" y2="43.98"/><line class="cls-7" x1="21.33" y1="33.77" x2="42.26" y2="33.95"/><line class="cls-7" x1="64.85" y1="34.14" x2="86.27" y2="34.33"/><line class="cls-7" x1="31.75" y1="51.67" x2="31.69" y2="59.04"/><line class="cls-7" x1="53.4" y1="51.85" x2="53.34" y2="59.22"/><line class="cls-7" x1="75.05" y1="52.04" x2="74.99" y2="59.41"/><line class="cls-7" x1="42.58" y1="51.76" x2="42.51" y2="59.49"/><line class="cls-7" x1="64.69" y1="51.95" x2="64.63" y2="59.68"/><line class="cls-7" x1="32.12" y1="8.69" x2="32.05" y2="16.06"/><line class="cls-7" x1="53.77" y1="8.87" x2="53.71" y2="16.24"/><line class="cls-7" x1="75.42" y1="9.06" x2="75.36" y2="16.43"/><line class="cls-7" x1="42.94" y1="8.78" x2="42.88" y2="16.51"/><line class="cls-7" x1="65.06" y1="8.97" x2="65" y2="16.7"/></g><rect class="cls-8" x="34.51" y="24.58" width="22.58" height="20.22" transform="translate(8.7 -0.39) rotate(0.49)"/><rect class="cls-8" x="45.92" y="16.98" width="21.65" height="7.69" transform="translate(8.59 -0.49) rotate(0.49)"/><rect class="cls-8" x="24.27" y="16.8" width="21.65" height="7.69" transform="translate(8.58 -0.3) rotate(0.49)"/><rect class="cls-8" x="45.68" y="44.89" width="21.65" height="7.69" transform="translate(8.83 -0.48) rotate(0.49)"/><rect class="cls-8" x="24.03" y="44.71" width="21.65" height="7.69" transform="translate(8.82 -0.3) rotate(0.49)"/><line class="cls-8" x1="75.95" y1="24.77" x2="87.01" y2="24.86"/><line class="cls-8" x1="75.77" y1="44.99" x2="86.84" y2="45.08"/><line class="cls-8" x1="22.07" y1="24.3" x2="33.13" y2="24.4"/><line class="cls-8" x1="21.89" y1="44.53" x2="32.96" y2="44.62"/><line class="cls-8" x1="21.98" y1="34.42" x2="42.92" y2="34.59"/><line class="cls-8" x1="65.5" y1="34.79" x2="86.92" y2="34.97"/><line class="cls-8" x1="32.4" y1="52.31" x2="32.34" y2="59.68"/><line class="cls-8" x1="54.06" y1="52.49" x2="53.99" y2="59.87"/><line class="cls-8" x1="75.71" y1="52.68" x2="75.65" y2="60.05"/><line class="cls-8" x1="43.23" y1="52.4" x2="43.16" y2="60.13"/><line class="cls-8" x1="65.35" y1="52.59" x2="65.28" y2="60.32"/><line class="cls-8" x1="32.77" y1="9.33" x2="32.71" y2="16.7"/><line class="cls-8" x1="54.42" y1="9.52" x2="54.36" y2="16.89"/><line class="cls-8" x1="76.08" y1="9.7" x2="76.01" y2="17.07"/><line class="cls-8" x1="43.6" y1="9.43" x2="43.53" y2="17.15"/><line class="cls-8" x1="65.72" y1="9.61" x2="65.65" y2="17.34"/><rect class="cls-8" x="34.51" y="24.94" width="22.58" height="20.22" transform="translate(8.71 -0.39) rotate(0.49)"/><rect class="cls-8" x="45.92" y="17.34" width="21.65" height="7.69" transform="translate(8.59 -0.49) rotate(0.49)"/><rect class="cls-8" x="24.27" y="17.16" width="21.65" height="7.69" transform="translate(8.59 -0.3) rotate(0.49)"/><rect class="cls-8" x="45.68" y="45.26" width="21.65" height="7.69" transform="translate(8.83 -0.48) rotate(0.49)"/><rect class="cls-8" x="24.03" y="45.07" width="21.65" height="7.69" transform="translate(8.83 -0.3) rotate(0.49)"/><line class="cls-8" x1="75.94" y1="25.13" x2="87.01" y2="25.22"/><line class="cls-8" x1="75.77" y1="45.35" x2="86.83" y2="45.44"/><line class="cls-8" x1="22.06" y1="24.67" x2="33.13" y2="24.76"/><line class="cls-8" x1="21.89" y1="44.89" x2="32.95" y2="44.98"/><line class="cls-8" x1="21.98" y1="34.78" x2="42.91" y2="34.96"/><line class="cls-8" x1="65.5" y1="35.15" x2="86.92" y2="35.33"/><line class="cls-8" x1="32.4" y1="52.67" x2="32.34" y2="60.04"/><line class="cls-8" x1="54.05" y1="52.86" x2="53.99" y2="60.23"/><line class="cls-8" x1="75.71" y1="53.04" x2="75.64" y2="60.41"/><line class="cls-8" x1="43.23" y1="52.76" x2="43.16" y2="60.49"/><line class="cls-8" x1="65.34" y1="52.95" x2="65.28" y2="60.68"/><line class="cls-8" x1="32.77" y1="9.69" x2="32.7" y2="17.06"/><line class="cls-8" x1="54.42" y1="9.88" x2="54.36" y2="17.25"/><line class="cls-8" x1="76.07" y1="10.07" x2="76.01" y2="17.44"/><line class="cls-8" x1="43.59" y1="9.79" x2="43.53" y2="17.51"/><line class="cls-8" x1="65.71" y1="9.98" x2="65.65" y2="17.7"/><g class="cls-9"><polygon class="cls-10" points="69.72 60.38 55.8 60.26 27.07 8.95 40.99 9.07 69.72 60.38"/><polygon class="cls-10" points="42.64 60.15 28.73 60.03 0 8.71 13.92 8.84 42.64 60.15"/><polygon class="cls-11" points="89.11 60.55 63.74 60.33 35.02 9.02 60.39 9.23 89.11 60.55"/><polygon class="cls-11" points="130.18 60.9 104.81 60.68 76.08 9.37 101.45 9.59 130.18 60.9"/></g><circle class="cls-12" cx="59.94" cy="24.7" r="21.16" transform="translate(5.07 38.83) rotate(-34.98)"/><ellipse class="cls-13" cx="41.85" cy="9.67" rx="9.52" ry="41.87" transform="translate(38.88 51.09) rotate(-87.66)"/><ellipse class="cls-14" cx="61.1" cy="52.5" rx="9.52" ry="41.87" transform="translate(14.56 111.41) rotate(-87.66)"/></g></g></g></svg>