<svg xmlns="http://www.w3.org/2000/svg" viewBox="0 0 122.88 111.9"><defs><style>.a{fill-rule:evenodd;}</style></defs><title>business-loan</title><path class="a" d="M10.64,20.63h9.2V62.75c-.82,0-1.65-.07-2.49-.07A36.82,36.82,0,0,0,.61,66.5L0,66.83V31.26A10.66,10.66,0,0,1,10.64,20.63Zm22.53,80a5,5,0,0,1,.76,2.6c0,4.8-7.43,8.7-16.58,8.7S.77,108,.77,103.2a5.17,5.17,0,0,1,.75-2.6c2.12,3.54,8.4,6.1,15.83,6.1s13.72-2.56,15.82-6.1Zm47.66-3.09a6.15,6.15,0,0,1,.93,3.19c0,5.88-9.1,10.65-20.32,10.65s-20.32-4.77-20.32-10.65a6.2,6.2,0,0,1,.93-3.19c2.59,4.33,10.29,7.47,19.39,7.47s16.82-3.14,19.39-7.47Zm0-12.88a6.15,6.15,0,0,1,.93,3.19c0,5.88-9.1,10.66-20.32,10.66S41.12,93.7,41.12,87.82a6.23,6.23,0,0,1,.93-3.19C44.64,89,52.34,92.1,61.44,92.1S78.26,89,80.83,84.63Zm-12-26.83-.24,2.64-10-.87a9.12,9.12,0,0,1,1.71,3.59L57.88,63a7.93,7.93,0,0,0-1.08-2.36,4.86,4.86,0,0,0-2.07-1.85l.19-2.14,13.86,1.2Zm-7.34-4.14c9.22,0,16.7,2.94,16.7,6.55s-7.48,6.55-16.7,6.55-16.7-3-16.7-6.55,7.48-6.55,16.7-6.55Zm0-2.18c11.22,0,20.32,4.78,20.32,10.66s-9.1,10.65-20.32,10.65S41.12,68,41.12,62.14s9.1-10.66,20.32-10.66ZM80.9,72.13a6.15,6.15,0,0,1,.86,3.06c0,5.88-9.1,10.65-20.32,10.65S41.12,81.07,41.12,75.19A6,6,0,0,1,42,72.13c2.5,4.39,10.26,7.6,19.46,7.6s17-3.21,19.46-7.6Zm40.46,28.47a5.11,5.11,0,0,1,.75,2.6c0,4.8-7.42,8.7-16.58,8.7S89,108,89,103.2a5.08,5.08,0,0,1,.76-2.6c2.11,3.54,8.39,6.1,15.82,6.1s13.72-2.56,15.83-6.1Zm-9.84-21.9-.19,2.16-8.14-.71a7.43,7.43,0,0,1,1.39,2.93l-2-.17a6.17,6.17,0,0,0-.88-1.92,4,4,0,0,0-1.69-1.52l.16-1.75,11.31,1Zm-6-3.38c7.52,0,13.63,2.4,13.63,5.35S113.05,86,105.53,86,91.9,83.61,91.9,80.67s6.11-5.35,13.63-5.35Zm0-1.77c9.16,0,16.58,3.89,16.58,8.69s-7.42,8.7-16.58,8.7S89,87,89,82.24s7.43-8.69,16.58-8.69ZM121.41,90.4a4.92,4.92,0,0,1,.7,2.5c0,4.79-7.42,8.69-16.58,8.69S89,97.69,89,92.9a4.9,4.9,0,0,1,.7-2.5c2,3.58,8.38,6.2,15.88,6.2s13.84-2.62,15.88-6.2ZM23.34,78.7l-.2,2.16L15,80.15a7.43,7.43,0,0,1,1.39,2.93l-2-.17A6.17,6.17,0,0,0,13.56,81a4,4,0,0,0-1.69-1.52L12,77.72l11.32,1Zm-6-3.38c7.52,0,13.63,2.4,13.63,5.35S24.87,86,17.35,86,3.72,83.61,3.72,80.67s6.11-5.35,13.63-5.35Zm0-1.77c9.15,0,16.58,3.89,16.58,8.69s-7.43,8.7-16.58,8.7S.77,87,.77,82.24s7.43-8.69,16.58-8.69ZM33.23,90.4a5,5,0,0,1,.7,2.5c0,4.79-7.43,8.69-16.58,8.69S.77,97.69.77,92.9a4.9,4.9,0,0,1,.7-2.5c2,3.58,8.37,6.2,15.88,6.2S31.19,94,33.23,90.4ZM50.42,0H71.6a12,12,0,0,1,12,12v6.4H75.94V12a4.21,4.21,0,0,0-4.2-4.2H50.28a4.21,4.21,0,0,0-4.2,4.2v6.42H38.45V12a12,12,0,0,1,12-12ZM26.16,20.63H95.3V64c-1,.27-2,.57-2.89.91a16.88,16.88,0,0,0,.22-2.77c0-7.29-4.51-13.31-11.81-17.13a42.54,42.54,0,0,0-19.38-4.4A42.54,42.54,0,0,0,42.06,45c-7.29,3.82-11.81,9.84-11.81,17.13a16.88,16.88,0,0,0,.23,2.77,36.87,36.87,0,0,0-4.32-1.26v-43Zm75.46,0h10.62a10.67,10.67,0,0,1,10.64,10.64V66.83l-.61-.33a36.82,36.82,0,0,0-16.74-3.82,38.78,38.78,0,0,0-3.91.19V20.63Z"/></svg>