<svg xmlns="http://www.w3.org/2000/svg" data-name="Layer 1" viewBox="0 0 100 125" x="0px" y="0px"><defs><style>.cls-1{fill-rule:evenodd;}</style></defs><title>A</title><path class="cls-1" d="M88.14,23.07a1.2,1.2,0,0,1-1.2-1.2V17.41H80.46v4.52a1.2,1.2,0,0,1-1.2,1.2h-2l6.48,4.68,6.54-4.72-2.1,0ZM60.88,85.69l-2.24-3H41.36l-2.23,3a1.1,1.1,0,0,1-1,.5l-8.66-.58v3.87a3.33,3.33,0,0,1-3.33,3.32H19.44a3.33,3.33,0,0,1-3.33-3.32V84.71l-3-.2a1.12,1.12,0,0,1-1-1,50.94,50.94,0,0,1-.33-7.09V69.49a.28.28,0,0,1,0-.09c.26-3.09,1.17-11.23,2.65-13.52a1.37,1.37,0,0,1,.15-.21l5.75-6.09h-.27A4.34,4.34,0,0,1,17,48.29c-2.71-2.71-1.14-8.24,3.09-8.24h4.79c1.65-3.39,3.42-6.79,5.32-10.06.52-.72,2.46-1.19,2.64-1.24.51-.13,1.08-.25,1.69-.35a16.09,16.09,0,0,1-.76-4.93A16.28,16.28,0,1,1,65.52,28.4a12.79,12.79,0,0,1,3.85,1.15,1.12,1.12,0,0,1,.48.44c.14-.08,5,9.33,5.38,10.19h4.68c4.11,0,5.65,5.38,3,8a4.3,4.3,0,0,1-3,1.25h-.35l5.87,6.22.16.21c1,1.56,1.76,6.19,2.2,9.59.15,1.44.34,2.64.45,3.93v7a49.07,49.07,0,0,1-.33,7.09,1.11,1.11,0,0,1-1,1l-3,.2v4.77a3.33,3.33,0,0,1-3.33,3.32H73.87a3.33,3.33,0,0,1-3.33-3.32V85.61l-8.66.58a1.09,1.09,0,0,1-1-.5Zm.43-3.12,1,1.36,23.49-1.58c.07-.77.15-2.11.18-4.29A79.6,79.6,0,0,1,75.11,80a.65.65,0,0,1-.2,0h-12a2.47,2.47,0,0,1-1.61,2.56ZM37.67,83.93l1-1.36A2.46,2.46,0,0,1,37.08,80h-12a.68.68,0,0,1-.2,0A79.86,79.86,0,0,1,14,78.06c0,2.18.12,3.52.19,4.29l23.48,1.58Zm1.85-10.32h21a2.44,2.44,0,0,1,2.44,2.44v1.73h12c.84-.09,8.48-1,11.14-2V71.26C82.24,72.53,75,72.72,75,72.72a1.11,1.11,0,1,1-.07-2.22s10.71-.84,11-2.06c0-.3,0-.19-.16-1.43L75.1,68.79a1.12,1.12,0,0,1-1.26-.8L71.72,60.4H69.24L72,71.23a1.22,1.22,0,0,1,.07.38A1.12,1.12,0,0,1,71,72.73H29a1.12,1.12,0,0,1-1.11-1.12,1.15,1.15,0,0,1,.06-.37L30.77,60.4H28.29L26.16,68a1.12,1.12,0,0,1-1.25.8L14.25,67c-.14,1.24-.09,1.51-.12,1.8,0,.81,11,1.69,11,1.69a1.11,1.11,0,0,1-.06,2.22S17.77,72.53,14,71.26v4.48c2.67,1.05,10.3,2,11.14,2h12V76.05a2.48,2.48,0,0,1,.72-1.73,2.43,2.43,0,0,1,1.72-.71Zm21,2.23h-21a.21.21,0,0,0-.21.21v4.22a.22.22,0,0,0,.21.22h21a.21.21,0,0,0,.21-.22V76.05a.21.21,0,0,0-.21-.21ZM74.57,87.7a1.12,1.12,0,0,1,2.23,0v2.88h1V87.7a1.12,1.12,0,0,1,2.23,0v2.88h.48a1.11,1.11,0,0,0,.78-.33,1.08,1.08,0,0,0,.32-.77V84.86l-8.89.6v4a1.13,1.13,0,0,0,1.1,1.1h.7V87.7Zm-51.37,0a1.12,1.12,0,0,1,2.23,0v2.88c.8,0,1.8,0,1.8-1.1v-4l-8.89-.6v4.62c0,1,.83,1.1,1.58,1.1V87.7a1.12,1.12,0,0,1,2.23,0v2.88H23.2V87.7ZM76,47.12H24.05c-.41,1-.81,1.92-1.2,2.89a1.17,1.17,0,0,1-.24.38L16.41,57c.22,1.8,31.64,1.21,33.49,1.21H50c1.29,0,33.36.69,33.59-1.2L77.4,50.39a.24.24,0,0,1-.08-.09A28.1,28.1,0,0,1,76,47.12Zm2.46.1h1.5c2.77,0,2.77-4.81,0-4.81H76.29c.52,1.14,1,2.31,1.57,3.5.17.39.35.83.55,1.31ZM23.78,42.28H20.05c-2.9,0-3,5.07,0,5.07h1.49c.22-.53.42-1,.61-1.44.53-1.24,1.08-2.45,1.63-3.63Zm44.3-10.9a14,14,0,0,0-3.4-.87c-.13.26-.26.52-.4.78,1.32.11,2.65.24,4,.39-.06-.12-.12-.22-.17-.3Zm1.5,2.69c-1.14-.14-2.29-.27-3.44-.38s-2.15-.2-3.25-.28A18.67,18.67,0,0,1,61.51,35a16.3,16.3,0,0,1-23,0,18.67,18.67,0,0,1-1.38-1.57c-1.09.08-2.18.17-3.24.28s-2.3.24-3.45.38C29,36.61,27,40.55,25,44.89H75c-2-4.34-4-8.28-5.39-10.82ZM82.7,59.44c.41,1.39,1.13,3.94,1.41,5.59l1.37-.23a49.41,49.41,0,0,0-1.11-6,8.07,8.07,0,0,1-1.67.68Zm-.78,6a54,54,0,0,0-1.4-5.47,43.42,43.42,0,0,1-6.49.48l1.69,6,6.2-1ZM50,70.5H69.56L67,60.4H33.07L30.45,70.5Zm-14.67-40a14.12,14.12,0,0,0-3.41.87l-.17.3c1.33-.15,2.65-.28,4-.39-.14-.26-.28-.52-.4-.78ZM19.48,59.93a54,54,0,0,0-1.4,5.47l6.21,1,1.68-6a43.51,43.51,0,0,1-6.49-.48ZM15.9,65a55.57,55.57,0,0,1,1.41-5.59,8.4,8.4,0,0,1-1.68-.68,49.51,49.51,0,0,0-1.1,6L15.9,65Zm35.21.53V62.24a1.11,1.11,0,0,0-2.22,0v3.32a1.11,1.11,0,0,0,2.22,0Zm.46-1.89a2.05,2.05,0,0,1-3,2.78,2,2,0,0,1-.1-2.78,1.11,1.11,0,0,0-1.68-1.46,4.29,4.29,0,1,0,6.48,0,1.11,1.11,0,1,0-1.68,1.44Zm8.24-50a13.86,13.86,0,1,0,4.07,9.81,13.83,13.83,0,0,0-4.07-9.81Zm-5.7,6.78a4.12,4.12,0,0,0-1.2-2.91,4.08,4.08,0,0,0-1.71-1v-.77a1.2,1.2,0,0,0-2.4,0v.77a4.11,4.11,0,0,0,1.2,8,1.71,1.71,0,0,1,1.71,1.71,1.69,1.69,0,0,1-.5,1.21,1.71,1.71,0,0,1-2.42,0,1.69,1.69,0,0,1-.5-1.21,1.2,1.2,0,1,0-2.4,0,4.07,4.07,0,0,0,1.21,2.91,4.12,4.12,0,0,0,1.7,1v1a1.2,1.2,0,1,0,2.4,0v-1a4.12,4.12,0,0,0-1.2-8,1.71,1.71,0,1,1,1.71-1.71,1.2,1.2,0,0,0,2.4,0ZM50,11a12.5,12.5,0,1,0,8.83,3.66A12.45,12.45,0,0,0,50,11Zm7.13,5.36a10.07,10.07,0,1,0,3,7.13,10,10,0,0,0-3-7.13ZM11.86,23.13h-2l6.48,4.68,6.54-4.72-2.09,0a1.19,1.19,0,0,1-1.2-1.2V17.41H13.06v4.52a1.2,1.2,0,0,1-1.2,1.2ZM22,20.69V16.21a1.2,1.2,0,0,0-1.2-1.2H11.86a1.2,1.2,0,0,0-1.2,1.2v4.52H6.12a1.19,1.19,0,0,0-1.2,1.2,1.21,1.21,0,0,0,.58,1l10.11,7.29a1.2,1.2,0,0,0,1.42,0L27.19,22.9a1.2,1.2,0,0,0-.71-2.17l-4.53,0Zm56.11,0V16.21a1.2,1.2,0,0,1,1.2-1.2h8.88a1.2,1.2,0,0,1,1.2,1.2v4.48l4.54,0a1.2,1.2,0,0,1,.71,2.17L84.42,30.24a1.2,1.2,0,0,1-1.42,0L72.9,23a1.21,1.21,0,0,1-.59-1,1.2,1.2,0,0,1,1.2-1.2Z"/></svg>