<svg xmlns="http://www.w3.org/2000/svg" viewBox="0 0 60 75" x="0px" y="0px"><title>050 - Personal Loans</title><path d="M56,21H40V4a4,4,0,0,0-4-4H4A4,4,0,0,0,0,4V28a4,4,0,0,0,4,4H6v5a2,2,0,0,0,2,2,1.971,1.971,0,0,0,1.034-.29L16,34.551V49a4,4,0,0,0,4,4H39.45a1.017,1.017,0,0,1,.507.139L50.952,59.7A2,2,0,0,0,54,58V53h2a4,4,0,0,0,4-4V25A4,4,0,0,0,56,21ZM36.58,31.94a3.986,3.986,0,0,0,3.266-2.9,9.039,9.039,0,1,1-3.266,2.9ZM8,37V32a2,2,0,0,0-2-2H4a2,2,0,0,1-2-2V4A2,2,0,0,1,4,2H36a2,2,0,0,1,2,2V28a2,2,0,0,1-2,2H20.552a3.008,3.008,0,0,0-1.538.424ZM58,49a2,2,0,0,1-2,2H54a2,2,0,0,0-2,2l-.007,4.991L40.974,51.417A3.038,3.038,0,0,0,39.45,51H20a2,2,0,0,1-2-2V33.357l2.038-1.216A1,1,0,0,1,20.552,32H34.205A11.079,11.079,0,1,0,40,26.767V23H56a2,2,0,0,1,2,2Z"/><path d="M23,20a9.006,9.006,0,0,0-5.35-8.219L18.686,10.2a2.018,2.018,0,0,0-.543-2.716L15.243,5.4A2.112,2.112,0,0,0,12.767,5.4L9.86,7.485a2.023,2.023,0,0,0-.536,2.734l1.026,1.562A9,9,0,1,0,23,20ZM11.023,9.112l2.919-2.1a.114.114,0,0,1,.125.006L17,9.121l-1.339,2.04a8.685,8.685,0,0,0-3.324,0ZM14,27a7,7,0,1,1,7-7A7.009,7.009,0,0,1,14,27Z"/><path d="M14,15a5,5,0,1,0,5,5A5.006,5.006,0,0,0,14,15Zm0,8a3,3,0,1,1,3-3A3,3,0,0,1,14,23Z"/><path d="M44,38a1,1,0,1,1-.867,1.5,1,1,0,0,0-1.731,1,2.993,2.993,0,0,0,1.6,1.3V42a1,1,0,0,0,2,0v-.184A2.993,2.993,0,0,0,44,36a1,1,0,1,1,.867-1.5,1,1,0,0,0,1.731-1A2.993,2.993,0,0,0,45,32.2V32a1,1,0,0,0-2,0v.184A2.993,2.993,0,0,0,44,38Z"/><path d="M29,35H22a1,1,0,0,0,0,2h7a1,1,0,0,0,0-2Z"/><path d="M29,40H22a1,1,0,0,0,0,2h7a1,1,0,0,0,0-2Z"/><path d="M27,45H22a1,1,0,0,0,0,2h5a1,1,0,0,0,0-2Z"/><path d="M27,15h7a1,1,0,0,0,0-2H27a1,1,0,0,0,0,2Z"/><path d="M27,20h7a1,1,0,0,0,0-2H27a1,1,0,0,0,0,2Z"/><path d="M27,25h5a1,1,0,0,0,0-2H27a1,1,0,0,0,0,2Z"/></svg>