<svg xmlns="http://www.w3.org/2000/svg" xmlns:xlink="http://www.w3.org/1999/xlink" version="1.1" x="0px" y="0px" viewBox="0 0 64 80" style="enable-background:new 0 0 64 64;" xml:space="preserve"><path d="M57.804,41.02l-24.475,4.895l-4.622-4.622C28.52,41.105,28.266,41,28,41H17h-4H3c-0.553,0-1,0.448-1,1v15  c0,0.552,0.447,1,1,1h10h4c0.553,0,1-0.448,1-1v-1h2.745l10.776,5.878C31.668,61.958,31.833,62,32,62h3  c0.182,0,0.359-0.049,0.515-0.143l24.989-14.994C61.455,46.309,62,45.265,62,44c0-0.835-0.37-1.607-1.043-2.173  C60.134,41.134,58.936,40.824,57.804,41.02z M4,43h8v13H4V43z M16,56h-2V43h2V56z M59.485,45.143L34.723,60h-2.468l-10.776-5.878  C21.332,54.042,21.167,54,21,54h-3V43h9.586l8.707,8.708C36.735,52.149,37,52.633,37,53c0,1.009-0.99,2-2,2  c-0.366,0-0.85-0.265-1.293-0.707l-6-6l-1.414,1.414l6,6.001C33.128,56.541,34.089,57,35,57c2.131,0,4-1.869,4-4  c0-0.913-0.459-1.874-1.293-2.707l-2.679-2.679l23.143-4.629c0.525-0.094,1.127,0.058,1.499,0.372C60,43.635,60,43.91,60,44  C60,44.253,59.951,44.871,59.485,45.143z"/><path d="M32,25c0.552,0,1,0.449,1,1c0,0.552,0.447,1,1,1s1-0.448,1-1c0-1.302-0.839-2.402-2-2.816V22h-2v1.184  c-1.161,0.414-2,1.514-2,2.816c0,1.654,1.346,3,3,3c0.552,0,1,0.449,1,1s-0.448,1-1,1s-1-0.449-1-1l-2,0  c0,1.302,0.839,2.402,2,2.816V34h2v-1.184c1.161-0.414,2-1.514,2-2.816c0-1.654-1.346-3-3-3c-0.552,0-1-0.449-1-1S31.448,25,32,25z"/><path d="M21,6h-6c-0.553,0-1,0.448-1,1v8.974l-6.621,5.242C7.14,21.406,7,21.694,7,22v7c0,0.383,0.22,0.733,0.564,0.9  c0.345,0.166,0.754,0.123,1.057-0.116L13,26.317V38c0,0.552,0.447,1,1,1h12h12h12c0.553,0,1-0.448,1-1V26.317l4.379,3.467  C55.56,29.927,55.779,30,56,30c0.148,0,0.297-0.033,0.436-0.1C56.78,29.733,57,29.383,57,29v-7c0-0.306-0.14-0.594-0.379-0.784  l-24-19c-0.365-0.288-0.877-0.288-1.242,0L22,9.641V7C22,6.448,21.553,6,21,6z M16,8h4v3.224l-4,3.167V8z M27,37V24  c0-2.757,2.243-5,5-5s5,2.243,5,5v13H27z M49,37H39V24c0-3.86-3.141-7-7-7s-7,3.14-7,7v13H15V24.734l17-13.459l17,13.459V37z   M32,4.275l23,18.208v4.449l-4.378-3.466c0,0-0.001-0.001-0.001-0.001l-18-14.25c-0.365-0.288-0.877-0.288-1.242,0l-18,14.25  c0,0-0.001,0.001-0.001,0.001L9,26.933v-4.449l6.619-5.24c0.001-0.001,0.002-0.001,0.002-0.001l6-4.75  c0.001,0,0.001-0.001,0.001-0.002L32,4.275z"/><path d="M22,25h-4c-0.553,0-1,0.448-1,1v4c0,0.552,0.447,1,1,1h4c0.553,0,1-0.448,1-1v-4C23,25.448,22.553,25,22,25z M21,29h-2v-2h2  V29z"/><path d="M42,31h4c0.553,0,1-0.448,1-1v-4c0-0.552-0.447-1-1-1h-4c-0.553,0-1,0.448-1,1v4C41,30.552,41.447,31,42,31z M43,27h2v2h-2  V27z"/></svg>