<svg xmlns="http://www.w3.org/2000/svg" version="1.1" viewBox="-5.0 -10.0 110.0 135.0">
 <path d="m9.375 25h6.25v-4.6875h-4.6875c-1.6562 0-3.2461 0.65625-4.418 1.832-1.1758 1.1719-1.832 2.7617-1.832 4.418v40.625c0 1.6562 0.65625 3.2461 1.832 4.418 1.1719 1.1758 2.7617 1.832 4.418 1.832h50v-10.938h-51.562zm29.688 40.625h6.25c0.86328 0 1.5625 0.69922 1.5625 1.5625s-0.69922 1.5625-1.5625 1.5625h-6.25c-0.86328 0-1.5625-0.69922-1.5625-1.5625s0.69922-1.5625 1.5625-1.5625zm35.938-40.625h-6.25v-4.6875h4.6875c1.6562 0 3.2461 0.65625 4.418 1.832 1.1758 1.1719 1.832 2.7617 1.832 4.418v18.75h-4.6875zm-17.188 60.938v3.125h-31.25v-3.125c0-1.7266 1.3984-3.125 3.125-3.125h25c0.82812 0 1.625 0.32812 2.2109 0.91406 0.58594 0.58594 0.91406 1.3828 0.91406 2.2109zm-8.75-9.375c0.40625 1.1016 0.94141 2.1484 1.5938 3.125h-16.938c0.65234-0.97656 1.1875-2.0234 1.5938-3.125zm15-29.688c-1.9648 1.4766-3.1211 3.793-3.125 6.25h-42.188v-6.25zm-25-3.125v-15.625h6.25v15.625zm-15.625 0v-15.625h6.25v15.625zm31.25 0v-15.625h6.25v15.625zm10.938-26.562-23.438-12.5-23.438 12.5v7.8125h46.875zm-23.438 1.5625c-1.2656 0-2.4023-0.76172-2.8867-1.9297-0.48438-1.168-0.21484-2.5117 0.67578-3.4062 0.89453-0.89062 2.2383-1.1602 3.4062-0.67578 1.168 0.48438 1.9297 1.6211 1.9297 2.8867 0 0.82812-0.32812 1.625-0.91406 2.2109-0.58594 0.58594-1.3828 0.91406-2.2109 0.91406zm48.438 29.688h-21.875c-2.5898 0-4.6875 2.0977-4.6875 4.6875v37.5c0 2.5898 2.0977 4.6875 4.6875 4.6875h21.875c2.5898 0 4.6875-2.0977 4.6875-4.6875v-37.5c0-2.5898-2.0977-4.6875-4.6875-4.6875zm0 35.938h-21.875v-31.25h21.875zm-7.8125-11.719c0-1.293-1.0508-2.3438-2.3438-2.3438h-1.5625c-2.8672 0.007812-5.25-2.207-5.4531-5.0664-0.20703-2.8555 1.8359-5.3867 4.6719-5.793v-1.6406c0-0.86328 0.69922-1.5625 1.5625-1.5625s1.5625 0.69922 1.5625 1.5625v1.5625h3.125c0.86328 0 1.5625 0.69922 1.5625 1.5625s-0.69922 1.5625-1.5625 1.5625h-5.4688c-1.293 0-2.3438 1.0508-2.3438 2.3438s1.0508 2.3438 2.3438 2.3438h1.5625c2.8672-0.007812 5.2539 2.2031 5.4609 5.0664 0.20312 2.8594-1.8398 5.3906-4.6797 5.793v1.6406c0 0.86328-0.69922 1.5625-1.5625 1.5625s-1.5625-0.69922-1.5625-1.5625v-1.5625h-3.125c-0.86328 0-1.5625-0.69922-1.5625-1.5625s0.69922-1.5625 1.5625-1.5625h5.4688c1.293 0 2.3438-1.0508 2.3438-2.3438z"/>
</svg>