<svg xmlns:dc="http://purl.org/dc/elements/1.1/" xmlns:cc="http://creativecommons.org/ns#" xmlns:rdf="http://www.w3.org/1999/02/22-rdf-syntax-ns#" xmlns:svg="http://www.w3.org/2000/svg" xmlns="http://www.w3.org/2000/svg" xmlns:sodipodi="http://sodipodi.sourceforge.net/DTD/sodipodi-0.dtd" xmlns:inkscape="http://www.inkscape.org/namespaces/inkscape" version="1.1" x="0px" y="0px" viewBox="0 0 100 125"><g transform="translate(0,-952.36218)"><path style="text-indent:0;text-transform:none;direction:ltr;block-progression:tb;baseline-shift:baseline;color:#000000;enable-background:accumulate;" d="m 8,975.36217 c -1.6447,0 -3,1.3553 -3,3 l 0,48.00003 c 0,1.6447 1.3553,3 3,3 l 84,0 c 1.6447,0 3,-1.3553 3,-3 l 0,-48.00003 c 0,-1.6447 -1.3553,-3 -3,-3 l -84,0 z m 0,2 84,0 c 0.57129,0 1,0.4287 1,1 l 0,48.00003 c 0,0.5713 -0.42871,1 -1,1 l -84,0 c -0.57129,0 -1,-0.4287 -1,-1 l 0,-48.00003 c 0,-0.5713 0.42871,-1 1,-1 z m 34,8.9688 c -0.55228,0 -1,0.4477 -1,1 0,0.5522 0.44772,1 1,1 l 44,0 c 0.55228,0 1,-0.4478 1,-1 0,-0.5523 -0.44772,-1 -1,-1 l -44,0 z m -14.28125,2 c -6.2044,0 -11.4338,4.2305 -13.125,10 l -3.59375,0 c -0.5522,0 -1,0.4476 -1,1 0,0.5522 0.4478,1.00003 1,1.00003 l 3.15625,0 c -0.094,0.6594 -0.15625,1.3147 -0.15625,2 0,0.6789 0.0641,1.3461 0.15625,2 l -3.15625,0 c -0.5522,0 -1,0.4476 -1,1 0,0.5522 0.4478,1 1,1 l 3.59375,0 c 1.6912,5.7693 6.9206,10 13.125,10 4.3739,0 7.3486,-1.5964 10,-4.3126 a 1.005361,1.0055649 0 0 0 -1.4375,-1.4062 c -2.4245,2.4838 -4.6384,3.7188 -8.5625,3.7188 -5.1012,0 -9.42515,-3.3262 -11.03125,-8 l 10.3125,0 c 0.5522,0 1,-0.4478 1,-1 0,-0.5524 -0.4478,-1 -1,-1 l -10.8125,0 c -0.105,-0.6473 -0.1875,-1.3215 -0.1875,-2 0,-0.6894 0.0791,-1.3433 0.1875,-2 l 10.8125,0 c 0.5522,0 1,-0.44783 1,-1.00003 0,-0.5524 -0.4478,-1 -1,-1 l -10.3125,0 c 1.6137,-4.6593 5.94025,-8 11.03125,-8 3.9242,0 6.138,1.2037 8.5625,3.6874 a 1.005361,1.0055649 0 0 0 1.4375,-1.4062 c -2.6514,-2.7162 -5.6261,-4.2812 -10,-4.2812 z m 14.28125,8 c -0.55228,0 -1,0.4477 -1,1 0,0.5522 0.44772,1 1,1 l 44,0 c 0.55228,0 1,-0.4478 1,-1 0,-0.5523 -0.44772,-1 -1,-1 l -44,0 z m 26.8125,9.03123 c -0.32762,0.057 -0.61976,0.2878 -0.75,0.5938 l -4.8125,11.5624 -3.5,0.875 c -0.50736,0.1308 -0.84967,0.7115 -0.71875,1.2188 0.13093,0.5073 0.71146,0.8498 1.21875,0.7188 l 4,-1 c 0.30524,-0.075 0.56887,-0.3027 0.6875,-0.5938 l 4,-9.625 3.125,8.5938 c 0.2695,0.7101 1.44806,0.7914 1.8125,0.125 l 4.03125,-7.25 3.1875,7.1874 c 0.18974,0.4251 0.70468,0.6757 1.15625,0.5626 l 4,-1 c 0.50736,-0.1308 0.84967,-0.7115 0.71875,-1.2188 -0.13093,-0.5073 -0.71146,-0.8498 -1.21875,-0.7188 l -3.1875,0.7813 -3.65625,-8.2187 c -0.29738,-0.6714 -1.41508,-0.7302 -1.78125,-0.094 l -3.9375,7.0938 -3.25,-8.9376 c -0.15482,-0.4466 -0.65995,-0.7413 -1.125,-0.6562 z M 42,1006.331 c -0.55228,0 -1,0.4477 -1,1 0,0.5522 0.44772,1 1,1 l 14,0 c 0.55228,0 1,-0.4478 1,-1 0,-0.5523 -0.44772,-1 -1,-1 l -14,0 z" fill="#000000" fill-opacity="1" stroke="none" marker="none" visibility="visible" display="inline" overflow="visible"/></g></svg>