<svg xmlns="http://www.w3.org/2000/svg" xmlns:xlink="http://www.w3.org/1999/xlink" version="1.1" x="0px" y="0px" viewBox="0 0 96 120" style="enable-background:new 0 0 96 96;" xml:space="preserve"><path d="M37.158,29.507c5.451,0,9.886-4.435,9.886-9.886s-4.435-9.886-9.886-9.886s-9.886,4.435-9.886,9.886  S31.707,29.507,37.158,29.507z M37.158,12.234c4.073,0,7.387,3.314,7.387,7.387s-3.314,7.387-7.387,7.387s-7.387-3.314-7.387-7.387  S33.085,12.234,37.158,12.234z M38.726,21.709c0.039-0.212,0.031-0.324,0.024-0.369c-0.202-0.137-0.915-0.228-1.347-0.283  c-1.382-0.177-3.956-0.505-4.061-3.368c-0.063-1.7,0.953-3.07,2.567-3.546v-0.355c0-0.69,0.56-1.25,1.25-1.25s1.25,0.559,1.25,1.25  v0.353c1.261,0.357,2.407,1.263,2.887,2.791c0.207,0.658-0.159,1.36-0.818,1.566c-0.659,0.207-1.36-0.159-1.566-0.818  c-0.339-1.08-1.438-1.303-2.095-1.19c-0.461,0.079-1.005,0.336-0.977,1.107c0.021,0.566,0.112,0.755,1.88,0.981  c1.095,0.14,2.335,0.298,3.06,1.292c0.439,0.602,0.575,1.375,0.403,2.298c-0.274,1.46-1.342,2.562-2.775,2.953v0.332  c0,0.69-0.559,1.25-1.25,1.25s-1.25-0.559-1.25-1.25v-0.372c-1.392-0.421-2.501-1.493-2.898-2.923  c-0.185-0.665,0.204-1.354,0.869-1.538c0.665-0.185,1.354,0.204,1.538,0.869c0.26,0.935,1.142,1.32,1.905,1.288  C37.608,22.765,38.549,22.652,38.726,21.709z M48.627,24.915c0-0.69,0.56-1.25,1.25-1.25h14.959c0.69,0,1.25,0.559,1.25,1.25  s-0.56,1.25-1.25,1.25H49.876C49.186,26.164,48.627,25.605,48.627,24.915z M66.085,33.663c0,0.69-0.56,1.25-1.25,1.25H28.631  c-0.69,0-1.25-0.56-1.25-1.25c0-0.69,0.56-1.25,1.25-1.25h36.204C65.526,32.413,66.085,32.973,66.085,33.663z M66.085,42.411  c0,0.69-0.56,1.25-1.25,1.25H28.631c-0.69,0-1.25-0.56-1.25-1.25s0.56-1.25,1.25-1.25h36.204  C65.526,41.161,66.085,41.721,66.085,42.411z M80.517,44.713h-5.623V19.872c0-0.822-0.307-1.564-0.889-2.146L61.077,4.797  c-0.581-0.582-1.323-0.889-2.146-0.889H24.414c-1.673,0-3.035,1.361-3.035,3.035v6.867h-6.83c-1.673,0-3.035,1.361-3.035,3.035  v68.449c0,1.673,1.361,3.035,3.035,3.035h34.017c0.106,2.094,1.843,3.764,3.963,3.764h27.988c2.188,0,3.968-1.78,3.968-3.968V48.681  C84.485,46.493,82.705,44.713,80.517,44.713z M70.628,17.883h-9.173c-0.295,0-0.536-0.24-0.536-0.536V8.174L70.628,17.883z   M23.878,6.943c0-0.295,0.24-0.536,0.536-0.536h34.007v10.94c0,1.673,1.361,3.035,3.035,3.035h10.94v24.331H52.529  c-2.188,0-3.968,1.78-3.968,3.968v1.228h-19.93c-0.69,0-1.25,0.559-1.25,1.25c0,0.69,0.56,1.25,1.25,1.25h19.93v6.249h-19.93  c-0.69,0-1.25,0.559-1.25,1.25s0.56,1.25,1.25,1.25h19.93v6.249h-19.93c-0.69,0-1.25,0.559-1.25,1.25s0.56,1.25,1.25,1.25h19.93  v6.065H24.414c-0.295,0-0.536-0.24-0.536-0.536V6.943z M14.014,85.293V16.844c0-0.295,0.24-0.536,0.536-0.536h6.83v59.126  c0,1.673,1.361,3.035,3.035,3.035h24.147v7.359H14.55C14.254,85.829,14.014,85.588,14.014,85.293z M81.986,88.124  c0,0.81-0.659,1.469-1.469,1.469H52.529c-0.81,0-1.469-0.659-1.469-1.469V48.681c0-0.81,0.659-1.469,1.469-1.469h27.988  c0.81,0,1.469,0.659,1.469,1.469V88.124z M78.497,48.48H54.549c-1.224,0-2.221,0.996-2.221,2.221v4.862  c0,1.224,0.996,2.221,2.221,2.221h23.948c1.224,0,2.221-0.996,2.221-2.221v-4.862C80.718,49.477,79.722,48.48,78.497,48.48z   M78.219,55.284H54.828V50.98h23.391V55.284z M58.746,59.391h-4.308c-1.163,0-2.11,0.947-2.11,2.11v4.839  c0,1.163,0.947,2.11,2.11,2.11h4.308c1.163,0,2.11-0.947,2.11-2.11v-4.839C60.856,60.337,59.91,59.391,58.746,59.391z   M58.357,65.951h-3.529V61.89h3.529V65.951z M58.746,69.328h-4.308c-1.163,0-2.11,0.947-2.11,2.11v4.839  c0,1.164,0.947,2.11,2.11,2.11h4.308c1.163,0,2.11-0.947,2.11-2.11v-4.839C60.856,70.275,59.91,69.328,58.746,69.328z   M58.357,75.888h-3.529v-4.061h3.529V75.888z M68.677,69.328H64.37c-1.163,0-2.11,0.947-2.11,2.11v4.839  c0,1.163,0.947,2.11,2.11,2.11h4.308c1.163,0,2.11-0.947,2.11-2.11v-4.839C70.787,70.275,69.84,69.328,68.677,69.328z   M68.288,75.888h-3.529v-4.061h3.529V75.888z M68.677,59.391H64.37c-1.163,0-2.11,0.947-2.11,2.11v4.839  c0,1.163,0.947,2.11,2.11,2.11h4.308c1.163,0,2.11-0.947,2.11-2.11v-4.839C70.787,60.337,69.84,59.391,68.677,59.391z   M68.288,65.951h-3.529V61.89h3.529V65.951z M78.608,59.391H74.3c-1.163,0-2.11,0.947-2.11,2.11v14.777  c0,1.163,0.947,2.11,2.11,2.11h4.308c1.163,0,2.11-0.947,2.11-2.11V61.501C80.718,60.337,79.771,59.391,78.608,59.391z   M78.219,75.888H74.69V61.89h3.529V75.888z M58.746,79.265h-4.308c-1.163,0-2.11,0.947-2.11,2.11v4.839  c0,1.163,0.947,2.11,2.11,2.11h4.308c1.163,0,2.11-0.947,2.11-2.11v-4.839C60.856,80.212,59.91,79.265,58.746,79.265z   M58.357,85.826h-3.529v-4.061h3.529V85.826z M68.677,79.265H64.37c-1.163,0-2.11,0.947-2.11,2.11v4.839  c0,1.163,0.947,2.11,2.11,2.11h4.308c1.163,0,2.11-0.947,2.11-2.11v-4.839C70.787,80.212,69.84,79.265,68.677,79.265z   M68.288,85.826h-3.529v-4.061h3.529V85.826z M78.608,79.265H74.3c-1.163,0-2.11,0.947-2.11,2.11v4.839  c0,1.163,0.947,2.11,2.11,2.11h4.308c1.163,0,2.11-0.947,2.11-2.11v-4.839C80.718,80.212,79.771,79.265,78.608,79.265z   M78.219,85.826H74.69v-4.061h3.529V85.826z"/></svg>