<svg xmlns="http://www.w3.org/2000/svg" xmlns:xlink="http://www.w3.org/1999/xlink" version="1.1" x="0px" y="0px" viewBox="0 0 32 40" enable-background="new 0 0 32 32" xml:space="preserve"><g display="none"><rect x="-371.021" y="-86.005" display="inline" fill="#000000" width="415.132" height="207.333"/></g><g><g><path d="M16,0.005c-8.837,0-16,7.163-16,16s7.163,16,16,16s16-7.163,16-16S24.837,0.005,16,0.005z M16,30.005    c-7.72,0-14-6.28-14-14c0-7.72,6.28-14,14-14c7.72,0,14,6.28,14,14C30,23.725,23.72,30.005,16,30.005z"/><path d="M22.052,13.736H9.948v6.71H8.993v2h14.014v-2h-0.955V13.736z M20.052,20.446h-1.26v-4.71h1.26V20.446z M16.792,20.446    h-1.584v-4.71h1.584V20.446z M11.948,15.736h1.26v4.71h-1.26V15.736z"/><polygon points="16,7.554 9.938,12.499 22.062,12.499   "/></g></g><g display="none"><g display="inline"><g><path fill="#000000" d="M16,2.005c7.72,0,14,6.28,14,14s-6.28,14-14,14s-14-6.28-14-14S8.28,2.005,16,2.005 M16,0.005     c-8.837,0-16,7.163-16,16s7.163,16,16,16c8.837,0,16-7.163,16-16S24.837,0.005,16,0.005L16,0.005z"/></g></g><g display="inline"><g><polyline fill="#000000" stroke="#158D47" stroke-width="2" stroke-miterlimit="10" points="10.949,21.904 10.949,14.737      21.051,14.737 21.051,21.904    "/><line fill="#000000" stroke="#158D47" stroke-width="2" stroke-miterlimit="10" x1="17.792" y1="21.904" x2="17.792" y2="14.737"/><line fill="#000000" stroke="#158D47" stroke-width="2" stroke-miterlimit="10" x1="14.208" y1="21.904" x2="14.208" y2="14.737"/></g><line fill="#000000" stroke="#158D47" stroke-width="2" stroke-miterlimit="10" x1="8.993" y1="21.446" x2="23.007" y2="21.446"/><polygon fill="#000000" points="9.938,12.499 16,7.554 22.062,12.499   "/></g></g><text x="0" y="47" fill="#000000" font-size="5px" font-weight="bold" font-family="'Helvetica Neue', Helvetica, Arial-Unicode, Arial, Sans-serif">Created by Icons By Alfredo</text><text x="0" y="52" fill="#000000" font-size="5px" font-weight="bold" font-family="'Helvetica Neue', Helvetica, Arial-Unicode, Arial, Sans-serif">from the Noun Project</text></svg>