<svg xmlns="http://www.w3.org/2000/svg" xmlns:xlink="http://www.w3.org/1999/xlink" version="1.1" x="0px" y="0px" viewBox="0 0 100 125" enable-background="new 0 0 100 100" xml:space="preserve"><path d="M61.028,21.094l4.199,2.684c-0.934,0.292-1.791,0.406-2.522,0.076C60.984,23.078,60.979,21.695,61.028,21.094z   M25.752,45.179c0.221,0.567,1.013,1.226,1.483,1.448c0.884,0.417,1.911,0.394,3.084,0.097l-4.695-3.597  C25.462,43.885,25.502,44.539,25.752,45.179z M39.01,47.6c-1.091-0.513-2.255-0.589-3.369-0.224  c-0.024,0.008-0.091,0.033-0.189,0.072l6.462,4.95c0.078-0.852-0.112-1.863-0.556-2.672C41.009,49.092,40.185,48.154,39.01,47.6z   M75.23,25.303c-1.94-1.915-3.842-1.617-4.795-1.217l5.898,3.769C76.296,27.147,76,26.063,75.23,25.303z M94.223,49.047  c0.396,0.58,0.247,1.372-0.334,1.768L37.392,89.381c-1.228,0.838-2.81,1.3-4.454,1.3c-1.727,0-3.377-0.502-4.645-1.415L6.084,73.255  c-0.57-0.412-0.699-1.207-0.288-1.778c0.41-0.57,1.205-0.7,1.777-0.288L29.781,87.2c0.838,0.604,1.959,0.936,3.157,0.936  c1.137,0,2.21-0.304,3.019-0.857l21.147-14.435l-0.001-4.853L37.391,81.418c-1.227,0.837-2.809,1.299-4.453,1.299  c-1.727,0-3.377-0.502-4.645-1.415L6.084,65.292c-0.57-0.412-0.699-1.207-0.288-1.778c0.41-0.57,1.205-0.701,1.777-0.288  l22.209,16.01c0.838,0.604,1.959,0.936,3.157,0.936c1.137,0,2.21-0.304,3.019-0.857l21.145-14.404L57.1,61.059L37.393,74.534  c-1.229,0.839-2.811,1.301-4.455,1.301c-1.728,0-3.378-0.502-4.645-1.415L6.084,58.41c-0.57-0.412-0.699-1.207-0.288-1.778  c0.41-0.57,1.205-0.7,1.777-0.288l22.209,16.01c0.837,0.604,1.959,0.936,3.157,0.936c1.137,0,2.21-0.304,3.019-0.857l21.143-14.456  l-0.002-6.306L36.333,65.845c-0.913,0.623-2.118,0.966-3.394,0.966c-1.325,0-2.618-0.385-3.548-1.054L7.182,49.747  c-0.958-0.691-1.466-1.597-1.43-2.553c0.036-0.956,0.61-1.821,1.617-2.439l24.695-15.132l12.582-7.71l19.007-11.647  c0.997-0.611,2.33-0.948,3.752-0.948c1.311,0,2.55,0.293,3.488,0.826l21.739,12.334c1.016,0.576,1.62,1.428,1.658,2.335  c0.038,0.909-0.494,1.808-1.459,2.467L71.684,41.715l0.002,6.323l20.769-14.17c0.581-0.398,1.373-0.248,1.768,0.334  c0.396,0.58,0.247,1.373-0.334,1.768L71.686,51.118l0.001,3.815l20.767-14.184c0.581-0.397,1.372-0.247,1.769,0.333  c0.396,0.581,0.247,1.373-0.333,1.769L71.688,58.015l0.001,4.872l20.765-14.174C93.034,48.316,93.827,48.466,94.223,49.047z   M44.7,54.533l-0.575-0.441c0.616-1.646,0.426-3.84-0.536-5.591c-0.271-0.493-1.323-2.18-3.494-3.204  c-1.691-0.795-5.198-0.797-6.95,0.383l-6.17-4.727c1.153-0.91,2.597-1.44,3.107-1.672c0.639-0.292,0.916-1.051,0.62-1.689  c-0.295-0.637-1.034-0.876-1.69-0.62c-1.23,0.481-2.935,1.322-4.095,2.405l-0.707-0.542c-0.559-0.426-1.357-0.322-1.785,0.236  c-0.427,0.558-0.322,1.358,0.236,1.785l0.804,0.616c-0.012,0.032-0.032,0.059-0.043,0.092c-0.574,1.652-1.193,5.393,2.727,7.363  c2.145,1.078,4.481,0.512,6.622-0.326l7.86,6.021c-0.579,0.504-3.578,2.06-3.578,2.06c-0.646,0.276-0.947,1.024-0.672,1.67  c0.206,0.484,1.181,1.043,1.67,0.672c0,0,3.417-1.4,4.637-2.825l0.463,0.355c0.692,0.555,1.534,0.09,1.785-0.236  C45.364,55.76,45.258,54.96,44.7,54.533z M69.144,64.625l-0.006-22.88L45.254,24.527l-10.228,6.268l24.138,17.4  c0.336,0.244,0.534,0.634,0.529,1.049c-0.002,0.111-0.02,0.22-0.049,0.325l0.006,21.538L69.144,64.625z M75.3,30.215  c-0.46,0.453-2.195,1.581-2.974,2.032c-0.609,0.352-0.857,1.1-0.528,1.721c0.228,0.431,0.669,0.684,1.125,0.677  c1.217-0.02,3.848-2.212,4.565-3.031l0.723,0.462c0.212,0.136,0.449,0.201,0.684,0.201c0.42,0,0.83-0.208,1.073-0.587  c0.378-0.593,0.205-1.38-0.387-1.758l-0.845-0.54c0.407-1.563,0.054-3.539-0.957-5.056c-0.29-0.434-1.397-1.912-3.48-2.685  c-2.836-1.049-5.196,0.229-6.326,0.862l-5.799-3.706c0.657-0.584,1.903-1.276,2.568-1.652c0.612-0.346,0.822-1.126,0.473-1.737  c-0.349-0.611-1.09-0.748-1.737-0.473c-1.307,0.556-2.532,1.406-3.506,2.455l-0.501-0.32c-0.591-0.378-1.379-0.205-1.758,0.387  c-0.378,0.593-0.205,1.38,0.387,1.758l0.604,0.386c-0.001,0.005-0.004,0.009-0.005,0.014c-0.402,1.574-0.297,2.95,0.321,4.207  c0.567,1.153,1.848,2.058,2.799,2.411c2.074,0.767,4.141,0.136,6.029-0.787L75.3,30.215z"/></svg>