<svg xmlns="http://www.w3.org/2000/svg" xmlns:xlink="http://www.w3.org/1999/xlink" version="1.1" x="0px" y="0px" viewBox="0 0 900 1125" enable-background="new 0 0 900 900" xml:space="preserve"><path d="M366.261,653.75c-64.39,0-116.776,53.526-116.776,119.32s52.386,119.322,116.776,119.322  c64.391,0,116.777-53.528,116.777-119.322S430.652,653.75,366.261,653.75z M366.261,861.469c-47.703,0-86.513-39.655-86.513-88.398  c0-48.742,38.81-88.397,86.513-88.397s86.512,39.655,86.512,88.397C452.773,821.813,413.964,861.469,366.261,861.469z   M390.107,773.07c0,13.435-10.697,24.364-23.846,24.364c-13.148,0-23.844-10.93-23.844-24.364s10.696-24.363,23.844-24.363  C379.41,748.707,390.107,759.636,390.107,773.07z M342.13,757.69l-38.163-38.996l0.374-0.438c2.556-3.013,5.341-5.856,8.275-8.456  l0.43-0.382l38.164,38.996l-0.624,0.422c-3.208,2.172-5.915,4.936-8.042,8.218L342.13,757.69z M338.551,779.63h-53.966l-0.04-0.581  c-0.14-2.015-0.21-4.026-0.21-5.979c0-1.953,0.07-3.965,0.21-5.979l0.04-0.579h53.966l-0.15,0.749  c-0.378,1.898-0.57,3.854-0.57,5.81c0,1.95,0.192,3.907,0.571,5.811L338.551,779.63z M350.587,797.306l0.623,0.422l-38.164,38.994  l-0.43-0.379c-2.947-2.613-5.731-5.457-8.275-8.458l-0.373-0.439l38.163-38.993l0.413,0.636  C344.668,792.366,347.375,795.13,350.587,797.306z M371.949,801.536l0.733-0.15v55.14l-0.568,0.043  c-1.97,0.142-3.939,0.214-5.853,0.214c-1.913,0-3.882-0.072-5.85-0.214l-0.568-0.043v-55.141l0.733,0.151  C364.273,802.309,368.209,802.313,371.949,801.536z M390.394,788.452l38.162,38.993l-0.373,0.439  c-2.549,3.004-5.333,5.851-8.276,8.458l-0.43,0.379l-38.163-38.994l0.624-0.422c3.207-2.171,5.912-4.936,8.042-8.218  L390.394,788.452z M448.189,773.07c0,1.961-0.071,3.973-0.212,5.979l-0.04,0.58h-53.964l0.15-0.749  c0.377-1.895,0.568-3.851,0.568-5.811c0-1.954-0.191-3.908-0.569-5.81l-0.149-0.749h53.964l0.04,0.578  C448.118,769.096,448.189,771.108,448.189,773.07z M381.938,748.836l-0.624-0.422l38.163-38.996l0.43,0.382  c2.941,2.604,5.726,5.45,8.276,8.456l0.373,0.438l-38.163,38.996l-0.413-0.637C387.851,753.771,385.145,751.006,381.938,748.836z   M360.576,744.603l-0.733,0.151v-55.14l0.568-0.041c3.958-0.286,7.741-0.286,11.703,0l0.568,0.041v55.141l-0.733-0.152  C368.241,743.831,364.301,743.83,360.576,744.603z M883.033,812.908c-7.795-7.964-18.159-12.35-29.182-12.35  c-5.979,0-11.758,1.3-17.043,3.752l-16.892-19.562V558.787H195.29l-39.795-23.476c-0.189-13.268-10.812-24.003-23.842-24.003  c-13.148,0-23.845,10.932-23.845,24.366c0,13.434,10.697,24.362,23.845,24.362c4.072,0,8.082-1.065,11.617-3.082l36.517,21.541  v230.807H244.1l-0.22-0.794c-3.177-11.485-4.789-23.408-4.789-35.439c0-71.65,57.049-129.941,127.17-129.941  c70.123,0,127.171,58.291,127.171,129.941c0,12.031-1.611,23.954-4.788,35.439l-0.221,0.794h307.463l19.666,17.73  c-5.938,15.194-2.902,33.229,9.117,45.512c7.794,7.964,18.158,12.35,29.182,12.35c11.022,0,21.387-4.386,29.182-12.35  C899.122,856.104,899.122,829.351,883.033,812.908z M869.847,859.071c-4.273,4.366-9.954,6.771-15.995,6.771  c-6.043,0-11.724-2.405-15.996-6.771c-8.819-9.011-8.819-23.678,0-32.688c4.272-4.366,9.953-6.771,15.996-6.771  c6.041,0,11.722,2.404,15.995,6.771c4.272,4.366,6.627,10.171,6.627,16.344C876.474,848.9,874.119,854.704,869.847,859.071z   M532.674,543.616h267.99V308.85h-267.99V543.616z M783.228,434.557v93.411H547.025v-93.411H783.228z M783.228,324.494v93.428  H547.025v-93.428H783.228z M628.489,406.452h-69.94v-10.721h69.94V406.452z M628.489,389.579h-69.94v-10.712h69.94V389.579z   M628.489,372.728h-69.94v-10.721h69.94V372.728z M725.93,482.629c9.49,0,17.212,6.271,17.212,13.979s-7.722,13.979-17.212,13.979  c-9.492,0-17.213-6.271-17.213-13.979S716.438,482.629,725.93,482.629z M693.825,478.968c4.541,0,8.438,1.895,10.692,5.198  c2.106,3.087,2.597,7.04,1.381,11.128c-1.201,4.033-3.926,7.728-7.676,10.397c-3.431,2.444-7.427,3.79-11.252,3.79  c-4.539,0-8.438-1.894-10.692-5.198c-2.105-3.087-2.597-7.038-1.38-11.126c1.2-4.036,3.926-7.729,7.676-10.4  C686.006,480.313,690.002,478.968,693.825,478.968z M705.659,475.896c-4.313-6.324-1.486-15.979,6.298-21.522  c3.429-2.442,7.422-3.786,11.244-3.786c4.543,0,8.442,1.897,10.697,5.203c4.312,6.325,1.487,15.979-6.298,21.522  c-3.429,2.441-7.422,3.786-11.244,3.786C711.813,481.099,707.914,479.203,705.659,475.896z M669.75,473.592  c-4.313-6.324-1.486-15.98,6.301-21.523c3.432-2.443,7.425-3.789,11.249-3.789c4.542,0,8.441,1.896,10.696,5.203  c4.313,6.325,1.484,15.981-6.302,21.524c-3.432,2.443-7.427,3.788-11.249,3.788C675.902,478.795,672.005,476.899,669.75,473.592z   M662.091,525.505l-14.076-64.11l13.494-3.102l0.134,0.611l11.533,52.467h71.155l11.625-52.955l0.632,0.015l12.897,2.964  l-14.086,64.11H662.091z M633.954,522.022h-26.698v-51.339h4.826v-5.134h5.59v-14.589h5.865v14.589h5.59v5.134h4.827V522.022z   M597.278,522.022h-26.702v-51.339h4.826v-5.134h5.601v-14.589h5.854v14.589h5.591v5.134h4.83V522.022z M771.328,406.452H670.503  v-35.974h100.825V406.452z M765.144,363.849h-50.635v-9.931h50.635V363.849z M117.625,274.864H28.473  c-11.51,0-20.874-11.981-20.874-26.708v-52.55L333.815,25.629V7.561h29.59v18.068l326.216,169.977v52.55  c0,14.727-9.363,26.708-20.873,26.708h-89.15c-9.778,0-18.009-8.647-20.263-20.279c-2.255,11.632-10.485,20.279-20.263,20.279  H363.405l0.001,202.682h34.868v52.277h105.071v13.793H210.648v-13.793h86.208v-52.277h36.961V274.864H158.148  c-9.778,0-18.007-8.647-20.262-20.279C135.632,266.216,127.403,274.864,117.625,274.864z"/><text x="0" y="915" fill="#000000" font-size="5px" font-weight="bold" font-family="'Helvetica Neue', Helvetica, Arial-Unicode, Arial, Sans-serif">Created by alrigel</text><text x="0" y="920" fill="#000000" font-size="5px" font-weight="bold" font-family="'Helvetica Neue', Helvetica, Arial-Unicode, Arial, Sans-serif">from the Noun Project</text></svg>