<svg xmlns="http://www.w3.org/2000/svg" data-name="Layer 1" viewBox="0 0 64 80" x="0px" y="0px"><path d="M24.222,5.3a1.467,1.467,0,0,0-1.046.433L21.732,7.175a1.482,1.482,0,0,0,0,2.094L23.5,11.04a.5.5,0,0,1,.065.6,9.486,9.486,0,0,0-.619,1.492.5.5,0,0,1-.468.373h-2.5a1.482,1.482,0,0,0-1.48,1.48v2.04a1.482,1.482,0,0,0,1.48,1.48h2.5a.5.5,0,0,1,.468.373,9.4,9.4,0,0,0,.62,1.492.5.5,0,0,1-.067.6l-1.771,1.77a1.481,1.481,0,0,0,0,2.093l1.444,1.444a1.484,1.484,0,0,0,2.093,0L27.04,24.5a.458.458,0,0,1,.329-.133.578.578,0,0,1,.266.068,9.486,9.486,0,0,0,1.492.619.5.5,0,0,1,.373.468v2.5a1.482,1.482,0,0,0,1.48,1.48h2.04a1.482,1.482,0,0,0,1.48-1.48v-2.5a.5.5,0,0,1,.373-.468,9.4,9.4,0,0,0,1.492-.62.589.589,0,0,1,.266-.067.459.459,0,0,1,.33.134l1.77,1.771a1.484,1.484,0,0,0,2.093,0l1.444-1.444a1.481,1.481,0,0,0,0-2.093L40.5,20.96a.5.5,0,0,1-.065-.6,9.486,9.486,0,0,0,.619-1.492.5.5,0,0,1,.468-.373h2.5a1.482,1.482,0,0,0,1.48-1.48V14.98a1.482,1.482,0,0,0-1.48-1.48h-2.5a.5.5,0,0,1-.468-.373,9.4,9.4,0,0,0-.62-1.492.5.5,0,0,1,.067-.6l1.771-1.77a1.481,1.481,0,0,0,0-2.093L40.825,5.732a1.482,1.482,0,0,0-2.094,0L36.96,7.5a.458.458,0,0,1-.329.133.578.578,0,0,1-.266-.068,9.486,9.486,0,0,0-1.492-.619.5.5,0,0,1-.373-.468V3.98A1.482,1.482,0,0,0,33.02,2.5H30.98A1.482,1.482,0,0,0,29.5,3.98v2.5a.5.5,0,0,1-.373.468,9.4,9.4,0,0,0-1.492.62.589.589,0,0,1-.266.067.459.459,0,0,1-.33-.134l-1.77-1.771A1.475,1.475,0,0,0,24.222,5.3ZM32,11.5A4.5,4.5,0,1,1,27.5,16,4.505,4.505,0,0,1,32,11.5Z"/><path d="M6,29a1,1,0,0,0,.707-.293l3-3a1,1,0,0,0-1.414-1.414L7,25.586V4H26a1,1,0,0,0,0-2H6A1,1,0,0,0,5,3V25.586L3.707,24.293a1,1,0,0,0-1.414,1.414l3,3A1,1,0,0,0,6,29Z"/><path d="M61.707,24.293a1,1,0,0,0-1.414,0L59,25.586V3a1,1,0,0,0-1-1H38a1,1,0,0,0,0,2H57V25.586l-1.293-1.293a1,1,0,0,0-1.414,1.414l3,3a1,1,0,0,0,1.414,0l3-3A1,1,0,0,0,61.707,24.293Z"/><path d="M54,34H10a6.006,6.006,0,0,1-6,6V54a6.006,6.006,0,0,1,6,6H54a6.006,6.006,0,0,1,6-6V40A6.006,6.006,0,0,1,54,34ZM18,48H11a1,1,0,0,1,0-2h7a1,1,0,0,1,0,2ZM32,58A11,11,0,1,1,43,47,11.013,11.013,0,0,1,32,58ZM53,48H46a1,1,0,0,1,0-2h7a1,1,0,0,1,0,2Z"/><path d="M60,38V34H56A4,4,0,0,0,60,38Z"/><path d="M31,55V52.949A3.494,3.494,0,0,1,28,49.5v-.25a1,1,0,0,1,2,0v.25A1.5,1.5,0,0,0,31.5,51h1a1.5,1.5,0,0,0,0-3h-1a3.492,3.492,0,0,1-.5-6.949V39a1,1,0,0,1,1-1,9,9,0,0,0,0,18A1,1,0,0,1,31,55Z"/><path d="M32,38a1,1,0,0,1,1,1v2.051A3.494,3.494,0,0,1,36,44.5v.25a1,1,0,0,1-2,0V44.5A1.5,1.5,0,0,0,32.5,43h-1a1.5,1.5,0,0,0,0,3h1a3.492,3.492,0,0,1,.5,6.949V55a1,1,0,0,1-1,1,9,9,0,0,0,0-18Z"/><path d="M4,38a4,4,0,0,0,4-4H4Z"/><path d="M15.293,13.707a1,1,0,0,0,1.414,0l3-3a1,1,0,0,0,0-1.414l-3-3a1,1,0,0,0-1.414,1.414L16.586,9H13a1,1,0,0,0-1,1V32h2V11h2.586l-1.293,1.293A1,1,0,0,0,15.293,13.707Z"/><path d="M48.707,6.293a1,1,0,0,0-1.414,0l-3,3a1,1,0,0,0,0,1.414l3,3a1,1,0,0,0,1.414-1.414L47.414,11H50V32h2V10a1,1,0,0,0-1-1H47.414l1.293-1.293A1,1,0,0,0,48.707,6.293Z"/><path d="M4,56v4H8A4,4,0,0,0,4,56Z"/><path d="M56,60h4V56A4,4,0,0,0,56,60Z"/></svg>