<svg xmlns="http://www.w3.org/2000/svg" xmlns:xlink="http://www.w3.org/1999/xlink" version="1.1" x="0px" y="0px" viewBox="0 0 64 80" style="enable-background:new 0 0 64 64;" xml:space="preserve"><g><path d="M32,39c1.654,0,3,1.346,3,3h2c0-1.627-0.793-3.061-2-3.974V35h-2v2.101C32.677,37.035,32.342,37,32,37h-1v-2h-2v2h-2v5   c0,2.757,2.243,5,5,5c1.654,0,3,1.346,3,3v3h-3c-1.654,0-3-1.346-3-3h-2c0,1.627,0.793,3.061,2,3.974V57h2v-2.101   C31.323,54.965,31.658,55,32,55h1v2h2v-2h2v-5c0-2.757-2.243-5-5-5c-1.654,0-3-1.346-3-3v-3H32z"/><path d="M38.398,55.195l1.203,1.598c0.832-0.626,1.569-1.364,2.192-2.192l-1.6-1.201C39.685,54.077,39.081,54.682,38.398,55.195z"/><path d="M41.8,41.398l-1.6,1.199c1.16,1.549,1.8,3.467,1.8,5.4c0,1.251-0.253,2.462-0.752,3.601l1.832,0.803   c0.61-1.393,0.92-2.874,0.92-4.403C44,45.634,43.219,43.29,41.8,41.398z"/><path d="M61.226,19.267L36.217,2.295c-2.502-1.693-5.932-1.694-8.434,0.001L13,12.327V9h2V3H3v6h2v8.756l-2.225,1.51   C1.663,20.019,1,21.271,1,22.614v0.34c0,1.867,1.278,3.427,3,3.891V59h16.838c2.676,2.474,6.241,4,10.164,4h1.996   c3.923,0,7.488-1.526,10.164-4H60V26.846c1.722-0.465,3-2.025,3-3.891v-0.34C63,21.271,62.337,20.019,61.226,19.267z M5,5h8v2H5V5z    M7,9h4v4.685l-4,2.714V9z M32.998,61h-1.996C23.833,61,18,55.167,18,47.998c0-2.993,1.044-5.917,2.939-8.233L26.474,33h11.053   l5.535,6.766C44.956,42.081,46,45.005,46,47.998C46,55.167,40.167,61,32.998,61z M37.5,31H26.5L21.4,24.201   C21.143,23.855,21,23.43,21,23c0-1.103,0.897-2,2-2c0.485,0,0.808,0.478,1.376,1.49c0.596,1.06,1.41,2.51,3.119,2.51   c1.71,0,2.525-1.45,3.121-2.51c0.57-1.013,0.892-1.49,1.379-1.49s0.81,0.478,1.38,1.49c0.596,1.06,1.412,2.51,3.122,2.51   c1.711,0,2.527-1.45,3.123-2.51C40.19,21.478,40.513,21,41,21c1.103,0,2,0.897,2,2c0,0.43-0.143,0.855-0.399,1.2L37.5,31z    M44.971,57C46.863,54.489,48,51.378,48,47.998c0-3.454-1.204-6.827-3.391-9.499l-5.34-6.526l4.931-6.575   C44.716,24.71,45,23.858,45,23c0-2.206-1.794-4-4-4c-1.71,0-2.526,1.45-3.122,2.509C37.308,22.522,36.985,23,36.497,23   c-0.487,0-0.81-0.478-1.38-1.49C34.521,20.45,33.705,19,31.995,19s-2.525,1.45-3.121,2.51c-0.57,1.013-0.892,1.49-1.379,1.49   c-0.485,0-0.807-0.477-1.375-1.489C25.524,20.451,24.709,19,23,19c-2.206,0-4,1.794-4,4c0,0.858,0.284,1.71,0.8,2.399l4.93,6.574   l-5.339,6.525C17.204,41.171,16,44.544,16,47.998c0,3.38,1.137,6.491,3.029,9.002H6V26.875c0.481-0.117,0.941-0.311,1.354-0.598   L32,9.164l24.646,17.113c0.414,0.287,0.873,0.481,1.354,0.598V57H44.971z M61,22.954C61,24.082,60.082,25,58.954,25   c-0.42,0-0.823-0.126-1.167-0.365L32.391,7h-0.781L6.212,24.635C5.869,24.874,5.466,25,5.046,25C3.918,25,3,24.082,3,22.954v-0.34   c0-0.68,0.335-1.312,0.897-1.693l25.009-16.97c1.834-1.244,4.354-1.243,6.188-0.001l25.01,16.972   C60.665,21.302,61,21.935,61,22.614V22.954z"/><rect x="54" y="53" width="2" height="2"/><rect x="54" y="49" width="2" height="2"/><rect x="54" y="45" width="2" height="2"/><rect x="8" y="28" width="2" height="2"/><rect x="8" y="32" width="2" height="2"/><rect x="8" y="36" width="2" height="2"/></g></svg>