<svg xmlns="http://www.w3.org/2000/svg" xmlns:xlink="http://www.w3.org/1999/xlink" version="1.1" x="0px" y="0px" viewBox="0 0 64 80" style="enable-background:new 0 0 64 64;" xml:space="preserve"><style type="text/css">
	.st0{display:none;}
</style><path d="M38,17.8l-1.3-1.5C38.1,14.9,39,13,39,11c0-3.9-3.1-7-7-7s-7,3.1-7,7c0,2,0.9,3.9,2.4,5.2L26,17.8c-1.9-1.7-3-4.2-3-6.8  c0-5,4-9,9-9s9,4,9,9C41,13.6,39.9,16,38,17.8z"/><path d="M32,47c-3.9,0-7-3.1-7-7s3.1-7,7-7s7,3.1,7,7S35.9,47,32,47z M32,35c-2.8,0-5,2.2-5,5s2.2,5,5,5s5-2.2,5-5S34.8,35,32,35z"/><rect x="28" y="39" width="3" height="2"/><rect x="33" y="39" width="3" height="2"/><path d="M33,53h-2c-2.8,0-5-2.2-5-5h2c0,1.7,1.3,3,3,3h2c1.7,0,3-1.3,3-3h2C38,50.8,35.8,53,33,53z"/><path d="M27,32c-1.7,0-3-1.3-3-3s1.3-3,3-3s3,1.3,3,3S28.7,32,27,32z M27,28c-0.6,0-1,0.4-1,1s0.4,1,1,1s1-0.4,1-1S27.6,28,27,28z"/><path d="M37,32c-1.7,0-3-1.3-3-3s1.3-3,3-3s3,1.3,3,3S38.7,32,37,32z M37,28c-0.6,0-1,0.4-1,1s0.4,1,1,1s1-0.4,1-1S37.6,28,37,28z"/><path d="M35,9V8c0-1.1-0.9-2-2-2V5h-2v1c-1.1,0-2,0.9-2,2v2c0,1.1,0.9,2,2,2h2v2h-2v-1h-2v1c0,1.1,0.9,2,2,2v1h2v-1c1.1,0,2-0.9,2-2  v-2c0-1.1-0.9-2-2-2h-2V8h2v1H35z"/><path d="M55,16h-2.3c-3.9,0-7.6,1.5-10.4,4.3l-0.1,0.1C40,19.5,37.6,19,35.1,19h-6.2c-2.5,0-4.9,0.5-7.1,1.4l-0.1-0.1  c-2.8-2.8-6.4-4.3-10.4-4.3H9v2.3c0,3.6,1.3,7.1,3.8,9.8C11,31,10,34.3,10,37.9c0,5.4,2.4,10.6,6.4,14.2l1,0.9  c0.3,0.2,0.4,0.6,0.3,1l-1.1,4.3c-0.2,0.9,0,1.8,0.5,2.6c0.6,0.7,1.4,1.2,2.4,1.2h3.9c1.4,0,2.6-0.9,2.9-2.3l0.2-1  c0.1-0.4,0.5-0.8,1-0.8h8.9c0.5,0,0.9,0.3,1,0.8l0.2,1c0.3,1.3,1.5,2.3,2.9,2.3h3.9c0.9,0,1.8-0.4,2.4-1.2c0.6-0.7,0.8-1.7,0.5-2.6  L46.2,54c-0.1-0.4,0-0.7,0.3-1l1-0.9c4.1-3.6,6.4-8.8,6.4-14.2c0-3.6-1-6.9-2.8-9.8c2.4-2.7,3.8-6.1,3.8-9.8L55,16L55,16z M11,18.3  V18h0.3c3.2,0,6.2,1.2,8.5,3.3c-2.3,1.3-4.3,3-5.9,5.1C12,24.2,11,21.3,11,18.3z M46.2,50.6l-1,0.9c-0.9,0.7-1.2,1.9-0.9,3l1.1,4.3  c0.1,0.3,0,0.6-0.2,0.9S44.7,60,44.4,60h-3.9c-0.5,0-0.9-0.3-1-0.8l-0.2-1C39,56.9,37.8,56,36.4,56h-8.9c-1.4,0-2.6,0.9-2.9,2.3  l-0.2,1c-0.1,0.4-0.5,0.8-1,0.8h-3.9c-0.3,0-0.6-0.1-0.8-0.4s-0.3-0.6-0.2-0.9l1.1-4.3c0.3-1.1-0.1-2.2-0.9-3l-1-0.9  c-3.7-3.2-5.8-7.8-5.8-12.7C12,28.6,19.6,21,28.9,21h6.2C44.4,21,52,28.6,52,37.9C52,42.8,49.9,47.4,46.2,50.6z M53,18.3  c0,3-1,5.8-2.9,8.1c-1.6-2.1-3.6-3.8-5.9-5.1c2.3-2.1,5.3-3.3,8.5-3.3H53V18.3z"/></svg>