<svg xmlns="http://www.w3.org/2000/svg" version="1.1" viewBox="-5.0 -10.0 110.0 135.0">
 <path d="m9.375 75v-65.625h12.5c0 0.82812 0.32812 1.625 0.91406 2.2109 0.58594 0.58594 1.3828 0.91406 2.2109 0.91406h15.625c0.82812 0 1.625-0.32812 2.2109-0.91406 0.58594-0.58594 0.91406-1.3828 0.91406-2.2109h12.5v36.594c1.4883-0.875 3.0586-1.6016 4.6875-2.1719v-32.859c0-1.6562-0.65625-3.2461-1.832-4.418-1.1719-1.1758-2.7617-1.832-4.418-1.832h-43.75c-1.6562 0-3.2461 0.65625-4.418 1.832-1.1758 1.1719-1.832 2.7617-1.832 4.418v71.875c0 1.6562 0.65625 3.2461 1.832 4.418 1.1719 1.1758 2.7617 1.832 4.418 1.832h38.422c-3.543-3.9492-5.8906-8.8281-6.7656-14.062zm29.688 9.375h-12.5c-0.86328 0-1.5625-0.69922-1.5625-1.5625s0.69922-1.5625 1.5625-1.5625h12.5c0.86328 0 1.5625 0.69922 1.5625 1.5625s-0.69922 1.5625-1.5625 1.5625zm-26.562-21.875h30.797c-0.60156 2.0352-0.95703 4.1328-1.0625 6.25h-29.734zm23.438-20.312v17.188h-6.25v-17.188zm-14.062 0v17.188h-6.25v-17.188zm21.875 17.188v-17.188h6.25v8.6875c-2.375 2.4648-4.2695 5.3438-5.5938 8.5zm9.375-28.125-20.312-12.5-20.312 12.5v7.8125h40.625zm-20.312 1.5625c-1.2656 0-2.4023-0.76172-2.8867-1.9297-0.48438-1.168-0.21484-2.5117 0.67578-3.4062 0.89453-0.89062 2.2383-1.1602 3.4062-0.67578 1.168 0.48438 1.9297 1.6211 1.9297 2.8867 0 0.82812-0.32812 1.625-0.91406 2.2109-0.58594 0.58594-1.3828 0.91406-2.2109 0.91406zm37.5 12.5c-6.6289 0-12.988 2.6328-17.676 7.3242-4.6914 4.6875-7.3242 11.047-7.3242 17.676s2.6328 12.988 7.3242 17.676c4.6875 4.6914 11.047 7.3242 17.676 7.3242s12.988-2.6328 17.676-7.3242c4.6914-4.6875 7.3242-11.047 7.3242-17.676s-2.6328-12.988-7.3242-17.676c-4.6875-4.6914-11.047-7.3242-17.676-7.3242zm0 43.75c-4.9727 0-9.7422-1.9766-13.258-5.4922-3.5156-3.5156-5.4922-8.2852-5.4922-13.258s1.9766-9.7422 5.4922-13.258c3.5156-3.5156 8.2852-5.4922 13.258-5.4922s9.7422 1.9766 13.258 5.4922c3.5156 3.5156 5.4922 8.2852 5.4922 13.258s-1.9766 9.7422-5.4922 13.258c-3.5156 3.5156-8.2852 5.4922-13.258 5.4922zm-3.125-22.656c0 1.293 1.0508 2.3438 2.3438 2.3438h1.5625c2.8672-0.007812 5.2539 2.2031 5.4609 5.0664 0.20312 2.8594-1.8398 5.3906-4.6797 5.793v1.6406c0 0.86328-0.69922 1.5625-1.5625 1.5625s-1.5625-0.69922-1.5625-1.5625v-1.5625h-3.125c-0.86328 0-1.5625-0.69922-1.5625-1.5625s0.69922-1.5625 1.5625-1.5625h5.4688c1.293 0 2.3438-1.0508 2.3438-2.3438s-1.0508-2.3438-2.3438-2.3438h-1.5625c-2.8672 0.007812-5.25-2.207-5.4531-5.0664-0.20703-2.8555 1.8359-5.3867 4.6719-5.793v-1.6406c0-0.86328 0.69922-1.5625 1.5625-1.5625s1.5625 0.69922 1.5625 1.5625v1.5625h3.125c0.86328 0 1.5625 0.69922 1.5625 1.5625s-0.69922 1.5625-1.5625 1.5625h-5.4688c-1.293 0-2.3438 1.0508-2.3438 2.3438z"/>
</svg>