<svg class="svg-icon" style="width: 1em; height: 1em;vertical-align: middle;fill: currentColor;overflow: hidden;" viewBox="0 0 1024 1024" fill="white" stroke="white" version="1.1" xmlns="http://www.w3.org/2000/svg"><path  d="M800 160H224a192 192 0 0 0-192 192v384a192 192 0 0 0 192 192h576a192 192 0 0 0 192-192V352a192 192 0 0 0-192-192z m-256 577.6V768a32 32 0 0 1-64 0v-29.12a305.28 305.28 0 0 1-92.48-23.36 48.32 48.32 0 0 1-29.44-43.52 45.76 45.76 0 0 1 45.76-46.4 48.32 48.32 0 0 1 19.52 4.16 202.88 202.88 0 0 0 83.2 17.28c56.64 0 56.64-19.84 56.64-28.16 0-14.4-39.36-20.48-62.08-26.24-55.68-14.08-139.84-35.84-139.84-122.24A125.44 125.44 0 0 1 480 348.8V320a32 32 0 0 1 64 0v28.16a281.28 281.28 0 0 1 70.4 15.68 44.8 44.8 0 0 1 32 43.84 46.08 46.08 0 0 1-45.44 46.4 47.36 47.36 0 0 1-17.28-3.84 205.12 205.12 0 0 0-66.88-10.88c-26.88 0-58.24 7.36-58.24 27.84 0 13.76 19.2 20.48 64 32 54.4 13.12 136.64 32 136.64 122.88-0.32 59.84-46.08 104.64-115.2 115.52z" fill="white" /></svg>