<svg class="svg-icon" style="width: 1em; height: 1em;vertical-align: middle;fill: currentColor;overflow: hidden;" viewBox="0 0 1024 1024" version="1.1" xmlns="http://www.w3.org/2000/svg"><path d="M613.755733 236.343467l-18.103466-18.103467a8.533333 8.533333 0 0 0-12.066134 0L512 289.8304l-71.586133-71.586133a8.533333 8.533333 0 0 0-12.066134 0l-18.103466 18.103466a8.533333 8.533333 0 0 0 0 12.066134l45.405866 45.405866H422.4a8.533333 8.533333 0 0 0-8.533333 8.533334v25.6a8.533333 8.533333 0 0 0 8.533333 8.533333h68.266667v38.011733H422.4a8.533333 8.533333 0 0 0-8.533333 8.533334v25.6a8.533333 8.533333 0 0 0 8.533333 8.533333h68.266667V482.133333a8.533333 8.533333 0 0 0 8.533333 8.533334h25.6a8.533333 8.533333 0 0 0 8.533333-8.533334V417.1648h68.266667a8.533333 8.533333 0 0 0 8.533333-8.533333v-25.6a8.533333 8.533333 0 0 0-8.533333-8.533334h-68.266667v-38.011733h68.266667a8.533333 8.533333 0 0 0 8.533333-8.533333v-25.6a8.533333 8.533333 0 0 0-8.533333-8.533334h-33.250133l45.405866-45.405866a8.533333 8.533333 0 0 0 0-12.0704zM618.666667 635.733333v-145.066666a8.533333 8.533333 0 0 1 8.533333-8.533334h25.6a8.533333 8.533333 0 0 1 8.533333 8.533334v145.066666a8.533333 8.533333 0 0 1-8.533333 8.533334h-25.6a8.533333 8.533333 0 0 1-8.533333-8.533334zM394.666667 921.6v-128a8.533333 8.533333 0 0 1 8.533333-8.533333h25.6a8.533333 8.533333 0 0 1 8.533333 8.533333v128a8.533333 8.533333 0 0 1-8.533333 8.533333h-25.6a8.533333 8.533333 0 0 1-8.533333-8.533333z" fill="#666666" /><path d="M403.2 887.466667H695.466667a8.533333 8.533333 0 0 1 8.533333 8.533333v25.6a8.533333 8.533333 0 0 1-8.533333 8.533333H403.2a8.533333 8.533333 0 0 1-8.533333-8.533333v-25.6a8.533333 8.533333 0 0 1 8.533333-8.533333z" fill="#666666" /><path d="M665.6 921.6v-136.533333a8.533333 8.533333 0 0 1 8.533333-8.533334h25.6a8.533333 8.533333 0 0 1 8.533334 8.533334v136.533333a8.533333 8.533333 0 0 1-8.533334 8.533333h-25.6a8.533333 8.533333 0 0 1-8.533333-8.533333zM814.933333 335.364267a215.150933 215.150933 0 0 0-12.8-0.430934c-101.3248 0-183.466667 68.770133-183.466666 153.6 0 5.038933 0.311467 10.018133 0.878933 14.933334h38.830933c-0.836267-4.885333 2.961067-9.864533 2.961067-14.933334 0-61.265067 63.04-110.933333 140.8-110.933333 4.322133 0 8.580267 0.213333 12.8 0.520533V335.364267z" fill="#666666" /><path d="M806.4 341.333333h-25.6a8.533333 8.533333 0 0 0-8.533333 8.533334v309.333333c0-5.0688 3.797333-10.048 2.961066-14.933333h38.830934c0.567467 4.9152 0.878933 9.8944 0.878933 14.933333V349.866667A8.533333 8.533333 0 0 0 806.4 341.333333zM631.466667 770.133333c-1.3696 0-2.730667-0.021333-4.0832-0.059733a8.482133 8.482133 0 0 0-8.7168 8.4992v25.6128c0 4.650667 3.716267 8.4352 8.366933 8.554667 1.472 0.0384 2.948267 0.059733 4.433067 0.059733 56.571733 0 107.144533-21.448533 140.8-55.150933V659.2c0 61.265067-63.04 110.933333-140.8 110.933333z" fill="#666666" /><path d="M775.227733 644.266667c0.836267 4.885333-2.961067 9.864533-2.961066 14.933333v98.449067c26.624-26.658133 42.666667-60.983467 42.666666-98.449067 0-5.038933-0.311467-10.018133-0.878933-14.933333h-38.826667zM437.333333 789.115733c0-3.473067-2.8544-6.186667-6.3232-6.1824H430.933333c-77.76 0-140.8-49.668267-140.8-110.933333V618.666667a8.533333 8.533333 0 0 0-8.533333-8.533334h-25.6a8.533333 8.533333 0 0 0-8.533333 8.533334v53.333333c0 34.2784 13.422933 65.928533 36.096 91.485867C316.996267 801.173333 370.551467 825.6 430.933333 825.6c2.146133 0 4.279467-0.042667 6.4-0.119467v-36.3648zM930.133333 89.6H93.866667a8.533333 8.533333 0 0 0-8.533334 8.533333v494.933334a8.533333 8.533333 0 0 0 8.533334 8.533333h567.466666v-42.666667H136.533333a8.533333 8.533333 0 0 1-8.533333-8.533333V140.8a8.533333 8.533333 0 0 1 8.533333-8.533333h750.933334a8.533333 8.533333 0 0 1 8.533333 8.533333v409.6a8.533333 8.533333 0 0 1-8.533333 8.533333h-115.2v42.666667h157.866666a8.533333 8.533333 0 0 0 8.533334-8.533333V98.133333a8.533333 8.533333 0 0 0-8.533334-8.533333z" fill="#666666" /></svg>