<svg xmlns="http://www.w3.org/2000/svg" xmlns:xlink="http://www.w3.org/1999/xlink" xmlns:xodm="http://www.corel.com/coreldraw/odm/2003" xml:space="preserve" version="1.1" style="shape-rendering:geometricPrecision;text-rendering:geometricPrecision;image-rendering:optimizeQuality;" viewBox="0 0 846.66 1058.325" x="0px" y="0px" fill-rule="evenodd" clip-rule="evenodd"><defs><style type="text/css">
   
   
   
  </style></defs><g><path fill="white" class="fil0"  d="M170.98 9.85l32.27 0 389.65 0c25.57,0 48.83,10.48 65.7,27.33l0.1 0.1c14.57,14.59 24.38,33.97 26.76,55.47l57.96 0c14.02,0 25.4,11.38 25.4,25.4l0 105.05 0 105.05 0 105.05c0,14.02 -11.38,25.4 -25.4,25.4l-57.39 0 0 284.98c0,25.57 -10.48,48.84 -27.33,65.71l-0.1 0.1c-16.87,16.85 -40.13,27.33 -65.7,27.33l-389.65 0 -32.27 0c-25.58,0 -48.84,-10.48 -65.71,-27.33l-0.1 -0.1c-16.85,-16.87 -27.33,-40.13 -27.33,-65.71l0 -640.69c0,-25.56 10.48,-48.84 27.33,-65.71l0.1 -0.1c16.87,-16.85 40.13,-27.33 65.71,-27.33zm129.52 589.56c-14.02,0 -25.4,-11.38 -25.4,-25.4 0,-14.02 11.38,-25.4 25.4,-25.4l257.84 0c14.02,0 25.4,11.38 25.4,25.4 0,14.02 -11.38,25.4 -25.4,25.4l-257.84 0zm0 26.37l257.84 0c14.02,0 25.4,11.38 25.4,25.4l0 79.41c0,14.02 -11.38,25.4 -25.4,25.4l-257.84 0c-14.02,0 -25.4,-11.38 -25.4,-25.4l0 -79.41c0,-14.02 11.38,-25.4 25.4,-25.4zm232.44 50.8l-207.04 0 0 28.61 207.04 0 0 -28.61zm-103.52 -579.39c49.3,0 93.94,19.99 126.24,52.29 32.3,32.3 52.29,76.94 52.29,126.24 0,49.3 -19.99,93.94 -52.29,126.24 -32.3,32.3 -76.94,52.29 -126.24,52.29 -49.3,0 -93.94,-19.99 -126.24,-52.29 -32.3,-32.3 -52.29,-76.94 -52.29,-126.24 0,-49.3 19.99,-93.94 52.29,-126.24 32.3,-32.3 76.94,-52.29 126.24,-52.29zm90.32 88.21c-23.1,-23.1 -55.05,-37.41 -90.32,-37.41 -35.27,0 -67.22,14.31 -90.32,37.41 -23.1,23.1 -37.41,55.05 -37.41,90.32 0,25.85 7.69,49.91 20.89,70.02 5.82,-12.15 13.66,-23.17 23.07,-32.61l0.11 -0.11c5.66,-5.65 11.88,-10.74 18.57,-15.16 -11.56,-14.34 -18.5,-32.56 -18.5,-52.36 0,-23.08 9.36,-43.99 24.48,-59.11 15.12,-15.12 36.03,-24.48 59.11,-24.48 23.08,0 43.98,9.36 59.1,24.48 15.12,15.12 24.48,36.03 24.48,59.11 0,19.78 -6.9,37.97 -18.45,52.3 6.7,4.42 12.92,9.51 18.57,15.16 9.46,9.46 17.33,20.51 23.17,32.73 13.18,-20.1 20.86,-44.14 20.86,-69.97 0,-35.27 -14.31,-67.22 -37.41,-90.32zm-156.87 199.36c19.38,11.85 42.17,18.69 66.55,18.69 24.37,0 47.16,-6.83 66.53,-18.68 -2.47,-13.89 -9.18,-26.32 -18.75,-35.89 -12.21,-12.21 -29.12,-19.79 -47.78,-19.79l-0.01 0c-18.72,0 -35.63,7.54 -47.78,19.7l-0.1 0.1c-9.52,9.51 -16.2,21.95 -18.66,35.87zm89.73 -162.45c-5.92,-5.92 -14.14,-9.6 -23.18,-9.6 -9.04,0 -17.27,3.68 -23.19,9.6 -5.92,5.92 -9.6,14.15 -9.6,23.19 0,8.59 3.27,16.41 8.61,22.25l0.99 0.94c5.83,5.83 13.89,9.49 22.77,9.6l0.41 0 0.01 0c9.04,0 17.26,-3.68 23.18,-9.6 5.94,-5.88 9.6,-14.11 9.6,-23.19 0,-9.04 -3.68,-17.27 -9.6,-23.19zm-223.95 -161.66l0 725.37 364.25 0c11.65,0 22.25,-4.76 29.93,-12.4 7.64,-7.68 12.4,-18.29 12.4,-29.94l0 -310.38 0 -105.05 0 -105.05 0 -105.05 0 -15.16c0,-11.65 -4.76,-22.26 -12.4,-29.94 -7.68,-7.64 -18.28,-12.4 -29.93,-12.4l-364.25 0zm-50.8 725.37l0 -725.37 -6.87 0c-11.65,0 -22.26,4.76 -29.94,12.4 -7.64,7.68 -12.4,18.29 -12.4,29.94l0 640.69c0,11.65 4.76,22.26 12.4,29.94 7.68,7.64 18.29,12.4 29.94,12.4l6.87 0zm540.17 -432.37l-31.99 0 0 54.25 31.99 0 0 -54.25zm0 -105.05l-31.99 0 0 54.25 31.99 0 0 -54.25zm-31.99 -105.05l0 54.25 31.99 0 0 -54.25 -31.99 0z"/></g></svg>