<svg xmlns="http://www.w3.org/2000/svg" xmlns:xlink="http://www.w3.org/1999/xlink" viewBox="0 0 100 125" version="1.1" x="0px" y="0px"><title>Targeting group Copy 6</title><desc>Created with Sketch.</desc><g stroke="none" stroke-width="1" fill="none" fill-rule="evenodd"><path d="M61.6631598,71.9411042 C63.3643254,71.9411042 65.8670696,70.4031357 68.8928326,67.5185934 C70.4160364,66.0664817 72.032316,64.3184723 73.7936702,62.2511995 C75.5809151,60.1535391 80.4391847,54.0406475 80.9096875,53.4875345 C82.1533596,52.0255005 81.8536972,50.2930908 80.3904319,49.1703265 C78.852486,47.9902598 76.8552498,48.1310917 75.3344781,49.8908505 C72.4801621,53.1937181 69.0184694,56.9546076 64.9484287,61.1750613 C63.6137447,62.5590701 61.4887615,60.6655498 62.710372,59.180784 C63.2185836,58.5630951 63.5,57.7926711 63.5,56.9750143 C63.5,55.0731363 61.970738,53.524755 60.0919893,53.5 L42.563008,53.5 C40.0801162,53.5 37.1770605,54.8815808 35.2194367,56.9128051 C33.0020841,59.2135232 31.2286155,61.1907136 29.9019716,62.8390097 L35.4329778,71.9411042 L61.6631598,71.9411042 Z M73.0646345,47.9292669 C75.6524326,44.9348001 79.4495907,44.6670495 82.2166766,46.7902362 C84.9755602,48.9071292 85.6124577,52.5891634 83.1947779,55.4313354 C82.767734,55.9333591 77.9084733,62.0474976 76.0772124,64.196819 C74.2539127,66.3367962 72.57067,68.1572263 70.9628754,69.6899807 C67.4131435,73.0740369 64.374855,74.9411042 61.6631598,74.9411042 C50.5004159,74.9411042 42.128358,74.9411042 36.5469861,74.9411042 C34.68486,74.9411042 27.8673412,60.5796498 28.3101705,60.0522466 C29.5888383,58.529372 31.1713375,56.7899687 33.0593424,54.8309808 C35.554172,52.2423533 39.2153035,50.5 42.563008,50.5 L55.3248512,50.5 C57.4745633,50.5 57.4745633,50.5 60.1116492,50.5001288 C63.1078124,50.5394017 65.6092854,52.6126175 66.3065032,55.3978823 C68.8539014,52.6845754 71.1067207,50.194864 73.0646345,47.9292669 Z" fill="#000000" fill-rule="nonzero"/><path d="M24.514134,79.253675 L31.514134,79.253675 L31.514134,60.253675 L24.514134,60.253675 L24.514134,79.253675 Z M23.514134,57.253675 L32.514134,57.253675 C33.6187035,57.253675 34.514134,58.1491055 34.514134,59.253675 L34.514134,80.253675 C34.514134,81.3582445 33.6187035,82.253675 32.514134,82.253675 L23.514134,82.253675 C22.4095645,82.253675 21.514134,81.3582445 21.514134,80.253675 L21.514134,59.253675 C21.514134,58.1491055 22.4095645,57.253675 23.514134,57.253675 Z" fill="#000000" fill-rule="nonzero" transform="translate(28.014134, 69.753675) rotate(-30.000000) translate(-28.014134, -69.753675) "/><path d="M49.5432928,53.5 C48.7148657,53.5 48.0432928,52.8284271 48.0432928,52 C48.0432928,51.1715729 48.7148657,50.5 49.5432928,50.5 L60,50.5 C63.5898509,50.5 66.5,53.4101491 66.5,57 C66.5,60.5898509 63.5898509,63.5 60,63.5 L50,63.5 C49.1715729,63.5 48.5,62.8284271 48.5,62 C48.5,61.1715729 49.1715729,60.5 50,60.5 L60,60.5 C61.9329966,60.5 63.5,58.9329966 63.5,57 C63.5,55.0670034 61.9329966,53.5 60,53.5 L49.5432928,53.5 Z" fill="#000000" fill-rule="nonzero"/><path d="M55.7941541,31.7318872 C55.7941541,27.2978149 58.4641238,23.1989276 63.627133,19.4418152 L64.5097281,18.7995524 L65.3923231,19.4418152 C70.5553323,23.1989276 73.225302,27.2978149 73.225302,31.7318872 C73.225302,37.9905362 68.7086825,44.1629481 64.3761727,43.7756568 C60.0603444,43.3898567 55.7941541,37.7645391 55.7941541,31.7318872 Z M58.7941541,31.7318872 C58.7941541,36.316734 62.0060057,40.5518206 64.6432834,40.7875718 C66.8946939,40.9888297 70.225302,36.4372209 70.225302,31.7318872 C70.225302,28.6255263 68.3677902,25.5613509 64.5097281,22.5340336 C60.651666,25.5613509 58.7941541,28.6255263 58.7941541,31.7318872 Z" fill="#000000" fill-rule="nonzero" transform="translate(64.509728, 31.296265) rotate(60.000000) translate(-64.509728, -31.296265) "/><path d="M32.6459574,39.1978375 C32.6459574,35.7375748 34.6310997,32.5499224 38.4393853,29.651241 L39.3478809,28.9597384 L40.2563766,29.651241 C44.0646622,32.5499224 46.0498045,35.7375748 46.0498045,39.1978375 C46.0498045,44.1034993 42.6466354,48.9680709 39.208238,48.6465761 C35.8500006,48.3325763 32.6459574,43.9135676 32.6459574,39.1978375 Z M35.6459574,39.1978375 C35.6459574,42.4884648 37.8330587,45.5049097 39.4875239,45.6596044 C39.9282495,45.7008129 40.7807225,45.1340145 41.5457713,44.0404353 C42.4766154,42.7098644 43.0498045,40.9520409 43.0498045,39.1978375 C43.0498045,37.0453392 41.8548932,34.9063784 39.3478809,32.7691198 C36.8408687,34.9063784 35.6459574,37.0453392 35.6459574,39.1978375 Z" fill="#000000" fill-rule="nonzero" transform="translate(39.347881, 38.810709) scale(-1, 1) rotate(80.000000) translate(-39.347881, -38.810709) "/><path d="M53.5,51 C53.5,51.8284271 52.8284271,52.5 52,52.5 C51.1715729,52.5 50.5,51.8284271 50.5,51 C50.5,47.1556251 50.5,47.1556251 50.5010736,41.9003769 C50.5927626,39.4782552 51.397514,37.6401183 52.9756401,36.5331401 C54.4600199,35.4919203 57.9448354,33.3995807 64.2410345,29.7061795 C64.9555918,29.2870145 65.8746554,29.5264772 66.2938205,30.2410345 C66.7129855,30.9555918 66.4735228,31.8746554 65.7589655,32.2938205 C59.5845126,35.9158043 56.0807718,38.019507 54.6984181,38.9891604 C53.9779196,39.4945548 53.5579849,40.45373 53.5,41.9571185 L53.5,51 Z" fill="#000000" fill-rule="nonzero"/><path d="M40.5,49 C40.5,49.8284271 39.8284271,50.5 39,50.5 C38.1715729,50.5 37.5,49.8284271 37.5,49 L37.5149367,45.8891619 C37.7665527,44.1195453 38.5190795,42.5996316 39.7554838,41.3781177 C40.9415198,40.2063658 42.037722,39.5387517 43.1494312,39.4686041 L51.6683256,37.5371288 C52.476247,37.3539501 53.2796924,37.8604041 53.4628712,38.6683256 C53.6460499,39.476247 53.1395959,40.2796924 52.3316744,40.4628712 L43.512423,42.4624459 C43.2777919,42.4911194 43.0907096,42.5462662 42.9511761,42.6278864 C42.6480606,42.805194 42.2814387,43.0997541 41.8639141,43.5122503 C41.1217766,44.24545 40.6723288,45.1306477 40.5,46.2123595 L40.5,49 Z" fill="#000000" fill-rule="nonzero" transform="translate(45.500164, 43.999836) scale(-1, 1) translate(-45.500164, -43.999836) "/></g><text x="0" y="115" fill="#000000" font-size="5px" font-weight="bold" font-family="'Helvetica Neue', Helvetica, Arial-Unicode, Arial, Sans-serif">Created by Daniel Falk</text><text x="0" y="120" fill="#000000" font-size="5px" font-weight="bold" font-family="'Helvetica Neue', Helvetica, Arial-Unicode, Arial, Sans-serif">from the Noun Project</text></svg>