<svg xmlns="http://www.w3.org/2000/svg" xmlns:xlink="http://www.w3.org/1999/xlink" version="1.1" x="0px" y="0px" viewBox="0 0 32.029 23.7325" style="enable-background:new 0 0 32.029 18.986;" xml:space="preserve"><g><g><path d="M26.672,9.498c0.139-0.404,0.365-0.404,0.504,0l0.842,2.471c0.139,0.405,0.603,0.742,1.031,0.749l2.608,0.037    c0.43,0.007,0.499,0.223,0.155,0.479l-2.088,1.564c-0.345,0.258-0.521,0.804-0.395,1.213l0.771,2.493    c0.127,0.409-0.057,0.544-0.406,0.296l-2.134-1.503c-0.352-0.247-0.925-0.247-1.275,0l-2.134,1.503    c-0.35,0.248-0.532,0.113-0.406-0.296l0.771-2.493c0.127-0.409-0.051-0.955-0.394-1.213l-2.09-1.564    c-0.343-0.257-0.272-0.473,0.156-0.479l2.609-0.037c0.429-0.007,0.892-0.344,1.03-0.749L26.672,9.498z"/><path d="M4.857,9.559c0.14-0.406,0.365-0.406,0.504,0l0.844,2.47c0.139,0.406,0.602,0.744,1.03,0.75l2.608,0.037    c0.43,0.007,0.499,0.222,0.157,0.479l-2.09,1.563c-0.344,0.258-0.521,0.803-0.395,1.213l0.771,2.493    c0.126,0.41-0.059,0.543-0.407,0.296l-2.133-1.503c-0.353-0.248-0.926-0.248-1.275,0L2.338,18.86    c-0.352,0.247-0.534,0.114-0.407-0.296l0.771-2.493c0.126-0.41-0.052-0.955-0.396-1.213l-2.088-1.563    c-0.344-0.258-0.272-0.473,0.155-0.479l2.608-0.037c0.431-0.006,0.894-0.344,1.032-0.75L4.857,9.559z"/><path d="M15.779,9.559c0.14-0.406,0.364-0.406,0.503,0l0.844,2.47c0.139,0.406,0.603,0.744,1.03,0.75l2.609,0.037    c0.429,0.007,0.499,0.222,0.154,0.479l-2.088,1.563c-0.344,0.258-0.521,0.803-0.395,1.213l0.771,2.493    c0.127,0.41-0.058,0.543-0.407,0.296l-2.134-1.503c-0.352-0.248-0.924-0.248-1.274,0l-2.134,1.503    c-0.351,0.247-0.534,0.114-0.407-0.296l0.771-2.493c0.128-0.41-0.052-0.955-0.395-1.213l-2.089-1.563    c-0.344-0.258-0.272-0.473,0.154-0.479l2.609-0.037c0.43-0.006,0.894-0.344,1.032-0.75L15.779,9.559z"/><g><path d="M13.557,9.73c-0.173,0-0.349-0.064-0.538-0.199l-1.927-1.356c-0.146-0.102-0.463-0.103-0.609,0L8.557,9.531     C8.155,9.816,7.747,9.775,7.536,9.49C7.396,9.301,7.373,9.05,7.468,8.741l0.695-2.252c0.056-0.18-0.037-0.468-0.188-0.58     L6.088,4.496C5.651,4.168,5.678,3.84,5.732,3.673C5.786,3.506,5.96,3.225,6.506,3.218l2.354-0.034     c0.188-0.002,0.432-0.181,0.492-0.358l0.762-2.229C10.291,0.077,10.611,0,10.788,0c0.175,0,0.497,0.077,0.673,0.596l0.761,2.229     c0.063,0.179,0.305,0.356,0.492,0.358l2.355,0.034c0.567,0.009,0.729,0.321,0.773,0.456c0.054,0.167,0.08,0.496-0.357,0.822     L13.6,5.91c-0.15,0.111-0.244,0.4-0.188,0.58l0.695,2.251c0.098,0.307,0.073,0.558-0.065,0.749     C13.928,9.642,13.752,9.73,13.557,9.73z M7.198,4.148L8.54,5.156c0.473,0.356,0.696,1.049,0.521,1.611L8.558,8.4l1.381-0.995     c0.467-0.328,1.232-0.328,1.695,0l1.368,0.963l-0.491-1.601c-0.174-0.565,0.052-1.258,0.523-1.611l1.341-1.004L12.7,4.125     c-0.592-0.009-1.181-0.438-1.371-0.997l-0.54-1.584L10.244,3.13c-0.191,0.559-0.78,0.986-1.372,0.995L7.198,4.148z"/></g><g><path d="M24.638,9.73c-0.174,0-0.35-0.064-0.539-0.199l-1.927-1.356c-0.146-0.102-0.462-0.103-0.609,0l-1.926,1.356     c-0.402,0.285-0.81,0.244-1.021-0.041c-0.141-0.189-0.163-0.44-0.068-0.749l0.696-2.252c0.055-0.18-0.038-0.468-0.188-0.58     l-1.887-1.413c-0.438-0.328-0.41-0.656-0.356-0.823c0.056-0.167,0.229-0.447,0.774-0.455l2.354-0.034     c0.188-0.002,0.432-0.181,0.492-0.358l0.762-2.229C21.372,0.077,21.693,0,21.869,0c0.176,0,0.497,0.077,0.674,0.596l0.761,2.229     c0.061,0.179,0.304,0.356,0.491,0.358l2.355,0.034c0.567,0.009,0.729,0.321,0.773,0.456c0.054,0.167,0.08,0.496-0.357,0.822     L24.682,5.91c-0.151,0.111-0.245,0.4-0.188,0.58l0.695,2.251c0.097,0.307,0.072,0.558-0.066,0.749     C25.008,9.642,24.832,9.73,24.638,9.73z M18.28,4.148l1.342,1.008c0.473,0.356,0.695,1.049,0.521,1.611L19.638,8.4l1.382-0.995     c0.466-0.328,1.231-0.328,1.694,0l1.368,0.963l-0.49-1.601c-0.175-0.565,0.051-1.258,0.522-1.611l1.341-1.004l-1.675-0.027     c-0.592-0.009-1.181-0.438-1.371-0.997l-0.54-1.584L21.323,3.13c-0.189,0.559-0.778,0.986-1.369,0.995L18.28,4.148z"/></g></g></g><text x="0" y="33.986000000000004" fill="#000000" font-size="5px" font-weight="bold" font-family="'Helvetica Neue', Helvetica, Arial-Unicode, Arial, Sans-serif">Created by Baboon designs</text><text x="0" y="38.986000000000004" fill="#000000" font-size="5px" font-weight="bold" font-family="'Helvetica Neue', Helvetica, Arial-Unicode, Arial, Sans-serif">from the Noun Project</text></svg>