<svg xmlns="http://www.w3.org/2000/svg" version="1.1" viewBox="-5.0 -10.0 110.0 135.0">
 <g>
  <path fill="white" d="m29 85.211h42c8.2695 0 15-6.7305 15-15v-25.762c0-4.9609-2.4492-9.5898-6.5391-12.391l-21-14.34c-5.1406-3.5117-11.781-3.5117-16.922 0l-21 14.34c-4.1016 2.8008-6.5391 7.4297-6.5391 12.391v25.77c0 8.2617 6.7305 14.992 15 14.992zm-7-40.762c0-2.3086 1.1406-4.4805 3.0508-5.7812l21-14.34c2.3984-1.6406 5.5-1.6406 7.8906 0l21 14.34c1.9102 1.3008 3.0508 3.4688 3.0508 5.7812v25.77c0 3.8594-3.1406 7-7 7h-41.992c-3.8594 0-7-3.1406-7-7z"/>
  <path fill="white" d="m39 72c2.2109 0 4-1.7891 4-4v-3c0-3.8594 3.1406-7 7-7s7 3.1406 7 7v3c0 2.2109 1.7891 4 4 4s4-1.7891 4-4v-3c0-8.2695-6.7305-15-15-15s-15 6.7305-15 15v3c0 2.2109 1.7891 4 4 4z"/>
 </g></svg>