<svg xmlns="http://www.w3.org/2000/svg" version="1.1" viewBox="-5.0 -10.0 110.0 135.0">
 <g>
  <path fill="white" d="m88.062 31.25c-0.65234-0.007812-1.2266-0.42188-1.4336-1.0391-0.3125-0.86719-0.64844-1.6953-1.0547-2.582h-0.003907c-0.28906-0.57422-0.16406-1.2695 0.30859-1.707 2.1836-2.2383 2.1797-5.8086-0.011718-8.0391l-3.7695-3.7734c-2.2656-2.1289-5.7969-2.1133-8.043 0.035156-0.46484 0.46094-1.1719 0.5625-1.75 0.25391-0.82422-0.37891-1.6484-0.71484-2.5117-1.0234-0.61719-0.20703-1.0352-0.78516-1.043-1.4375-0.003906-3.1406-2.5469-5.6836-5.6875-5.6875h-5.293c-3.1367 0.003906-5.6836 2.5469-5.6875 5.6875-0.003906 0.65234-0.42188 1.2266-1.0391 1.4336-0.86719 0.3125-1.6953 0.64453-2.582 1.0547l0.003906 0.003907c-0.57812 0.28125-1.2695 0.15625-1.7109-0.30859-0.30469-0.29688-0.64062-0.55469-1.0039-0.77734l-1.6289-1.6289c-1.7773-1.6914-4.5703-1.6914-6.3438 0-0.09375 0.089844-0.23047 0.11328-0.34766 0.066406-0.57422-0.28125-1.1602-0.52734-1.7617-0.73828-0.14453-0.039063-0.24609-0.16406-0.25-0.3125-0.003907-2.4727-2.0078-4.4766-4.4805-4.4805h-3.543c-2.4727 0.003906-4.4766 2.0078-4.4766 4.4805-0.007813 0.14453-0.10547 0.26953-0.24609 0.30859-0.59766 0.21484-1.1914 0.45313-1.8984 0.77344h-0.003907c-0.078125-0.003906-0.15625-0.039062-0.21094-0.097656-1.7773-1.6953-4.5703-1.6953-6.3438 0l-2.5 2.5c-0.84375 0.83594-1.3203 1.9727-1.3203 3.1602-0.011719 1.1953 0.46484 2.3477 1.3203 3.1836 0.089844 0.09375 0.11328 0.22656 0.066406 0.34766-0.28125 0.57031-0.52734 1.1562-0.73828 1.7578-0.039063 0.14453-0.16797 0.24609-0.3125 0.25391-2.4727 0-4.4766 2.0039-4.4805 4.4766v3.543c0.003906 2.4727 2.0078 4.4766 4.4805 4.4805 0.14453 0.003906 0.26953 0.10547 0.30859 0.24609 0.21484 0.59766 0.45313 1.1914 0.77344 1.8984-0.003906 0.082031-0.039062 0.16016-0.097656 0.21484-1.75 1.75-1.75 4.5898 0 6.3438l2.5 2.5v-0.003906c1.7773 1.6914 4.5664 1.6914 6.3438 0 0.09375-0.085938 0.22656-0.11328 0.34766-0.066407 0.57031 0.28125 1.1602 0.52734 1.7578 0.74219 0.14453 0.035156 0.24609 0.16406 0.25391 0.3125 0 2.4727 2.0039 4.4766 4.4766 4.4766h3.543c1.5 0 2.8984-0.75391 3.7266-2.0039 0.19141 0.48047 0.36328 0.95703 0.59766 1.457v0.003906c0.28906 0.57422 0.16406 1.2695-0.30859 1.707-2.1836 2.2344-2.1797 5.8086 0.011719 8.0391l0.57031 0.57031h-0.89062c-1.6992-0.003907-3.3711 0.41406-4.8672 1.2188l-7.5117 3.9688-0.64062-0.58203h-0.003906c-1.6445-1.4961-4.1758-1.4375-5.75 0.13672l-5.375 5.3789c-0.80859 0.80469-1.25 1.9102-1.2188 3.0547 0.03125 1.1406 0.52734 2.2227 1.3789 2.9844l18.055 16.25c1.3555 1.2344 3.3633 1.4297 4.9336 0.47656l6.6914-4.0156v0.003907c1.1328-0.67578 1.8789-1.8516 2-3.1641v-0.027344l20.246 0.003907c3.4336-0.003907 6.7578-1.2188 9.3828-3.4297l17.348-14.598c1.8516-1.5352 2.8945-3.8359 2.832-6.2422-0.085937-3.0703-1.9219-5.8203-4.7266-7.0703-0.21484-1.125-0.75781-2.1641-1.5625-2.9844-0.46094-0.46094-0.5625-1.1719-0.25391-1.7461 0.37891-0.82422 0.71484-1.6484 1.0234-2.5117 0.20703-0.61719 0.78516-1.0391 1.4375-1.043 3.1406-0.003907 5.6836-2.5508 5.6875-5.6875v-5.293c-0.003906-3.1406-2.5469-5.6836-5.6875-5.6875zm-60.98 5.6875v0.30078c-2.3281-0.60156-4.2812-2.1797-5.3633-4.3281-1.082-2.1484-1.1797-4.6602-0.27344-6.8867 0.90625-2.2266 2.7305-3.9531 5.0078-4.7344 2.2734-0.78516 4.7734-0.54687 6.8594 0.64844 0.007812 0.29688 0.035156 0.59375 0.089844 0.88672 0.011718 0.066406 0.007812 0.13281 0.019531 0.19922v-0.003907c0.066406 0.3125 0.15625 0.61328 0.27344 0.90625 0.019532 0.046875 0.023438 0.097657 0.042969 0.14453v0.003907c0.14062 0.33984 0.31641 0.66406 0.51953 0.97266l0.003907 0.007813c0.21094 0.31641 0.44922 0.61719 0.71484 0.89062 0.074219 0.078126 0.14063 0.16406 0.19531 0.25781 0.023437 0.039063 0.0625 0.070313 0.082031 0.11328l0.011719 0.035156h-0.003906c0.19922 0.42969 0.1875 0.92188-0.03125 1.3438-0.37891 0.82422-0.71484 1.6484-1.0234 2.5117-0.20703 0.61719-0.78516 1.0352-1.4375 1.043-3.1367 0.003906-5.6836 2.5469-5.6875 5.6875zm3.8555 10.98h-3.543c-0.16797-0.007813-0.30469-0.14453-0.3125-0.3125-0.011719-1.9023-1.2109-3.5938-3-4.2344-0.46875-0.16406-0.92578-0.35547-1.3672-0.57031-1.7305-0.82812-3.793-0.46484-5.1367 0.90625-0.16406 0.16797-0.31641 0.070313-0.41797-0.03125l-2.5-2.5039c-0.125-0.125-0.125-0.32422 0-0.44922 0.84375-0.83594 1.3203-1.9727 1.3203-3.1602-0.007813-0.69141-0.16797-1.3711-0.46875-1.9922-0.21094-0.42969-0.39453-0.87109-0.55469-1.3242-0.64062-1.7852-2.3281-2.9844-4.2266-2.9961-0.17188-0.007812-0.30469-0.14453-0.3125-0.3125v-3.543c0.007812-0.16797 0.14062-0.30469 0.3125-0.3125 1.8984-0.011719 3.5898-1.2109 4.2305-3 0.16406-0.46875 0.35547-0.92578 0.57422-1.3672 0.82422-1.7305 0.46094-3.793-0.90625-5.1367-0.046875-0.058594-0.070312-0.12891-0.066406-0.20312 0-0.082031 0.035156-0.16016 0.097656-0.21484l2.5-2.5c0.125-0.125 0.32422-0.125 0.44922 0 1.3516 1.375 3.4336 1.7188 5.1523 0.85156 0.42969-0.21094 0.87109-0.39453 1.3242-0.55469 1.7852-0.64062 2.9844-2.3281 2.9961-4.2266 0.007813-0.17188 0.14453-0.30469 0.3125-0.3125h3.543c0.16797 0.007812 0.30469 0.14062 0.3125 0.3125 0.015625 1.8984 1.2148 3.5898 3.0039 4.2305 0.46484 0.16406 0.92188 0.35547 1.3633 0.57422 0.41797 0.19141 0.85937 0.32031 1.3086 0.38281l-1.9922 1.9922c-0.039063 0.042969-0.0625 0.09375-0.10156 0.13672v0.003906c-3.2461-1.6602-7.0508-1.8164-10.422-0.43359-3.3711 1.3828-5.9688 4.1719-7.1133 7.6289-1.1406 3.4609-0.71875 7.2461 1.1641 10.367 1.8789 3.1172 5.0312 5.2617 8.6211 5.8633v0.75391c0.011719 2.5352 1.6992 4.7539 4.1367 5.4453-0.03125 0.13281-0.14453 0.23047-0.28125 0.24219zm7.2539 39.238-6.6914 4.0156-18.059-16.25 5.375-5.375 19.109 17.363c0.015625 0.015625 0.035157 0.03125 0.050781 0.046875l0.21484 0.19531zm48.445-20.832-17.355 14.605v-0.003907c-1.875 1.582-4.2461 2.4492-6.6992 2.4492h-22.355l-14.684-13.348 6.2031-3.2773v-0.003906c0.89062-0.47656 1.8867-0.72656 2.8984-0.72656h17.105c0.55859 0 1.0938 0.22656 1.4805 0.62891 0.39062 0.39062 0.60938 0.92187 0.60547 1.4727l-0.027344 0.41797-4.3711 0.003907c-1.1523 0-2.082 0.92969-2.082 2.082 0 1.1484 0.92969 2.082 2.082 2.082h11.812c0.39062 0 0.76953-0.10938 1.1016-0.3125l19.645-12.227h-0.003906c1.418-0.85156 3.2148-0.72656 4.5039 0.30859 0.90625 0.68359 1.4531 1.75 1.4805 2.8867 0.027344 1.1406-0.46484 2.2305-1.3398 2.9609zm2.9453-24.094c0.003907 0.40234-0.15234 0.79297-0.4375 1.0781-0.28906 0.28516-0.67578 0.44531-1.082 0.44141-2.4062 0.015625-4.543 1.5312-5.3555 3.7969-0.27344 0.75391-0.5625 1.4727-0.87109 2.1484h-0.003907c-0.94141 1.9258-0.71094 4.2148 0.59375 5.9141-0.92969 0.17969-1.8203 0.52344-2.6289 1.0156l-19.141 11.914-2.6719 0.003907 0.015625-0.23438v-0.003906c0.050781-1.6992-0.59375-3.3477-1.7812-4.5625-1.1719-1.2109-2.7852-1.8945-4.4688-1.8867h-10.324l-3.5039-3.5039v-0.003906c-0.58984-0.59766-0.59375-1.5586-0.011719-2.168 1.0703-1.0547 1.6719-2.4922 1.6719-3.9922 0.003907-0.85156-0.19141-1.6875-0.5625-2.4531-0.32812-0.71875-0.62109-1.4336-0.89453-2.1953-0.58203-1.5938-1.832-2.8477-3.4258-3.4336-0.066407-0.027344-0.125-0.058594-0.19141-0.078125-0.55859-0.18359-1.1484-0.27734-1.7383-0.27734-0.40234 0.003906-0.79297-0.15625-1.0781-0.44141s-0.44531-0.67578-0.44141-1.0781v-5.293c-0.003906-0.40625 0.15625-0.79297 0.44141-1.082 0.28516-0.28516 0.67578-0.44141 1.0781-0.4375 2.4062-0.015625 4.5469-1.5312 5.3555-3.7969 0.26953-0.75 0.55859-1.4609 0.88281-2.1719 0.050782-0.10547 0.082032-0.21875 0.125-0.32812 0.066407-0.16797 0.14453-0.33203 0.19531-0.50391 0.035156-0.12109 0.054687-0.24609 0.082031-0.37109 0.039063-0.16406 0.082032-0.32812 0.10547-0.49219 0.015625-0.12109 0.015625-0.24609 0.023437-0.36719 0.011719-0.16797 0.035157-0.33594 0.03125-0.5 0-0.11328-0.023437-0.22656-0.03125-0.33984-0.011718-0.17188-0.019531-0.34766-0.046874-0.51953-0.015626-0.10156-0.050782-0.19922-0.074219-0.30078-0.039063-0.17969-0.074219-0.35937-0.13281-0.53125-0.03125-0.10156-0.082031-0.19531-0.125-0.29297-0.066406-0.16797-0.125-0.33594-0.20703-0.49609-0.054687-0.10938-0.12891-0.20703-0.19141-0.3125-0.085938-0.14062-0.16406-0.28906-0.26172-0.42188-0.10547-0.14062-0.23047-0.26953-0.34766-0.40234-0.074219-0.085937-0.14062-0.17578-0.22266-0.25781l0.003906-0.003907c-0.28906-0.28906-0.45312-0.68359-0.45312-1.0898l0.003906-0.027344h-0.003906c0-0.085937 0.011719-0.17578 0.03125-0.25781 0.011719-0.058593 0.027343-0.11328 0.050781-0.19141 0.0625-0.23047 0.18359-0.44141 0.34766-0.61328l3.7383-3.7383h0.003906c0.59766-0.58984 1.5586-0.59766 2.168-0.011719 1.0547 1.0664 2.4922 1.6719 3.9922 1.6719 0.85156 0 1.6875-0.19141 2.4531-0.56641 0.71875-0.32812 1.4336-0.62109 2.1953-0.89453v0.003907c2.2617-0.8125 3.7734-2.9531 3.7891-5.3555-0.003906-0.40625 0.15625-0.79297 0.44141-1.082 0.28516-0.28516 0.67578-0.44141 1.0781-0.4375h5.293c0.40625-0.003907 0.79297 0.15234 1.082 0.4375 0.28516 0.28906 0.44141 0.67578 0.4375 1.082 0.015625 2.4062 1.5312 4.543 3.7969 5.3555 0.75391 0.27344 1.4727 0.5625 2.1484 0.87109v0.003907c2.1602 1.0664 4.7617 0.63672 6.4648-1.0664 0.60937-0.57422 1.5586-0.58594 2.1797-0.023437l3.7383 3.7383c0.58984 0.60156 0.59766 1.5625 0.011719 2.168-1.0664 1.0547-1.6719 2.4922-1.6719 3.9961 0 0.84766 0.19141 1.6875 0.56641 2.4492 0.32812 0.71875 0.62109 1.4336 0.89453 2.1953h-0.003907c0.8125 2.2617 2.9531 3.7773 5.3555 3.793 0.40625-0.003907 0.79297 0.15234 1.082 0.4375 0.28516 0.28906 0.44141 0.67578 0.4375 1.082z"/>
  <path fill="white" d="m60.418 21.371c-4.832 0-9.4648 1.918-12.879 5.3359-3.4141 3.4141-5.3359 8.0469-5.3359 12.875 0 4.832 1.9219 9.4648 5.3359 12.879 3.4141 3.4141 8.0469 5.3359 12.879 5.3359 4.8281 0 9.4609-1.9219 12.875-5.3359 3.418-3.4141 5.3359-8.0469 5.3359-12.879-0.003906-4.8281-1.9258-9.457-5.3398-12.871-3.4141-3.4141-8.043-5.3359-12.871-5.3398zm0 32.258c-5.6836 0-10.805-3.4219-12.977-8.6719-2.1758-5.2461-0.97266-11.289 3.043-15.305 4.0195-4.0156 10.059-5.2188 15.309-3.0469 5.2461 2.1758 8.668 7.2969 8.668 12.977-0.007813 7.7539-6.2891 14.039-14.043 14.047z"/>
 </g>
</svg>