<svg xmlns="http://www.w3.org/2000/svg" version="1.1" viewBox="-5.0 -10.0 110.0 135.0">
 <path fill="white" d="m56.496 63.805c-5.043 0-9.1445 4.1016-9.1445 9.1445s4.1016 9.1445 9.1445 9.1445c0.60547 0 1.0977-0.49219 1.0977-1.0977 0-0.60547-0.49219-1.0977-1.0977-1.0977-3.832 0-6.9492-3.1172-6.9492-6.9492s3.1172-6.9492 6.9492-6.9492c3.832 0 6.9492 3.1172 6.9492 6.9492 0 1.7031-0.78516 2.7461-1.2148 2.7461-0.42969 0-1.2148-1.043-1.2148-2.7461v-1.5898c0-1.6172-1.3164-2.9336-2.9336-2.9336h-1.5898c-2.4922 0-4.5234 2.0273-4.5234 4.5234 0 2.4922 2.0273 4.5195 4.5234 4.5195h1.5898c0.74219 0 1.4141-0.28516 1.9297-0.74219 0.59375 0.72656 1.3633 1.1602 2.2148 1.1602 1.9141 0 3.4102-2.1719 3.4102-4.9414 0-5.043-4.1016-9.1445-9.1445-9.1445zm2.3242 10.734c0 0.39844-0.33984 0.73828-0.73828 0.73828h-1.5898c-1.2812 0-2.3242-1.043-2.3242-2.3281 0-1.2812 1.043-2.3281 2.3242-2.3281h1.5898c0.39844 0 0.73828 0.33984 0.73828 0.73828zm33.66-8.9844-11.59-20.074c-1.2344-2.1406-3.3047-3.5-5.5664-3.9141v-15.133h7.7773c0.60547 0 1.0977-0.49219 1.0977-1.0977v-11.516c0-0.60547-0.49219-1.0977-1.0977-1.0977h-7.7773v-2.9688c0-2.6211-2.1328-4.7578-4.7578-4.7578l-52.734 0.003906c-2.6211 0-4.7578 2.1328-4.7578 4.7578v2.9688h-5.543c-0.60547 0-1.0977 0.49219-1.0977 1.0977v7.6758c0 0.60547 0.49219 1.0977 1.0977 1.0977h5.543v6.3008h-5.543c-0.60547 0-1.0977 0.49219-1.0977 1.0977v7.6758c0 0.60547 0.49219 1.0977 1.0977 1.0977h5.543v6.3008h-5.543c-0.60547 0-1.0977 0.49219-1.0977 1.0977v7.6758c0 0.60547 0.49219 1.0977 1.0977 1.0977h5.543v6.3008h-5.543c-0.60547 0-1.0977 0.49219-1.0977 1.0977v7.6758c0 0.60547 0.49219 1.0977 1.0977 1.0977h5.543v6.3008h-5.543c-0.60547 0-1.0977 0.49219-1.0977 1.0977v7.6758c0 0.60547 0.49219 1.0977 1.0977 1.0977h5.543v2.9648c0 2.6211 2.1328 4.7578 4.7578 4.7578h52.738c2.3672 0 4.332-1.7422 4.6914-4.0117h5.7578c2.3359 0 4.2383-1.9023 4.2383-4.2383v-4.3359c0.58594-0.5 1.0117-1.1602 1.2188-1.9258 0.18359-0.68359 0.16406-1.3867-0.027343-2.0469 0.61328-0.33984 1.2422-0.71484 1.8594-1.0898 0.41797-0.25 0.82031-0.49609 1.1992-0.71484 3.875-2.2383 5.207-7.207 2.9688-11.082zm-10.477-50.637v9.3203h-6.6797v-9.3203zm-73.375 0h11.082v5.4805h-11.082zm0 16.172h11.082v5.4805h-11.082zm0 16.172h11.082v5.4805h-11.082zm0 16.172h11.082v5.4805h-11.082zm0 16.172h11.082v5.4805h-11.082zm61.938 13.203-52.734-0.003906c-1.4102 0-2.5586-1.1484-2.5586-2.5625v-2.9648h5.5391c0.60547 0 1.0977-0.49219 1.0977-1.0977v-7.6758c0-0.60547-0.49219-1.0977-1.0977-1.0977h-5.5391v-6.3008h5.5391c0.60547 0 1.0977-0.49219 1.0977-1.0977v-7.6758c0-0.60547-0.49219-1.0977-1.0977-1.0977h-5.5391v-6.3008h5.5391c0.60547 0 1.0977-0.49219 1.0977-1.0977v-7.6758c0-0.60547-0.49219-1.0977-1.0977-1.0977h-5.5391v-6.3008h5.5391c0.60547 0 1.0977-0.49219 1.0977-1.0977v-7.6758c0-0.60547-0.49219-1.0977-1.0977-1.0977h-5.5391v-6.3008h5.5391c0.60547 0 1.0977-0.49219 1.0977-1.0977v-7.6758c0-0.60547-0.49219-1.0977-1.0977-1.0977h-5.5391v-2.9688c0-1.4102 1.1484-2.5625 2.5586-2.5625h52.738c1.4102 0 2.5586 1.1484 2.5586 2.5625v31.711c-1.1367 0.10156-2.2695 0.4375-3.3203 1.043-0.37891 0.21875-0.79297 0.44531-1.2188 0.67969-0.63281 0.34766-1.2773 0.70703-1.875 1.0664-0.47656-0.49609-1.0742-0.86328-1.7578-1.0469-0.99219-0.26562-2.0273-0.13281-2.9141 0.37891l-0.52344 0.30078c-1.832 1.0586-2.4648 3.4102-1.4062 5.2461l3.332 5.7695h-31.477c-2.3359 0-4.2383 1.9023-4.2383 4.2383v27.605c0 2.3359 1.9023 4.2383 4.2383 4.2383h41.039c-0.32031 1.0469-1.2852 1.8164-2.4375 1.8164zm2.2617-37.895c-0.011719-0.039062-0.015625-0.082031-0.027344-0.12109l1.1172-0.64453c0.15234-0.085938 0.32812-0.10938 0.5-0.0625 0.17188 0.046874 0.31641 0.15625 0.40234 0.30469l0.30078 0.52344zm-1.7773 4.293c0.8125-0.46875 1.3984-1.2109 1.6992-2.0977h3.6445l1.2852 2.2266-9.5508 6.8906c-2.332-4.0117-6.6641-6.7227-11.633-6.7227-4.9648 0-9.3008 2.7109-11.633 6.7227l-12.637-9.1172h32.488l0.57422 0.99219c0.51172 0.88672 1.3398 1.5195 2.332 1.7852 0.33203 0.089843 0.66797 0.13281 1.0039 0.13281 0.66406 0 1.3164-0.17188 1.9062-0.51172l0.52344-0.30078zm13.305 20.723c-0.11328 0.42578-0.38672 0.78125-0.76562 1l-0.52344 0.30078c-0.78516 0.45312-1.793 0.18359-2.2461-0.60156l-5.1719-8.957c-0.21875-0.37891-0.27734-0.82031-0.16016-1.2461 0.11328-0.42578 0.38672-0.78125 0.76172-1l0.52344-0.30078c0.25-0.14453 0.53125-0.21875 0.8125-0.21875 0.14453 0 0.28906 0.019531 0.43359 0.058594 0.42578 0.11328 0.78125 0.38672 1 0.76172l5.1719 8.957c0.21875 0.37891 0.27734 0.82031 0.16016 1.2461zm-3.9805-12.016c-0.48047-0.50781-1.0898-0.88281-1.7852-1.0703-0.99219-0.26562-2.0273-0.13281-2.9141 0.37891l-0.52344 0.30078c-0.88672 0.51172-1.5195 1.3398-1.7852 2.332-0.26563 0.99219-0.13281 2.0273 0.37891 2.9141l5.1719 8.957c0.71094 1.2305 2.0039 1.918 3.332 1.918 0.26953 0 0.53906-0.035156 0.80859-0.09375v3.207c0 0.30469-0.074219 0.59375-0.19531 0.85547l-13.789-9.9492c0.55078-1.4688 0.86719-3.0508 0.86719-4.7109s-0.31641-3.2422-0.86719-4.7109l9.7031-7 2.9531 5.1172c0.085937 0.15234 0.10938 0.32812 0.0625 0.5s-0.15625 0.31641-0.30469 0.40234l-1.1172 0.64453zm-48.152 20.891 12.637-9.1172c2.332 4.0117 6.6641 6.7227 11.633 6.7227 4.9648 0 9.3008-2.7109 11.633-6.7227l12.637 9.1172zm-2.3008-2.043v-27.605c0-0.30469 0.074219-0.59375 0.19531-0.85547l13.789 9.9492c-0.55078 1.4688-0.86719 3.0508-0.86719 4.7109 0 1.6602 0.31641 3.2422 0.86719 4.7109l-13.789 9.9453c-0.12109-0.26172-0.19531-0.54688-0.19531-0.85547zm37.824-13.801c0 6.207-5.0508 11.258-11.258 11.258s-11.258-5.0508-11.258-11.258c0-6.207 5.0508-11.258 11.258-11.258s11.258 5.0508 11.258 11.258zm2.9688-16.648c-0.11328 0.42578-0.38672 0.78125-0.76172 1l-0.52344 0.30078c-0.37891 0.21875-0.82031 0.27734-1.2461 0.16016-0.42578-0.11328-0.78125-0.38672-1-0.76172l-5.1719-8.957c-0.21875-0.37891-0.27734-0.82031-0.16016-1.2461 0.11328-0.42578 0.38672-0.78125 0.76172-1l0.52344-0.30078c0.25-0.14453 0.53125-0.21875 0.8125-0.21875 0.14453 0 0.28906 0.019532 0.43359 0.058594 0.42578 0.11328 0.78125 0.38672 1 0.76172l5.1719 8.957c0.21875 0.37891 0.27734 0.82031 0.16016 1.2461zm17.695 18.434c-0.39062 0.22656-0.8125 0.48047-1.2383 0.73828-0.57422 0.34766-1.1562 0.69531-1.7109 1.0039l-3.8867-6.7344 1.0156-0.58594c0.66016-0.37891 1.1328-0.99609 1.3281-1.7344 0.19922-0.73828 0.097656-1.5078-0.28516-2.168l-6.9102-11.973c-0.78906-1.3633-2.5352-1.832-3.9023-1.0469l-1.0156 0.58594-3.8867-6.7344c0.54688-0.32812 1.1406-0.65625 1.7266-0.98047 0.4375-0.24219 0.86719-0.47656 1.2578-0.70313 2.8281-1.6328 6.4531-0.66016 8.0859 2.168l11.59 20.074c1.6289 2.8281 0.66016 6.4531-2.1641 8.0859zm-53.531-35.219h27.512c0.60547 0 1.0977-0.49219 1.0977-1.0977 0-5.5195-3.0391-10.516-7.8359-13.086 0.78516-1.2656 1.25-2.75 1.25-4.3438 0-4.5586-3.707-8.2656-8.2656-8.2656-4.5586 0-8.2617 3.707-8.2617 8.2656 0 1.5938 0.46094 3.082 1.25 4.3438-4.8008 2.5703-7.8359 7.5664-7.8359 13.086 0 0.60547 0.49219 1.0977 1.0977 1.0977zm13.754-24.598c3.3477 0 6.0703 2.7227 6.0703 6.0703s-2.7227 6.0703-6.0703 6.0703c-3.3477 0-6.0664-2.7227-6.0664-6.0703s2.7227-6.0703 6.0664-6.0703zm-5.582 12.145c1.4727 1.3555 3.4297 2.1875 5.582 2.1875 2.1523 0 4.1094-0.83594 5.582-2.1875 3.9922 1.9609 6.6484 5.8477 7.0273 10.262h-25.223c0.37891-4.4102 3.0352-8.3008 7.0273-10.262zm17.074 15.777c0 0.60547-0.49219 1.0977-1.0977 1.0977h-20.789c-0.60547 0-1.0977-0.49219-1.0977-1.0977 0-0.60547 0.49219-1.0977 1.0977-1.0977h20.789c0.60547 0 1.0977 0.49219 1.0977 1.0977z"/>
</svg>