<svg xmlns="http://www.w3.org/2000/svg" data-name="Layer 1" viewBox="0 0 100 125" x="0px" y="0px"><defs><style>
      .cls-1 {
        fill-rule: evenodd;
      }
    </style></defs><path fill="white" class="cls-1" d="m31.419,81.132h-10.396v11.055h10.396v-11.055h0Zm2.812-1.411v12.466h10.397v-17.458h-10.397v4.991h0Zm36.815-21.765h-10.396v34.231h10.396v-34.231h0Zm-13.209,34.231v-24.978h-10.396v24.978h10.396Zm26.419-41.767h-10.396v41.767h10.396v-41.767h0ZM18.21,86.343H7.812v5.844h10.397v-5.844h0Zm-11.803-2.813h11.803v-3.805c0-.777.63-1.407,1.407-1.407h11.803v-4.996c0-.777.63-1.407,1.407-1.407h11.803v-6.114c0-.776.63-1.406,1.406-1.406h11.803v-7.847c0-.777.63-1.406,1.407-1.406h11.803v-6.13c0-.777.63-1.406,1.407-1.406h13.209c.78,0,1.405.629,1.405,1.406v44.58c0,.776-.624,1.406-1.405,1.406H6.407c-.777,0-1.407-.63-1.407-1.406v-8.657c0-.776.63-1.406,1.407-1.406h0ZM80.676,9.974c.009.774-.611,1.409-1.385,1.417-.773.009-1.409-.611-1.418-1.384l-.05-3.59c-.009-.773.611-1.408,1.385-1.417.773-.009,1.408.61,1.417,1.384l.05,3.59h0Zm9.293,3.248c-.376.676-1.231.92-1.91.544-.679-.376-.918-1.23-.542-1.906l1.754-3.134c.377-.677,1.231-.92,1.901-.544.679.376.918,1.23.542,1.906l-1.744,3.134h0Zm-18.963-1.426c.397.665.181,1.525-.484,1.923-.665.397-1.525.181-1.922-.483l-1.838-3.084c-.398-.664-.182-1.525.483-1.922.665-.398,1.525-.181,1.923.483l1.839,3.084h0Zm4.234,8.195h7.975v-2.382h-7.975v2.382h0Zm-10.736,9.711c-.646-.516-1.05-1.313-1.05-2.189v-4.751c0-1.504,1.199-2.771,2.7-2.771h6.625v-2.548c0-1.265,1.03-2.295,2.295-2.295h8.306c1.265,0,2.3,1.03,2.3,2.295v2.548h6.62c1.506,0,2.699,1.267,2.699,2.771v4.751c0,.875-.404,1.672-1.047,2.189v11.114c0,1.505-1.203,2.772-2.699,2.772h-24.048c-1.502,0-2.701-1.267-2.701-2.772v-11.114h0Zm16.336-2.595h-3.225v3.895h3.225v-3.895h0Zm2.461,3.178c0,.979.103,1.753-.668,2.521-.409.406-.971.658-1.584.658h-3.643c-1.235,0-2.252-1.017-2.252-2.253v-.926h-8.188v10.532c0,.153.094.311.24.311h24.048c.147,0,.239-.158.239-.311v-10.532h-8.191Zm-5.895-5.639h3.643c1.235,0,2.252,1.017,2.252,2.252v.926l9.072-.014c.101-.036.165-.172.165-.296v-4.751c0-.152-.092-.31-.239-.31h-26.145c-.146,0-.239.158-.239.31v4.751c0,.203.096.268.302.31h8.936c0-.983-.103-1.75.668-2.521.41-.406.971-.657,1.584-.657h0Zm-15.256,23.048c.055.774-.528,1.445-1.302,1.5-.773.055-1.444-.528-1.499-1.302l-.258-3.557c-11.723,14.08-27.942,23.802-45.695,28.898-.744.212-1.518-.218-1.731-.962-.212-.743.218-1.518.961-1.73,17.291-4.963,33.132-14.471,44.503-28.239l-3.854.381c-.77.076-1.457-.487-1.532-1.258-.076-.771.488-1.457,1.258-1.533l7.01-.694c.398-.05.768.008,1.112.267.443.334.631.88.532,1.391l.496,6.837Z"/></svg>