<svg xmlns:inkscape="http://www.inkscape.org/namespaces/inkscape" xmlns:sodipodi="http://sodipodi.sourceforge.net/DTD/sodipodi-0.dtd" xmlns="http://www.w3.org/2000/svg" xmlns:svg="http://www.w3.org/2000/svg" xmlns:rdf="http://www.w3.org/1999/02/22-rdf-syntax-ns#" xmlns:cc="http://creativecommons.org/ns#" xmlns:dc="http://purl.org/dc/elements/1.1/" viewBox="0 0 16.933333 21.1666675" version="1.1" x="0px" y="0px"><g><path style="color:#white;paint-order:stroke fill markers;" d="m 4.9859989,0.7920823 a 0.26458349,0.26458349 0 0 0 -0.2656152,0.265618 v 0.69763 H 3.8201786 c -0.691179,0 -1.2578027,0.560503 -1.2578027,1.249537 V 14.889929 c 0,0.689036 0.5666237,1.250053 1.2578027,1.250053 H 10.32986 A 0.26458349,0.26458349 0 0 0 10.595478,15.874367 0.26458349,0.26458349 0 0 0 10.32986,15.610815 H 3.8201786 c -0.4094798,0 -0.7286361,-0.31818 -0.7286361,-0.720886 V 3.0048673 c 0,-0.402707 0.3191563,-0.720368 0.7286361,-0.720371 h 0.9002051 v 0.699183 a 0.26458349,0.26458349 0 0 0 0.2656152,0.263551 0.26458349,0.26458349 0 0 0 0.2640674,-0.263551 v -0.699183 h 2.9527923 v 0.699183 a 0.26458349,0.26458349 0 0 0 0.2635488,0.263551 0.26458349,0.26458349 0 0 0 0.2640674,-0.263551 v -0.699183 h 2.9527892 v 0.699183 a 0.26458349,0.26458349 0 0 0 0.264068,0.263551 0.26458349,0.26458349 0 0 0 0.265618,-0.263551 v -0.699183 h 0.898136 c 0.40949,0 0.730705,0.317662 0.730705,0.720371 v 9.1250237 a 0.26458349,0.26458349 0 0 0 0.263549,0.264067 0.26458349,0.26458349 0 0 0 0.265617,-0.264067 V 3.0048673 c 0,-0.689031 -0.568692,-1.249537 -1.259871,-1.249537 H 12.21295 v -0.69763 a 0.26458349,0.26458349 0 0 0 -0.265618,-0.265618 0.26458349,0.26458349 0 0 0 -0.264068,0.265618 v 0.69763 H 8.7304748 v -0.69763 A 0.26458349,0.26458349 0 0 0 8.4664074,0.7920823 0.26458349,0.26458349 0 0 0 8.2028586,1.0577003 v 0.69763 H 5.2500663 v -0.69763 A 0.26458349,0.26458349 0 0 0 4.9859989,0.7920823 Z m 0.2092907,4.498433 a 0.26458349,0.26458349 0 0 0 -0.2656179,0.265618 0.26458349,0.26458349 0 0 0 0.2656179,0.263548 h 6.5427544 a 0.26458349,0.26458349 0 0 0 0.265615,-0.263548 0.26458349,0.26458349 0 0 0 -0.265615,-0.265618 z m 0,2.675289 a 0.26458349,0.26458349 0 0 0 -0.2656179,0.265618 0.26458349,0.26458349 0 0 0 0.2656179,0.264065 h 6.5427544 a 0.26458349,0.26458349 0 0 0 0.265615,-0.264065 0.26458349,0.26458349 0 0 0 -0.265615,-0.265618 z m 0,2.6758047 a 0.26458349,0.26458349 0 0 0 -0.2656179,0.265618 0.26458349,0.26458349 0 0 0 0.2656179,0.264068 H 7.0701112 A 0.26458349,0.26458349 0 0 0 7.3357264,10.907227 0.26458349,0.26458349 0 0 0 7.0701112,10.641609 Z m 3.9909696,0.111623 a 0.26460995,0.26460995 0 0 0 -0.23926,0.304374 l 0.2051552,1.324467 a 0.26460995,0.26460995 0 0 0 0.074414,0.148309 l 3.3574166,3.32848 c 0.400392,0.397147 1.057122,0.366879 1.464512,-0.03721 0.407389,-0.404095 0.437536,-1.063731 0.03721,-1.460894 l -3.35535,-3.328479 a 0.26460995,0.26460995 0 0 0 -0.146762,-0.0739 L 9.2477563,10.755298 a 0.26460995,0.26460995 0 0 0 -0.061497,-0.0021 z m 0.3389974,0.579808 0.8945194,0.134876 3.29489,3.269568 c 0.184381,0.182922 0.180126,0.489347 -0.03927,0.706935 -0.21935,0.217574 -0.53594,0.222213 -0.720371,0.03927 L 9.6601333,12.214123 Z" fill="white" stroke-width="2" stroke-linecap="round" stroke-linejoin="round"/></g></svg>