<svg xmlns="http://www.w3.org/2000/svg" xmlns:xlink="http://www.w3.org/1999/xlink" version="1.1" x="0px" y="0px" viewBox="0 0 50 62.5" style="enable-background:new 0 0 50 50;" xml:space="preserve"><path fill="white" d="M25.3,27.5H5.4c-0.6,0-1-0.4-1-1s0.4-1,1-1h19.9l-4.9-4.9c-0.4-0.4-0.4-1,0-1.4s1-0.4,1.4,0l6.6,6.6  c0.1,0.1,0.2,0.2,0.2,0.3c0.1,0.2,0.1,0.5,0,0.8c-0.1,0.1-0.1,0.2-0.2,0.3l-6.6,6.6c-0.2,0.2-0.5,0.3-0.7,0.3s-0.5-0.1-0.7-0.3  c-0.4-0.4-0.4-1,0-1.4L25.3,27.5z M23.8,10.3c-2.1,0-4.1,0.4-6.1,1.2c-1.8,0.8-3.5,1.8-5,3.2c-0.8,0.8-0.8,2-0.1,2.8  c0.8,0.8,2,0.8,2.8,0.1c1.1-1,2.4-1.8,3.7-2.4c1.4-0.6,3-0.9,4.6-0.9c6.7,0,12.1,5.4,12.1,12.1s-5.4,12.1-12.1,12.1  c-1.7,0-3.4-0.4-5-1.1c-1.3-0.6-2.5-1.4-3.5-2.4c-0.8-0.8-2.1-0.8-2.8,0c-0.8,0.8-0.8,2.1,0,2.8c1.4,1.3,2.9,2.4,4.7,3.2  c2.1,0.9,4.3,1.4,6.7,1.4c8.9,0,16.1-7.2,16.1-16.1S32.7,10.3,23.8,10.3z"/></svg>