<svg xmlns="http://www.w3.org/2000/svg" xmlns:xlink="http://www.w3.org/1999/xlink" version="1.1" x="0px" y="0px" viewBox="0 0 31.773 23.537499999999998" style="enable-background:new 0 0 31.773 18.83;" xml:space="preserve"><g><g><path d="M4.817,9.652c0.137-0.403,0.36-0.403,0.499,0l0.836,2.448c0.138,0.403,0.597,0.737,1.022,0.743l2.587,0.038    c0.427,0.006,0.495,0.219,0.155,0.476l-2.072,1.551c-0.34,0.257-0.517,0.796-0.391,1.204l0.764,2.472    c0.126,0.406-0.057,0.537-0.402,0.293l-2.115-1.49c-0.349-0.246-0.917-0.246-1.265,0l-2.116,1.49    c-0.35,0.244-0.53,0.113-0.404-0.293l0.766-2.472c0.125-0.408-0.052-0.947-0.393-1.204l-2.071-1.551    c-0.341-0.257-0.271-0.47,0.154-0.476l2.588-0.038c0.426-0.006,0.886-0.34,1.023-0.743L4.817,9.652z"/><g><path d="M13.445,9.82c-0.172,0-0.347-0.063-0.534-0.196l-1.911-1.347c-0.144-0.101-0.459-0.103-0.604,0l-1.91,1.347     C8.087,9.907,7.683,9.867,7.473,9.583c-0.14-0.188-0.162-0.438-0.067-0.742l0.688-2.233C8.15,6.429,8.058,6.144,7.907,6.031     L6.036,4.632C5.603,4.307,5.629,3.979,5.683,3.814C5.737,3.648,5.908,3.37,6.45,3.363l2.337-0.034     C8.974,3.326,9.214,3.15,9.275,2.974l0.756-2.212c0.175-0.513,0.493-0.59,0.668-0.59c0.174,0,0.492,0.077,0.667,0.59l0.755,2.212     c0.062,0.178,0.302,0.354,0.488,0.355l2.337,0.034c0.563,0.008,0.724,0.317,0.767,0.453c0.055,0.166,0.08,0.49-0.354,0.815     l-1.87,1.4c-0.149,0.112-0.242,0.396-0.188,0.576l0.691,2.231c0.095,0.305,0.071,0.555-0.067,0.743     C13.813,9.733,13.639,9.82,13.445,9.82z M7.141,4.285l1.328,0.999c0.47,0.354,0.69,1.04,0.519,1.599l-0.5,1.618l1.37-0.986     c0.463-0.325,1.223-0.323,1.681,0l1.357,0.956l-0.486-1.588c-0.173-0.562,0.05-1.248,0.52-1.599l1.329-0.995l-1.66-0.028     c-0.588-0.008-1.172-0.433-1.36-0.987l-0.535-1.571l-0.541,1.571c-0.188,0.556-0.772,0.979-1.36,0.987L7.141,4.285z"/></g><g><path d="M24.435,9.82c-0.172,0-0.348-0.063-0.535-0.196l-1.91-1.347c-0.143-0.101-0.459-0.103-0.605,0l-1.908,1.347     c-0.4,0.283-0.805,0.243-1.016-0.041c-0.137-0.188-0.16-0.438-0.066-0.742l0.689-2.233c0.057-0.179-0.037-0.464-0.188-0.576     l-1.869-1.399c-0.436-0.325-0.408-0.653-0.355-0.817c0.055-0.166,0.227-0.444,0.77-0.451l2.336-0.034     c0.186-0.003,0.428-0.179,0.488-0.355l0.754-2.212c0.176-0.513,0.494-0.59,0.668-0.59s0.494,0.077,0.668,0.59l0.754,2.212     c0.063,0.178,0.303,0.354,0.488,0.355l2.338,0.034c0.563,0.008,0.723,0.317,0.768,0.453c0.053,0.166,0.078,0.49-0.354,0.815     l-1.871,1.4c-0.148,0.112-0.242,0.396-0.188,0.576L24.98,8.84c0.096,0.305,0.072,0.555-0.066,0.743     C24.802,9.733,24.627,9.82,24.435,9.82z M18.129,4.285l1.33,0.999c0.469,0.354,0.691,1.04,0.52,1.599l-0.5,1.618l1.369-0.986     c0.463-0.325,1.223-0.323,1.682,0l1.355,0.956l-0.486-1.588c-0.172-0.562,0.051-1.248,0.52-1.599l1.33-0.995l-1.66-0.028     C23,4.253,22.416,3.828,22.226,3.273l-0.535-1.571l-0.539,1.571c-0.191,0.556-0.773,0.979-1.361,0.987L18.129,4.285z"/></g><g><path d="M29.478,18.828c-0.172,0-0.348-0.064-0.535-0.198l-1.91-1.345c-0.145-0.103-0.459-0.103-0.604,0l-1.91,1.345     c-0.398,0.283-0.805,0.243-1.014-0.04c-0.139-0.188-0.162-0.438-0.066-0.743l0.688-2.231c0.057-0.18-0.037-0.464-0.186-0.576     l-1.871-1.4c-0.436-0.325-0.408-0.65-0.355-0.816c0.055-0.166,0.227-0.444,0.77-0.452l2.336-0.035     c0.186-0.002,0.428-0.178,0.488-0.354l0.756-2.214c0.174-0.512,0.492-0.589,0.668-0.589c0.172,0,0.492,0.077,0.666,0.591     l0.756,2.211c0.061,0.178,0.301,0.354,0.486,0.354l2.338,0.035c0.563,0.008,0.723,0.317,0.768,0.452     c0.053,0.166,0.08,0.493-0.354,0.816l-1.871,1.4c-0.148,0.112-0.242,0.398-0.188,0.576l0.689,2.231     c0.096,0.306,0.072,0.555-0.066,0.743C29.844,18.741,29.67,18.828,29.478,18.828z M23.172,13.292l1.33,0.999     c0.469,0.354,0.689,1.04,0.518,1.598l-0.5,1.62l1.371-0.986c0.463-0.325,1.221-0.324,1.68,0l1.357,0.956l-0.486-1.59     c-0.172-0.56,0.051-1.246,0.52-1.598l1.328-0.996l-1.66-0.025c-0.586-0.009-1.17-0.434-1.359-0.988l-0.535-1.571l-0.541,1.572     c-0.189,0.555-0.773,0.979-1.359,0.987L23.172,13.292z"/></g><g><path d="M18.617,18.828c-0.172,0-0.348-0.064-0.535-0.198l-1.911-1.345c-0.144-0.103-0.459-0.103-0.604,0l-1.91,1.345     c-0.398,0.283-0.803,0.243-1.013-0.04c-0.14-0.188-0.162-0.438-0.068-0.743l0.69-2.231c0.055-0.18-0.037-0.464-0.188-0.576     l-1.871-1.4c-0.434-0.325-0.407-0.65-0.354-0.816c0.053-0.166,0.226-0.444,0.768-0.452l2.336-0.035     c0.188-0.002,0.429-0.178,0.488-0.354l0.756-2.214c0.175-0.512,0.492-0.589,0.667-0.589c0.174,0,0.493,0.077,0.667,0.591     l0.756,2.211c0.061,0.178,0.303,0.354,0.486,0.354l2.338,0.035c0.564,0.008,0.723,0.317,0.768,0.452     c0.055,0.166,0.08,0.493-0.354,0.816l-1.871,1.4c-0.148,0.112-0.242,0.398-0.188,0.576l0.689,2.231     c0.096,0.306,0.072,0.555-0.064,0.743C18.984,18.741,18.81,18.828,18.617,18.828z M12.312,13.292l1.33,0.999     c0.469,0.354,0.689,1.04,0.518,1.598l-0.5,1.62l1.37-0.986c0.463-0.325,1.222-0.324,1.681,0l1.357,0.956l-0.486-1.59     c-0.174-0.56,0.049-1.246,0.52-1.598l1.328-0.996l-1.66-0.025c-0.586-0.009-1.17-0.434-1.359-0.988l-0.537-1.571l-0.54,1.572     c-0.188,0.555-0.772,0.979-1.359,0.987L12.312,13.292z"/></g></g></g><text x="0" y="33.83" fill="#000000" font-size="5px" font-weight="bold" font-family="'Helvetica Neue', Helvetica, Arial-Unicode, Arial, Sans-serif">Created by Baboon designs</text><text x="0" y="38.83" fill="#000000" font-size="5px" font-weight="bold" font-family="'Helvetica Neue', Helvetica, Arial-Unicode, Arial, Sans-serif">from the Noun Project</text></svg>