<svg xmlns="http://www.w3.org/2000/svg" xmlns:xlink="http://www.w3.org/1999/xlink" version="1.1" x="0px" y="0px" viewBox="0 0 67 83.75" enable-background="new 0 0 67 67" xml:space="preserve"><g><path fill="white" d="M26.019989,8.5051098H4.4100037c-1.5800171,0-2.8599854,1.2900391-2.8599854,2.8599854v44.1800537   c0,1.5799561,1.2799683,2.8599854,2.8599854,2.8599854H26.019989c1.5800171,0,2.8600464-1.2800293,2.8600464-2.8599854v-6.0500488   l-3.25-2.1600342v3.3100586H4.8000183V16.2651196h20.8300171v2.7399902h3.25v-3.2299805c0,0,0,0,0-0.0100098v-4.4000244   C28.8800354,9.7951488,27.6000061,8.5051098,26.019989,8.5051098z M15.2200012,53.0650444   c0.7999878,0,1.460022,0.6501465,1.460022,1.460083s-0.6600342,1.460083-1.460022,1.460083   c-0.8099976,0-1.4699707-0.6501465-1.4699707-1.460083S14.4100037,53.0650444,15.2200012,53.0650444z M21.0799866,12.8851147   H9.3500061c-0.2800293,0-0.5-0.2199707-0.5-0.5c0-0.2700195,0.2199707-0.5,0.5-0.5h11.7299805c0.2800293,0,0.5,0.2299805,0.5,0.5   C21.5799866,12.665144,21.3600159,12.8851147,21.0799866,12.8851147z M25.6300354,36.7951469l3.25-2.1700439v-6.7600079h-3.25   V36.7951469z"/><path fill="white" d="M62.5899963,8.5051098H40.980011c-1.5800171,0-2.8599854,1.2900391-2.8599854,2.8599854v4.4100342c0,0,0,0,0,0.0100098   v3.2199707h1.3499756v-4.1800537l2.1699829,1.4500732h20.4899902v34.3699951H41.440033v-4.1500244h-3.3200073v4.6400146   c0,0,0,0,0,0.0100098v4.4899902c0,1.5800781,1.2799683,2.8599854,2.8599854,2.8599854h21.6099854   c1.5800171,0,2.8599854-1.2799072,2.8599854-2.8599854v-4.4899902c0-0.0100098,0-0.0100098,0-0.0100098V15.7851391   c0-0.0100098,0-0.0100098,0-0.0100098v-4.4100342C65.4499817,9.7951488,64.1700134,8.5051098,62.5899963,8.5051098z    M57.6499939,12.8851147H45.9200134c-0.2700195,0-0.5-0.2199707-0.5-0.5c0-0.2700195,0.2299805-0.5,0.5-0.5h11.7299805   c0.2799683,0,0.5,0.2299805,0.5,0.5C58.1499939,12.665144,57.9299622,12.8851147,57.6499939,12.8851147z M51.7900085,55.9852104   c-0.8099976,0-1.4700317-0.6501465-1.4700317-1.460083s0.6600342-1.460083,1.4700317-1.460083   c0.7999878,0,1.460022,0.6501465,1.460022,1.460083S52.5899963,55.9852104,51.7900085,55.9852104z M41.440033,30.7252026   l-1.9700317,1.3099346v-4.170042h-1.3499756v9.7700176h3.3200073V30.7252026z"/><path fill="white" d="M51.7900085,26.2352123c-4.0100098,0-7.2700195,3.2598877-7.2700195,7.2598858   c0,4.0100098,3.2600098,7.2700195,7.2700195,7.2700195s7.2600098-3.2600098,7.2600098-7.2700195   C59.0500183,29.4951,55.8000183,26.2352123,51.7900085,26.2352123z M52.6642761,32.2548637v0.9007568h-2.7123413   c-0.0154419,0.1778564-0.0199585,0.5690918,0.020874,0.8688965h2.6914673v0.9008789h-2.4085083   c0.376709,0.7260742,0.9459839,1.0892334,1.7070923,1.0892334c0.6237793,0,1.1102905-0.1622314,1.8220825-0.8902588   l0.7435913,0.9003906c-0.6494141,0.8033447-1.5046387,1.204834-2.5656738,1.204834   c-1.4838257,0-2.6618652-0.9177246-3.1419067-2.3041992h-1.1416016v-0.9008789h0.942627   c-0.0419312-0.3359375-0.0352783-0.7165527-0.020874-0.8688965h-0.9217529v-0.9007568h1.0892334   c0.4550171-1.4744854,1.7011108-2.4818096,3.2253418-2.4818096c1.1101074,0,1.9900513,0.4013672,2.6390381,1.2043457   l-0.7431641,0.9425049c-0.649292-0.6925049-1.1373291-0.8901367-1.895874-0.8901367   c-0.7886353,0-1.491272,0.4202881-1.8221436,1.2250957H52.6642761z"/><g><path fill="white" d="M15.6168518,34.0312309v1.71875c0.5119629-0.0528564,0.993042-0.3087158,0.993042-0.821167    C16.6098938,34.3753471,16.1835632,34.2012749,15.6168518,34.0312309z"/><path fill="white" d="M15.2200012,26.2352123c-4.0100098,0-7.2799683,3.2598877-7.2799683,7.2598858    c0,4.0100098,3.2699585,7.2700195,7.2799683,7.2700195c4,0,7.2600098-3.2600098,7.2600098-7.2700195    C22.480011,29.4951,19.2200012,26.2352123,15.2200012,26.2352123z M15.6168518,36.7718315v0.6873779h-0.6110229V36.76231    c-0.8723755-0.0891113-1.6552734-0.4360352-2.348999-1.0407715l0.6969604-0.8308105    c0.534668,0.4648438,1.0853882,0.7416992,1.6520386,0.8308105v-1.8525391    c-1.2490234-0.2983398-2.081665-0.7077637-2.081665-1.9238262c0-1.1633301,0.9112549-1.8635254,2.081665-1.9241943v-0.4775391    h0.6110229v0.4871826c0.7001343,0.0510254,1.3623047,0.2896729,1.986145,0.7160645l-0.6206055,0.878418    c-0.4200439-0.2989502-0.8751831-0.4836426-1.3655396-0.5539551v1.7951641    c1.2560425,0.3911133,2.157959,0.6201172,2.157959,1.9716797C17.7748108,36.0303764,16.8265686,36.7122612,15.6168518,36.7718315z    "/><path fill="white" d="M14.0890808,31.8304272c0,0.5251446,0.378479,0.6914043,0.916748,0.8640118v-1.6516094    C14.5187683,31.0855541,14.0890808,31.3416576,14.0890808,31.8304272z"/></g><g><polygon fill="white" points="40.4700012,30.165144 40.4700012,26.8650951 24.1000061,26.8650951 24.1000061,20.0051098 40.4700012,20.0051098     40.4700012,16.6951733 50.5799866,23.4351635   "/></g><g><polygon fill="white" points="46.0099792,38.6351128 46.0099792,45.4950981 29.6300354,45.4950981 29.6300354,48.7951469     19.5299988,42.0650444 29.6300354,35.3250542 29.6300354,38.6351128   "/></g></g></svg>