<svg xmlns="http://www.w3.org/2000/svg" xmlns:xlink="http://www.w3.org/1999/xlink" version="1.1" x="0px" y="0px" viewBox="0 0 31.886 23.62" style="enable-background:new 0 0 31.886 18.896;" xml:space="preserve"><g><g><path d="M4.833,9.513c0.138-0.405,0.362-0.405,0.5,0l0.84,2.458c0.139,0.405,0.6,0.739,1.027,0.745l2.596,0.039    c0.428,0.006,0.496,0.219,0.156,0.477l-2.08,1.557c-0.342,0.258-0.519,0.799-0.393,1.207l0.768,2.48    c0.125,0.408-0.058,0.54-0.406,0.294l-2.123-1.495c-0.35-0.247-0.92-0.247-1.268,0L2.325,18.77    c-0.35,0.246-0.531,0.114-0.404-0.294l0.768-2.48c0.125-0.408-0.051-0.949-0.395-1.207l-2.078-1.557    c-0.342-0.258-0.271-0.471,0.154-0.477l2.598-0.039c0.428-0.006,0.89-0.34,1.027-0.745L4.833,9.513z"/><path d="M15.704,9.513c0.137-0.405,0.361-0.405,0.5,0l0.838,2.458c0.14,0.405,0.601,0.739,1.026,0.745l2.599,0.039    c0.427,0.006,0.496,0.219,0.153,0.477l-2.079,1.557c-0.341,0.258-0.519,0.799-0.392,1.207l0.767,2.48    c0.127,0.408-0.057,0.54-0.404,0.294l-2.123-1.495c-0.35-0.247-0.92-0.247-1.271,0l-2.123,1.495    c-0.349,0.246-0.53,0.114-0.405-0.294l0.768-2.48c0.127-0.408-0.051-0.949-0.393-1.207l-2.08-1.557    c-0.34-0.258-0.271-0.471,0.156-0.477l2.598-0.039c0.427-0.006,0.888-0.34,1.025-0.745L15.704,9.513z"/><g><path d="M13.491,9.682c-0.173,0-0.348-0.064-0.535-0.197l-1.918-1.352c-0.146-0.101-0.461-0.103-0.606,0L8.514,9.485     c-0.4,0.284-0.807,0.243-1.018-0.041C7.358,9.256,7.334,9.005,7.429,8.699l0.692-2.242C8.176,6.278,8.084,5.992,7.933,5.88     L6.056,4.475C5.622,4.148,5.648,3.82,5.702,3.654c0.055-0.166,0.227-0.445,0.771-0.453l2.345-0.032     c0.187-0.005,0.429-0.181,0.489-0.357l0.758-2.22C10.241,0.076,10.56,0,10.735,0c0.176,0,0.495,0.076,0.67,0.592l0.758,2.22     c0.062,0.178,0.303,0.354,0.489,0.357l2.347,0.032c0.563,0.009,0.726,0.32,0.77,0.455c0.054,0.166,0.08,0.492-0.355,0.819     l-1.877,1.405c-0.148,0.111-0.242,0.397-0.188,0.578l0.693,2.239c0.096,0.306,0.071,0.558-0.066,0.746     C13.859,9.595,13.685,9.682,13.491,9.682z M7.165,4.128L8.499,5.13c0.469,0.354,0.691,1.044,0.52,1.604L8.516,8.357l1.375-0.99     c0.464-0.325,1.227-0.324,1.688,0l1.361,0.96l-0.488-1.594c-0.174-0.563,0.051-1.253,0.521-1.604l1.334-0.998l-1.666-0.028     c-0.59-0.009-1.176-0.435-1.365-0.992l-0.538-1.577l-0.542,1.577C10.006,3.67,9.42,4.094,8.831,4.103L7.165,4.128z"/></g><g><path d="M24.52,9.682c-0.172,0-0.348-0.064-0.536-0.197l-1.918-1.352c-0.144-0.101-0.46-0.103-0.606,0l-1.916,1.352     c-0.4,0.284-0.807,0.243-1.018-0.041c-0.139-0.188-0.162-0.439-0.066-0.745l0.691-2.242c0.055-0.179-0.038-0.465-0.188-0.577     l-1.879-1.404c-0.435-0.327-0.408-0.655-0.354-0.821s0.227-0.445,0.771-0.453l2.345-0.032c0.187-0.005,0.429-0.181,0.489-0.357     l0.759-2.22C21.27,0.076,21.588,0,21.765,0c0.174,0,0.493,0.076,0.67,0.592l0.757,2.22c0.061,0.178,0.305,0.354,0.49,0.357     l2.345,0.032c0.565,0.009,0.728,0.32,0.771,0.455c0.054,0.166,0.08,0.492-0.355,0.819l-1.876,1.405     c-0.149,0.111-0.244,0.397-0.188,0.578l0.693,2.239c0.096,0.306,0.071,0.558-0.066,0.746C24.889,9.595,24.713,9.682,24.52,9.682z      M18.192,4.128l1.334,1.002c0.471,0.354,0.693,1.044,0.52,1.604l-0.5,1.624l1.373-0.99c0.465-0.325,1.228-0.324,1.688,0     l1.361,0.96L23.48,6.733C23.306,6.171,23.531,5.48,24,5.13l1.334-0.998l-1.666-0.028c-0.59-0.009-1.176-0.435-1.365-0.992     l-0.537-1.577l-0.543,1.577c-0.189,0.559-0.776,0.983-1.365,0.992L18.192,4.128z"/></g><g><path d="M29.581,18.722c-0.174,0-0.349-0.065-0.537-0.199l-1.918-1.35c-0.145-0.103-0.461-0.103-0.605,0l-1.917,1.35     c-0.399,0.284-0.806,0.243-1.017-0.04c-0.14-0.188-0.162-0.439-0.068-0.746l0.691-2.239c0.056-0.181-0.037-0.467-0.188-0.578     l-1.877-1.406c-0.436-0.327-0.408-0.653-0.354-0.819c0.054-0.167,0.226-0.445,0.771-0.454l2.345-0.034     c0.186-0.002,0.43-0.179,0.489-0.355l0.758-2.221c0.177-0.516,0.495-0.591,0.671-0.591c0.174,0,0.494,0.075,0.67,0.592     l0.758,2.219c0.061,0.179,0.303,0.354,0.488,0.356l2.346,0.034c0.564,0.009,0.727,0.32,0.771,0.454     c0.054,0.166,0.08,0.494-0.354,0.819l-1.877,1.406c-0.149,0.111-0.244,0.398-0.188,0.578l0.692,2.239     c0.097,0.307,0.072,0.556-0.065,0.746C29.948,18.635,29.773,18.722,29.581,18.722z M23.252,13.166l1.334,1.003     c0.471,0.354,0.692,1.044,0.521,1.604l-0.502,1.626l1.375-0.991c0.464-0.326,1.228-0.325,1.687,0l1.362,0.96l-0.487-1.595     c-0.174-0.562,0.051-1.251,0.521-1.604l1.334-1l-1.666-0.026c-0.589-0.008-1.175-0.436-1.364-0.992l-0.539-1.576l-0.541,1.577     c-0.19,0.558-0.777,0.983-1.365,0.991L23.252,13.166z"/></g></g></g><text x="0" y="33.896" fill="#000000" font-size="5px" font-weight="bold" font-family="'Helvetica Neue', Helvetica, Arial-Unicode, Arial, Sans-serif">Created by Baboon designs</text><text x="0" y="38.896" fill="#000000" font-size="5px" font-weight="bold" font-family="'Helvetica Neue', Helvetica, Arial-Unicode, Arial, Sans-serif">from the Noun Project</text></svg>