<svg xmlns="http://www.w3.org/2000/svg" viewBox="0 0 48 60" x="0px" y="0px"><path fill="white" d="M32.2,14A1,1,0,0,0,32,12.59,13.74,13.74,0,0,0,24,10.11,13.86,13.86,0,1,0,35.79,16.6a1,1,0,0,0-1.7,1.06,11.88,11.88,0,1,1-3.28-3.43A1,1,0,0,0,32.2,14Z"/><path fill="white" d="M29.71,31l.19,0a1,1,0,0,0,1-.81A4.94,4.94,0,0,0,31,29.13a6.1,6.1,0,0,0-3.82-5.46,4.5,4.5,0,1,0-6.36,0A6.12,6.12,0,0,0,17,29.13a5.68,5.68,0,0,0,.11,1.05,1,1,0,1,0,2-.38,3.39,3.39,0,0,1-.07-.67C19,26.85,21.23,25,24,25s5,1.86,5,4.14a3.39,3.39,0,0,1-.07.67A1,1,0,0,0,29.71,31ZM21.49,20.49A2.5,2.5,0,1,1,24,23,2.5,2.5,0,0,1,21.49,20.49Z"/></svg>