<svg xmlns="http://www.w3.org/2000/svg" version="1.1" viewBox="-5.0 -10.0 110.0 135.0">
 <path fill="white" d="m58.414 72.074c0.20703-0.027344 0.4375-0.046875 0.67969-0.058594 0.55078-0.15234 1.0508-0.45703 1.4336-0.88281 1.3125-1.2188 1.4805-3.2344 0.38672-4.6523-0.53516-0.62109-1.2891-1.0078-2.1055-1.082-10.055-0.89063-13.035-2.0859-15.926-3.2461-5.6641-2.2734-8.8398-2.4844-14.945-1.4766v0.003907c-0.09375 0.015624-0.19141 0.015624-0.28516 0.007812-2.6797-0.25781-10.855 5.9375-16.211 10-1.5312 1.1641-2.8398 2.1602-3.7812 2.8125l12.527 19.184c0.35156 0.53906-0.33203-0.84766-0.074219-1.0156 1.0898-0.71094 2.7656-1.9375 4.6211-3.3008 3.6367-2.6641 7.9531-5.8203 10.348-6.8984 0.12891-0.0625 0.26562-0.10156 0.40625-0.11328 6.0234-0.47656 11.508-0.48828 16.867-0.5 3.1992-0.007813 6.3516-0.015625 9.582-0.125 1.2695-0.11328 2.8828-1.2461 4.0234-1.8008l20.898-10.211 0.003906 0.003906c0.67188-0.41797 1.1367-1.1016 1.2734-1.8828s-0.066407-1.582-0.55859-2.2031c-1.1055-1.3047-2.9883-1.6406-4.4766-0.79297l-20.902 10.207c-0.63672 0.14844-1.2891 0.20312-1.9414 0.16016-0.16406 0-0.32812-0.027344-0.48437-0.074219-0.51563 0.14453-1.0547 0.19531-1.5898 0.15234l-14.621-1.1016h0.003906c-0.078125-0.003906-0.15234-0.019531-0.22656-0.039062-1.8125-0.44922-4.6016 0.85156-6.6797 1.1836-0.60547 0.097657-1.1719-0.31641-1.2695-0.92188-0.097656-0.60547 0.31641-1.1719 0.92188-1.2695 0.75781-0.14453 1.5039-0.33203 2.2422-0.56641 1.6641-0.64453 3.4688-0.85156 5.2383-0.59766l14.617 1.1016zm-2.2773-38.426-1.2891-1.8984-4.6016 5.8984 7.1797-2.1172-1.2852-1.8906zm1.2109-2.1719 28.32-19.285-0.89844-1.3125-28.316 19.285 0.89453 1.3164zm30.781-19.621 1.5234 2.2344 1.9336-1.3164c1.2344-0.83984 1.5547-2.5195 0.71484-3.7539-0.83984-1.2344-2.5195-1.5547-3.7539-0.71484l-1.9375 1.3203zm-1.2109 2.1719 0.89844 1.3164-28.316 19.285-0.89844-1.3125zm-27.441 23.227c0.125-0.035156 0.24609-0.085937 0.35156-0.16016l4.6055-3.1367 0.003906-0.003906c0.62891 5.3984-2.5703 10.508-7.6992 12.301-5.1289 1.7891-10.816-0.21875-13.68-4.8359-2.8672-4.6172-2.1406-10.605 1.7383-14.406 3.8828-3.8008 9.8828-4.3984 14.438-1.4375l-4.957 3.375c-0.11328 0.078125-0.21094 0.17578-0.28906 0.28906l-7.6211 9.7812c-0.29688 0.37891-0.3125 0.91016-0.042969 1.3086 0.27344 0.39844 0.76953 0.57422 1.2305 0.44141l11.918-3.5156zm1.7227-13.016c-5.3359-4-12.766-3.6211-17.668 0.90234-4.8984 4.5234-5.875 11.898-2.3125 17.539 3.5586 5.6406 10.637 7.9336 16.828 5.457 6.1914-2.4805 9.7305-9.0234 8.4141-15.562l3.6484-2.4844c0.35547 0.63672 1.0312 1.0312 1.7578 1.0273h4.3477v8.3633h-4.3438c-0.875-0.003907-1.6523 0.56641-1.9219 1.4023-0.28516 0.86719-0.63672 1.7109-1.0508 2.5234-0.39453 0.78125-0.24609 1.7266 0.37109 2.3438l3.0742 3.0742-5.9141 5.9141-3.0742-3.0742 0.003906-0.003906c-0.61719-0.61328-1.5625-0.76562-2.3398-0.37109-0.81641 0.41406-1.6641 0.76563-2.5352 1.0508-0.83203 0.26562-1.4023 1.043-1.3984 1.9219v4.3477h-8.3555v-4.3477c0-0.87891-0.56641-1.6562-1.4023-1.9219-0.86719-0.28516-1.7148-0.63672-2.5273-1.0508-0.78125-0.39453-1.7227-0.24219-2.3398 0.375l-3.0742 3.0742-5.9141-5.9141 3.0742-3.0742v0.003906c0.61719-0.62109 0.76562-1.5664 0.375-2.3438-0.41797-0.81641-0.76562-1.6602-1.0508-2.5312-0.26562-0.83594-1.043-1.4023-1.9219-1.3984h-4.3477v-8.3633h4.3477c0.875 0.003906 1.6523-0.5625 1.918-1.3984 0.28516-0.86719 0.63672-1.7148 1.0508-2.5312 0.39453-0.77734 0.24609-1.7227-0.37109-2.3398l-3.0742-3.0742 5.9141-5.9141 3.0742 3.0742h-0.003907c0.61719 0.61719 1.5625 0.76562 2.3438 0.37109 0.81641-0.41406 1.6602-0.76563 2.5312-1.0469 0.83594-0.26953 1.4023-1.0469 1.3984-1.9219v-4.3438h8.3633v4.3477c-0.003906 0.875 0.5625 1.6523 1.3984 1.9219 0.87109 0.28516 1.7148 0.63281 2.5312 1.0469 0.78125 0.39453 1.7266 0.24609 2.3438-0.37109l3.0742-3.0742 2.8594 2.8594zm9.9688-6.7891 16.125-10.98c1.0781-0.75781 2.418-1.0469 3.7109-0.8125 1.2969 0.23828 2.4453 0.98438 3.1875 2.0742 0.74219 1.0859 1.0156 2.4297 0.76172 3.7227s-1.0156 2.4297-2.1133 3.1562l-20.852 14.199 0.027344 0.078125h4.4062l0.003906 0.003906c1.1133 0.003906 2.0195 0.90625 2.0195 2.0195v8.7773c0 0.53516-0.21484 1.0469-0.59375 1.4258-0.37891 0.37891-0.89453 0.59375-1.4297 0.59375h-4.4023c-0.29688 0.87891-0.65234 1.7383-1.0664 2.5664l3.1172 3.125c0.37891 0.37891 0.59375 0.89453 0.59375 1.4297s-0.21484 1.0508-0.59375 1.4297l-6.1992 6.1992c-0.37891 0.37891-0.89453 0.59375-1.4297 0.59375s-1.0508-0.21484-1.4297-0.59375l-3.1172-3.1172c-0.82812 0.41406-1.6875 0.77344-2.5703 1.0664v4.4062c0 0.53906-0.21094 1.0508-0.59375 1.4336-0.37891 0.37891-0.89453 0.58984-1.4297 0.58984h-8.7773c-0.53516 0-1.0508-0.21484-1.4258-0.59375-0.37891-0.37891-0.59375-0.89453-0.59375-1.4297v-4.4062c-0.87891-0.29297-1.7383-0.64844-2.5703-1.0664l-3.1172 3.1172v0.003907c-0.78906 0.78516-2.0664 0.78516-2.8594 0l-6.1992-6.1992v-0.003907c-0.78906-0.78906-0.78906-2.0703 0-2.8594l3.1172-3.1172c-0.41797-0.83203-0.77734-1.6914-1.0742-2.5703h-4.4023c-1.1133-0.003907-2.0195-0.90625-2.0195-2.0234v-8.7734c0-0.53516 0.21484-1.0508 0.59375-1.4297s0.89453-0.59375 1.4297-0.58984h4.3984c0.29297-0.88281 0.65234-1.7383 1.0664-2.5703l-3.1133-3.125c-0.37891-0.37891-0.59375-0.89062-0.59375-1.4258 0-0.53906 0.21484-1.0508 0.59375-1.4297l6.1992-6.1992c0.37891-0.38281 0.89062-0.59375 1.4258-0.59375 0.53906 0 1.0508 0.21094 1.4297 0.59375l3.1172 3.1172c0.83203-0.41797 1.6914-0.77344 2.5742-1.0703v-4.4062c0-1.1172 0.90625-2.0195 2.0234-2.0195h8.7773c1.1133 0 2.0195 0.90625 2.0195 2.0195v4.4062c0.88281 0.29688 1.7422 0.65234 2.5703 1.0664l3.1172-3.1172c0.79297-0.78516 2.0703-0.78516 2.8594 0l3.3047 3.3086zm7.2344 46.211 3.7266-1.8203c1.1875-0.60156 2.5352-0.80469 3.8438-0.57812 1.6836 0.31641 3.1289 1.3867 3.9297 2.8984 1.1719 2.3906 0.26172 5.2773-2.0625 6.5625l-20.898 10.211c-1.6094 0.78516-2.7344 1.7305-4.7344 2.0078-0.76953 0.10547-8.4883 0.13281-9.8438 0.13672-5.2148 0.011719-10.547 0.023437-16.5 0.48828-2.2148 1.0391-6.332 4.0547-9.8125 6.6016-1.8672 1.3672-3.5508 2.6016-4.7266 3.3672-1.4141 0.92578-2.4688 1.1758-3 0.36328l-13.133-20.121c-0.17188-0.26562-0.22266-0.58984-0.14453-0.89453 0.082031-0.30078 0.28906-0.55859 0.57031-0.69922 0.71484-0.39844 2.3867-1.6641 4.4883-3.2578 5.543-4.207 13.961-10.59 17.594-10.457 1.9336-0.34766 3.8945-0.54297 5.8594-0.58203 3.5 0.023437 6.957 0.77734 10.152 2.207 2.7188 1.0898 5.5156 2.2148 15.117 3.0742l12.746-7.5156c2.4883-1.5781 5.7812-0.875 7.4062 1.582 1.2891 2.0234 1.0547 4.6602-0.57031 6.4258zm-16.816 0.46484 11.113-6.5547c0.73438-0.44531 1.6055-0.60937 2.4492-0.46484 1.1875 0.24219 2.1094 1.168 2.3555 2.3516 0.24609 1.1836-0.23828 2.3984-1.2266 3.0938l-12.848 8.1016c1.0312-2.3359 0.26172-5.0781-1.8398-6.5312z" fill-rule="evenodd"/>
</svg>