<svg xmlns="http://www.w3.org/2000/svg" version="1.1" viewBox="-5.0 -10.0 110.0 135.0">
 <path fill="white" d="m15.625 46.875h-9.375c-1.7266 0-3.125 1.3984-3.125 3.125v43.75c0 1.7266 1.3984 3.125 3.125 3.125h87.5c1.7266 0 3.125-1.3984 3.125-3.125v-12.5c0-1.7266-1.3984-3.125-3.125-3.125h-28.125v-12.5c0-1.7266-1.3984-3.125-3.125-3.125h-25v-12.5c0-1.7266-1.3984-3.125-3.125-3.125h-12.5v-40.625c0-1.7266-1.3984-3.125-3.125-3.125s-3.125 1.3984-3.125 3.125zm-6.25 6.25h21.875v12.5c0 1.7266 1.3984 3.125 3.125 3.125h25v12.5c0 1.7266 1.3984 3.125 3.125 3.125h28.125v6.25h-81.25zm15.625-45.359c3.7422-0.10547 7.3398 0.875 10.855 1.9141 4.2539 1.2578 8.3398 2.793 12.473 0.17969 0.96094-0.60938 2.1797-0.64844 3.1797-0.097656s1.6172 1.5977 1.6172 2.7383v21.875c0 1.0781-0.55469 2.082-1.4727 2.6523-5.9922 3.7344-11.719 2.3047-17.656 0.5-2.8984-0.88281-5.8633-1.8828-8.9961-1.6992v-6.2305c3.7422-0.11719 7.3164 0.88672 10.816 1.9492 3.7266 1.1328 7.3359 2.4727 11.059 0.9375v-15.352c-4.2188 0.91406-8.4453-0.16797-12.793-1.457-2.9297-0.86719-5.9375-1.8633-9.082-1.6875z" fill-rule="evenodd"/>
</svg>