<svg xmlns="http://www.w3.org/2000/svg" viewBox="0 0 32 40" x="0px" y="0px"><path fill="white" d="M16,30c-7.72,0-14-6.28-14-14S8.28,2,16,2s14,6.28,14,14-6.28,14-14,14Zm0-26c-6.62,0-12,5.38-12,12s5.38,12,12,12,12-5.38,12-12-5.38-12-12-12Z"/><circle fill="white" cx="16" cy="25" r="1"/><path fill="white" d="M15.02,21.21c-2.42-11.31-3.07-12.23-1.69-13.94,1.37-1.7,3.96-1.7,5.33,0s.81,2.27-1.69,13.94c-.23,1.05-1.73,1.05-1.96,0Zm-.13-12.68c-.57,.71-.4,.67,1.11,7.7,1.49-6.98,1.68-6.99,1.11-7.7-.57-.7-1.64-.71-2.22,0Z"/></svg>