<?xml version="1.0" encoding="utf-8"?>
<!-- Svg Vector Icons : http://www.onlinewebfonts.com/icon -->
<!DOCTYPE svg PUBLIC "-//W3C//DTD SVG 1.1//EN" "http://www.w3.org/Graphics/SVG/1.1/DTD/svg11.dtd">
<svg version="1.1" xmlns="http://www.w3.org/2000/svg" xmlns:xlink="http://www.w3.org/1999/xlink" x="0px" y="0px" viewBox="0 0 256 256" enable-background="new 0 0 256 256" xml:space="preserve">
<metadata> Svg Vector Icons : http://www.onlinewebfonts.com/icon </metadata>
<g><g><path fill="white" d="M127.7,246c-22.5,0-45.1,0.1-67.6,0c-13.1-0.1-24.5-4.2-32.7-14.9c-4.7-6.1-7-13.2-7.3-20.8c-0.7-20.6,1.3-40.9,9.2-60.1c5.9-14.3,14.9-25.9,30.8-30.2c7.9-2.2,15.1-2.2,22.2,3.3c9.4,7.3,20.1,12.3,31.8,14.9c17.3,3.8,33.5,0.3,48.9-8c4.5-2.4,8.9-5.1,12.9-8.2c4.8-3.7,10-3.9,15.6-2.9c14.9,2.6,24.9,11.3,31.9,24.3c7.6,14.1,10.6,29.5,11.9,45.3c0.6,7.6,1.2,15.2,0.5,22.8c-2,21.5-17.3,34.7-39.7,34.8C173.3,246,150.5,246,127.7,246z"/><path fill="white" d="M186.9,68.8c0.2,32.7-26,59-58.8,59.1c-32.6,0.2-58.9-26-59.1-58.8C68.9,36.4,94.9,10.2,127.8,10C160.4,9.8,186.7,36,186.9,68.8z"/></g></g>
</svg>