<svg xmlns="http://www.w3.org/2000/svg" xmlns:xlink="http://www.w3.org/1999/xlink" version="1.1" x="0px" y="0px" viewBox="0 0 100 125" style="enable-background:new 0 0 100 100;" xml:space="preserve"><path fill="white" d="M50,24.29c-14.18,0-25.71,11.54-25.71,25.71S35.82,75.71,50,75.71S75.71,64.18,75.71,50S64.18,24.29,50,24.29z M51.16,39.33  c3.05-0.07,6.03-0.44,8.8-1.05c0.93,3.15,1.5,6.75,1.6,10.56h-10.4V39.33z M51.16,37.01V26.73c3.25,0.69,6.16,4.24,8.06,9.33  C56.69,36.62,53.96,36.94,51.16,37.01z M48.84,26.73v10.28c-2.8-0.07-5.53-0.39-8.06-0.94C42.68,30.97,45.59,27.42,48.84,26.73z   M48.84,39.33v9.5h-10.4c0.1-3.81,0.67-7.41,1.6-10.56C42.81,38.9,45.78,39.26,48.84,39.33z M36.11,48.84h-9.47  c0.25-5.1,2.14-9.78,5.16-13.51c1.77,0.95,3.79,1.75,5.97,2.38C36.78,41.1,36.21,44.89,36.11,48.84z M36.11,51.16  c0.09,3.95,0.66,7.74,1.66,11.14c-2.18,0.63-4.2,1.43-5.97,2.38c-3.02-3.73-4.91-8.41-5.16-13.51H36.11z M38.44,51.16h10.4v9.5  c-3.05,0.07-6.03,0.44-8.8,1.05C39.11,58.57,38.54,54.97,38.44,51.16z M48.84,62.99v10.28c-3.25-0.69-6.16-4.24-8.06-9.33  C43.31,63.38,46.04,63.06,48.84,62.99z M51.16,73.27V62.99c2.8,0.07,5.53,0.39,8.06,0.94C57.32,69.03,54.41,72.58,51.16,73.27z   M51.16,60.67v-9.5h10.4c-0.1,3.81-0.67,7.41-1.6,10.56C57.19,61.1,54.22,60.74,51.16,60.67z M63.89,51.16h9.47  c-0.25,5.1-2.14,9.78-5.16,13.51c-1.77-0.95-3.79-1.75-5.97-2.38C63.22,58.9,63.79,55.11,63.89,51.16z M63.89,48.84  c-0.09-3.95-0.66-7.74-1.66-11.14c2.18-0.63,4.2-1.43,5.97-2.38c3.02,3.73,4.91,8.41,5.16,13.51H63.89z M66.6,33.54  c-1.53,0.77-3.24,1.43-5.09,1.96c-0.44-1.19-0.93-2.32-1.47-3.38c-0.92-1.77-1.95-3.26-3.08-4.45  C60.65,28.82,63.94,30.86,66.6,33.54z M43.04,27.67c-1.12,1.19-2.16,2.68-3.08,4.45c-0.55,1.05-1.04,2.19-1.47,3.38  c-1.85-0.53-3.57-1.18-5.09-1.96C36.06,30.86,39.35,28.82,43.04,27.67z M33.4,66.46c1.53-0.77,3.24-1.43,5.09-1.96  c0.44,1.19,0.93,2.32,1.47,3.38c0.92,1.77,1.95,3.26,3.08,4.45C39.35,71.18,36.06,69.14,33.4,66.46z M56.96,72.33  c1.12-1.19,2.16-2.68,3.08-4.45c0.55-1.05,1.04-2.19,1.47-3.38c1.85,0.53,3.57,1.18,5.09,1.96C63.94,69.14,60.65,71.18,56.96,72.33z   M43.24,11.25c-0.45-0.45-0.45-1.19,0-1.64l5.94-5.94C49.4,3.45,49.69,3.33,50,3.33s0.6,0.12,0.82,0.34l5.94,5.94  c0.45,0.45,0.45,1.19,0,1.64c-0.23,0.23-0.52,0.34-0.82,0.34c-0.3,0-0.59-0.11-0.82-0.34L51.16,7.3v11.93  c0,0.64-0.52,1.16-1.16,1.16s-1.16-0.52-1.16-1.16V7.3l-3.96,3.96C44.43,11.71,43.69,11.71,43.24,11.25z M70.94,29.06  c-0.45-0.45-0.45-1.19,0-1.64l8.44-8.44h-5.6c-0.64,0-1.16-0.52-1.16-1.16s0.52-1.16,1.16-1.16h8.4c0.64,0,1.16,0.52,1.16,1.16v8.4  c0,0.64-0.52,1.16-1.16,1.16c-0.64,0-1.16-0.52-1.16-1.16v-5.6l-8.44,8.44c-0.23,0.23-0.52,0.34-0.82,0.34  C71.46,29.4,71.17,29.29,70.94,29.06z M96.33,50.82l-5.94,5.94c-0.23,0.23-0.52,0.34-0.82,0.34s-0.59-0.11-0.82-0.34  c-0.45-0.45-0.45-1.19,0-1.64l3.96-3.96H80.77c-0.64,0-1.16-0.52-1.16-1.16s0.52-1.16,1.16-1.16H92.7l-3.96-3.96  c-0.45-0.45-0.45-1.19,0-1.64c0.45-0.45,1.19-0.45,1.64,0l5.94,5.94C96.78,49.63,96.78,50.37,96.33,50.82z M83.34,73.78v8.4  c0,0.64-0.52,1.16-1.16,1.16h-8.4c-0.64,0-1.16-0.52-1.16-1.16c0-0.64,0.52-1.16,1.16-1.16h5.6l-8.44-8.44  c-0.45-0.45-0.45-1.19,0-1.64c0.45-0.45,1.19-0.45,1.64,0l8.44,8.44v-5.6c0-0.64,0.52-1.16,1.16-1.16  C82.82,72.61,83.34,73.13,83.34,73.78z M56.76,88.75c0.45,0.45,0.45,1.19,0,1.64l-5.94,5.94c-0.22,0.22-0.51,0.34-0.82,0.34  s-0.6-0.12-0.82-0.34l-5.94-5.94c-0.45-0.45-0.45-1.19,0-1.64c0.45-0.45,1.19-0.45,1.64,0l3.96,3.96V80.77  c0-0.64,0.52-1.16,1.16-1.16s1.16,0.52,1.16,1.16V92.7l3.96-3.96C55.57,88.29,56.31,88.29,56.76,88.75z M29.06,70.94  c0.45,0.45,0.45,1.19,0,1.64l-8.44,8.44h5.6c0.64,0,1.16,0.52,1.16,1.16c0,0.64-0.52,1.16-1.16,1.16h-8.4  c-0.64,0-1.16-0.52-1.16-1.16v-8.4c0-0.64,0.52-1.16,1.16-1.16c0.64,0,1.16,0.52,1.16,1.16v5.6l8.44-8.44  C27.87,70.48,28.61,70.48,29.06,70.94z M11.25,55.12c0.45,0.45,0.45,1.19,0,1.64c-0.23,0.23-0.52,0.34-0.82,0.34  c-0.3,0-0.59-0.11-0.82-0.34l-5.94-5.94c-0.45-0.45-0.45-1.19,0-1.64l5.94-5.94c0.45-0.45,1.19-0.45,1.64,0  c0.45,0.45,0.45,1.19,0,1.64L7.3,48.84h11.93c0.64,0,1.16,0.52,1.16,1.16s-0.52,1.16-1.16,1.16H7.3L11.25,55.12z M16.66,26.22v-8.4  c0-0.64,0.52-1.16,1.16-1.16h8.4c0.64,0,1.16,0.52,1.16,1.16s-0.52,1.16-1.16,1.16h-5.6l8.44,8.44c0.45,0.45,0.45,1.19,0,1.64  c-0.23,0.23-0.52,0.34-0.82,0.34c-0.3,0-0.59-0.11-0.82-0.34l-8.44-8.44v5.6c0,0.64-0.52,1.16-1.16,1.16  C17.18,27.39,16.66,26.87,16.66,26.22z"/></svg>