<svg xmlns="http://www.w3.org/2000/svg" xmlns:xlink="http://www.w3.org/1999/xlink" version="1.1" x="0px" y="0px" viewBox="0 0 512 640" style="enable-background:new 0 0 512 512;" xml:space="preserve"><path fill="white" d="M294.3,44.7c20.1,0,30.3,24.5,16,38.7c-14.3,14.3-38.7,4.1-38.7-16C271.6,54.9,281.8,44.7,294.3,44.7L294.3,44.7z   M300.5,61.3c-5.4-5.4-14.8-1.6-14.8,6.2c0,7.7,9.4,11.6,14.8,6.1C303.9,70.2,303.9,64.7,300.5,61.3L300.5,61.3z M294.3,23.9  c30.3,0,58.5,15,75.4,39.6c1.7,2.5,1.6,5.8-0.1,8.1c-8.4,12.1-19.7,22.1-32.8,29c-41.1,21.5-91.7,8.9-117.9-29.1  c-1.7-2.5-1.6-5.8,0.1-8.1c8.4-12.1,19.7-22.1,32.8-29C264.6,27.7,279,23.9,294.3,23.9L294.3,23.9z M330.4,46.7  c-33.1-17.3-73.9-8.6-97.1,20.7c31.1,39.4,90.9,39.4,122,0C348.6,58.9,340.1,51.8,330.4,46.7L330.4,46.7z M63.2,369.3l38.3-22.1  c3.4-2,7.7-0.8,9.8,2.9l4,6.8l56.4-32.5c1.1-0.7,2.3-0.9,3.5-0.9v0h63v-11.1c0-14,11.4-25.4,25.3-25.4h8.4V178.4  c-5.5-4.6-9.5-10.9-11.3-18.1h-61.7c1.2,1.4,45,71.2,50.5,79.7c1.5,2.2,1.6,5.2,0.1,7.6l-18.8,29.7c-1.2,2.2-3.5,3.7-6.2,3.7h-61.8  v0c-2.3,0-4.6-1.2-5.9-3.3l-19-30c-1.5-2.2-1.6-5.2-0.1-7.6l50.6-79.9h-7.7c-4.9,0.4-9.7-0.6-13.9-2.9c-19.1-10.3-19.1-39.5,0-49.8  c4.4-2.4,9.4-3.4,14.4-2.8c3.8,0.4,6.6,3.9,6.2,7.7c-0.4,3.9-3.9,6.6-7.7,6.2c-10.1-1.1-16.8,11.8-11.3,21.4c2.2,3.9,6.6,6.8,11,6.3  l80.6-0.1c4.5-27.8,38.8-39.1,58.9-19c5.1,5,8.6,11.7,9.8,19h79.5c2.5,0,3.9,0.5,7-1.2c9.3-5,9.3-20.2,0-25.2  c-1.9-1-4.1-1.5-6.3-1.2c-3.8,0.4-7.3-2.3-7.7-6.2c-0.4-3.8,2.4-7.3,6.2-7.7c21.4-2.4,36.2,22.6,25,42.2c-2.6,4.6-6.3,8.1-10.5,10.4  c-4.2,2.2-9,3.3-13.9,2.9h-7.7c1.2,1.4,45,71.2,50.5,79.7c1.5,2.2,1.6,5.2,0.1,7.6l-18.8,29.7c-1.2,2.2-3.5,3.7-6.2,3.7h-61.8v0  c-2.3,0-4.6-1.2-5.9-3.3l-19-30c-1.5-2.2-1.6-5.2-0.1-7.6l50.6-79.9H328c-1.8,7.1-5.8,13.4-11.2,18.1v108.5h8.4  c13.9,0,25.3,11.4,25.3,25.4v11.3c9.5,0.2,18.1,5.4,22.8,13.3l29.2-16.8h0c23.4-13.5,52.4,7.7,45.4,33.7c-2,7.5-6.8,14.4-13.5,19.5  l-86,66.2c-1.3,1-2.8,1.5-4.3,1.5l0,0H181l-12.9,7.5l3.9,6.8c1.9,3.3,0.8,7.6-2.6,9.5l-38.3,22.1c-3.3,1.9-7.6,0.8-9.5-2.6h0  L60.7,378.8C58.7,375.5,59.9,371.2,63.2,369.3L63.2,369.3z M102.5,362.8l-26.2,15.1l53.9,93.4l26.2-15.1l-3.9-6.8v0L102.5,362.8z   M305.3,362c4.3-10.8-3.4-24.6-16.9-24.6H177l-54.7,31.6l38.9,67.4l14-8.1c1.2-0.8,2.6-1.3,4.1-1.3h162.5l84.1-64.7  c14.5-11.2,10.2-28.2-3.3-31.8c-4.3-1.1-8.9-0.7-13,1.7l0,0l-35.6,20.6c-0.3,0.2-0.7,0.4-1,0.6l-30.5,17.6c-1.1,0.8-2.5,1.3-4.1,1.3  h-22.5c-5.8,9.4-16,15.4-27.4,15.4h-60.9c-3.9,0-7-3.1-7-7c0-3.9,3.1-7,7-7h60.9C296,373.6,302.7,368.9,305.3,362L305.3,362z   M252.1,323.4h36.3c1.2,0,2.4,0.1,3.5,0.2h44.6v-11.3c0-6.2-5.1-11.4-11.3-11.4h-61.7c-6.2,0-11.3,5.1-11.3,11.4V323.4z M315,337.6  c4,6,6,13.2,5.4,20.6h16.1l24.7-14.3c-2.4-3.8-6.6-6.3-11.3-6.3H315z M231,237.2c-0.9,0.4-1.9,0.6-2.9,0.6h-69c-1,0-2-0.2-2.9-0.6  l-4.3,6.7l14.7,23.2h54.1l14.7-23.2L231,237.2z M164.7,223.8h57.9l-29-45.8L164.7,223.8z M294.3,131.1c-18.5,0-27.7,22.4-14.7,35.4  c13,13,35.4,3.8,35.4-14.7C315.1,140.4,305.8,131.1,294.3,131.1L294.3,131.1z M302.8,185.6c-5.6,1.4-11.4,1.4-17,0v101.3h17V185.6z   M432.5,237.2c-0.9,0.4-1.9,0.6-2.9,0.6h-69c-1,0-2-0.2-2.9-0.6l-4.3,6.7l14.7,23.2h54.1l14.7-23.2L432.5,237.2z M366.1,223.8h58  L395,178L366.1,223.8z"/></svg>