<svg xmlns="http://www.w3.org/2000/svg" xmlns:xlink="http://www.w3.org/1999/xlink" version="1.1" x="0px" y="0px" viewBox="0 0 67 83.75" enable-background="new 0 0 67 67" xml:space="preserve"><g><g><path fill="white" d="M45.00891,49.41267c-1.64844,0-2.98926,1.34082-2.98926,2.98926s1.34082,2.98926,2.98926,2.98926    s2.98926-1.34082,2.98926-2.98926S46.65735,49.41267,45.00891,49.41267z M45.25415,54.39851v0.41962h-0.37292v-0.42554    c-0.53271-0.05432-1.01099-0.26617-1.43408-0.63525l0.42554-0.50714c0.32642,0.28369,0.66235,0.45258,1.00854,0.50714v-1.13098    c-0.76245-0.18201-1.27087-0.43195-1.27087-1.17462c0-0.71039,0.5553-1.1377,1.27087-1.17462V49.865h0.37292v0.41779    c0.42737,0.03131,0.83167,0.177,1.21252,0.43744l-0.37903,0.53632c-0.25659-0.18268-0.53406-0.29535-0.8335-0.33826v1.09589    c0.1355,0.08881,1.3175,0.12805,1.3175,1.2038C46.57166,53.95332,45.98279,54.36274,45.25415,54.39851z"/><path fill="white" d="M45.25415,52.72554v1.04913c0.31165-0.0321,0.60632-0.18799,0.60632-0.50122    C45.86047,52.93708,45.60461,52.83082,45.25415,52.72554z"/><path fill="white" d="M44.32141,51.38179c0,0.32062,0.23145,0.42194,0.55981,0.52753v-1.00861    C44.58362,50.92732,44.32141,51.08302,44.32141,51.38179z"/><path fill="white" d="M53.2843,45.22322H36.73645c-0.43262,2.81738-2.66504,5.05078-5.48242,5.4834v3.39844    c2.81738,0.43262,5.04883,2.66211,5.48242,5.47559H53.2843c0.43359-2.81348,2.66504-5.04297,5.48242-5.47559v-3.39844    C55.94934,50.274,53.71692,48.0406,53.2843,45.22322z M52.24036,53.40193h-2.34326    c-0.4646,2.27344-2.47961,3.98926-4.88818,3.98926s-4.42358-1.71582-4.88818-3.98926h-2.34229v-2h2.34229    c0.4646-2.27344,2.47961-3.98926,4.88818-3.98926s4.42358,1.71582,4.88818,3.98926h2.34326V53.40193z"/><path fill="white" d="M25.23499,39.21595v26.37h39.55005v-26.37H25.23499z M60.76672,56.02888h-1c-2.51367,0-4.55859,2.04199-4.55859,4.55176v1    H34.81262v-1c0-2.50977-2.04492-4.55176-4.55859-4.55176h-1v-7.24609h1c2.51367,0,4.55859-2.04492,4.55859-4.55957v-1h20.39551v1    c0,2.51465,2.04492,4.55957,4.55859,4.55957h1V56.02888z"/></g><g><rect fill="white" x="2.78821" y="52.60309" width="17.83398" height="4.42969"/><rect x="2.78821" y="59.13141" width="17.83594" height="4.42969"/></g><g><path fill="white" d="M10.31555,41.16719c0,0.64771,0.46729,0.85248,1.13086,1.06573v-2.03754    C10.84534,40.24916,10.31555,40.56373,10.31555,41.16719z"/><path fill="white" d="M12.19983,43.88179v2.11951c0.62939-0.06488,1.22473-0.37976,1.22473-1.01257    C13.42456,44.30928,12.90784,44.09449,12.19983,43.88179z"/><path fill="white" d="M11.70496,33.60597c-5.23999,0-9.48999,4.26001-9.48999,9.5c0,5.22998,4.25,9.5,9.48999,9.5    c5.22998,0,9.5-4.27002,9.5-9.5C21.20496,37.86598,16.93494,33.60597,11.70496,33.60597z M12.19983,47.26155v0.84772h-0.75342    v-0.85968c-1.07617-0.10974-2.04224-0.53766-2.89709-1.28326l0.85962-1.02454c0.6593,0.57312,1.33801,0.91431,2.03748,1.02454    v-2.28479c-1.54041-0.36768-2.56738-0.87268-2.56738-2.37299c0-1.43506,1.12183-2.2984,2.56738-2.37292V38.1031h0.75342v0.84399    c0.86353,0.06323,1.67993,0.35748,2.44958,0.88361l-0.76575,1.0835c-0.51855-0.36902-1.0791-0.59662-1.68384-0.68335v2.21387    h0.0354c1.51196,0.35553,2.62598,0.87939,2.62598,2.43188C14.86121,46.36219,13.67151,47.18934,12.19983,47.26155z"/></g><g><path fill="white" d="M51.77502,18.14595v10.28003c0,4.23999-9.67004,6.46997-19.22998,6.46997c-9.57007,0-19.26001-2.22998-19.26001-6.46997    V18.27595c6.35986,2.55005,10.5,4.22003,13.20996,5.31c5.12,2.06,5.45996,2.20001,5.98999,2.21002l0.04004,0.01001h0.13989    c0.54004,0,0.54004,0,11.65002-4.59003L51.77502,18.14595z"/></g><path fill="white" d="M60.92493,33.00599c0,1.51996-1.21997,2.75-2.71997,2.75c-1.54004,0-2.75-1.21002-2.75-2.75   c0-0.22022-0.00356-0.0538,1.10999-5.11999c-0.62-0.49005-1.00989-1.24005-1.00989-2.07001   c0-1.10004,0.67993-2.04004,1.63989-2.42999v-9.64001C31.485,24.3394,32.88359,23.79597,32.60498,23.79597   c-0.01001,0-0.01001,0-0.01001,0c-0.38513,0,0.61622,0.29476-27.31995-10.89001c-0.79424-0.31763-0.8838-1.53838,0.03992-1.87   C34.00862,0.88024,32.30716,1.39887,32.60498,1.42598c0.33028,0-1.41719-0.55887,26.57996,9.62   c0.81663,0.30089,0.90579,1.47659,0.03003,1.85999l-0.02002,0.01001V23.386c0.94995,0.38995,1.63,1.32996,1.63,2.42999   c0,0.82996-0.38,1.57996-1,2.07001C60.98484,33.21105,60.92493,32.77625,60.92493,33.00599z"/></g></svg>