<svg xmlns="http://www.w3.org/2000/svg" xmlns:xlink="http://www.w3.org/1999/xlink" version="1.1" x="0px" y="0px" viewBox="0 0 512 640" style="enable-background:new 0 0 512 512;" xml:space="preserve"><path fill="white" d="M254.1,381.8v28.5c19.8,4.6,27,29.4,12.5,43.9c-16.4,16.4-44.6,4.7-44.6-18.5c0-12.2,8.5-22.7,20.2-25.4v-28.5  c-7.6,0-12.7,0.8-18.9-5.2c-5.4-5.3-7.5-12.4-10.3-19.8h-8.8c-8.9,0-16.6-5.8-19.2-14h-21.6l-16,31.4c11.7,9.9,12.4,27.6,1.6,38.4  c-16.4,16.4-44.6,4.7-44.6-18.5c0-17,16-29.4,32.4-25.4l17.5-34.1c0.9-2.2,3-3.8,5.6-3.8h24.5c0.7-4.3,2.7-8.2,5.6-11.1  c-2.6-2.6-4.5-5.9-5.3-9.6h-65.4c-4.6,19.8-29.4,27-43.9,12.5c-16.4-16.4-4.7-44.6,18.5-44.6c12.2,0,22.7,8.5,25.5,20.1h65.4  c1.6-6.7,6.5-12.2,12.9-14.4c-4.9-4.4-9.2-9.4-12.9-14.9h-58.3c-3.3,0-6-2.7-6-6v-49.9c0-3.3,2.7-6,6-6h14.3V128c0-3.3,2.7-6,6-6  h41.8c3.3,0,6,2.7,6,6v44.5c7.5-7.5,16.7-13.4,26.8-17.3V91.1c0-3.3,2.7-6,6-6H269c3.3,0,6,2.7,6,6v64.1  c10.2,3.8,19.3,9.8,26.9,17.3V55.8c0-3.3,2.7-6,6-6h41.8c3.3,0,6,2.7,6,6v151h14.3c3.3,0,6,2.7,6,6v49.9c0,3.3-2.7,6-6,6h-58.3  c-3.7,5.5-8,10.5-12.9,14.9c6.4,2.3,11.4,7.7,12.9,14.4H377c4.6-19.8,29.4-27,43.9-12.5c16.4,16.4,4.7,44.6-18.5,44.6  c-12.2,0-22.7-8.5-25.4-20.2h-65.4c-0.9,3.7-2.7,7-5.3,9.6c2.9,2.9,5,6.8,5.6,11.1h24.5c2.5,0,4.7,1.6,5.6,3.8l17.5,34.1  c16.4-4,32.4,8.4,32.4,25.4c0,23.2-28.2,34.9-44.6,18.5c-10.8-10.8-10.1-28.5,1.6-38.4l-16.1-31.4h-21.6c-2.6,8.2-10.3,14-19.2,14  h-8.7c-2.7,7.4-4.8,14.5-10.3,19.8C266.8,382.6,261.6,381.8,254.1,381.8L254.1,381.8z M258.1,425.7c-8.9-8.9-24.1-2.6-24.1,10  c0,12.6,15.2,18.9,24.1,10C263.6,440.2,263.6,431.2,258.1,425.7L258.1,425.7z M365.8,379.8c-12.6,0-18.9,15.3-10,24.2  c8.9,8.9,24.1,2.6,24.1-10C379.9,386.2,373.6,379.8,365.8,379.8L365.8,379.8z M402.5,289.8c-12.6,0-18.9,15.3-10,24.1  c8.9,8.9,24.1,2.6,24.1-10C416.6,296.1,410.3,289.8,402.5,289.8L402.5,289.8z M140.4,384c-8.9-8.9-24.2-2.6-24.2,10  c0,12.6,15.3,18.9,24.2,10C145.9,398.5,145.9,389.5,140.4,384L140.4,384z M103.7,293.9c-8.9-8.9-24.1-2.6-24.1,10  c0,12.6,15.3,18.9,24.1,10C109.2,308.4,109.2,299.5,103.7,293.9L103.7,293.9z M204.1,344.7H292c4.5,0,8.2-3.7,8.2-8.2  c0-3.3,0.3-5.9-2.4-8.6c-1.5-1.5-3.5-2.4-5.8-2.4h-87.9c-4.5,0-8.2,3.7-8.2,8.2c0,3.3-0.3,5.9,2.4,8.6  C199.9,343.8,201.9,344.7,204.1,344.7L204.1,344.7z M270.5,356.7h-44.8c1.7,4.7,4.6,13.1,9.7,13.1h25.5  C265.9,369.8,268.8,361.4,270.5,356.7L270.5,356.7z M216.2,282.4H280c9.4-5.4,17.3-13.1,23-22.3c0.1-0.3,0.3-0.6,0.5-0.9  c5.6-9.5,8.9-20.7,8.9-32.6c0-42.6-41.3-74.3-83.4-61.3c-26.4,8.1-45.1,32.9-45.1,61.3C183.8,249.8,196.3,270.9,216.2,282.4  L216.2,282.4z M292,294.3h-87.9c-4.5,0-8.2,3.7-8.2,8.2c0,3.3-0.3,5.9,2.4,8.6c1.5,1.5,3.5,2.4,5.8,2.4H292c4.5,0,8.2-3.7,8.2-8.2  c0-3.3,0.3-5.9-2.4-8.6C296.3,295.3,294.2,294.3,292,294.3L292,294.3z M242.1,190v-5.3c0-3.3,2.7-6,6-6c3.3,0,6,2.7,6,6v5.3  c9.2,2.6,15.7,11.1,15.7,20.8c0,3.3-2.7,6-6,6c-3.3,0-6-2.7-6-6c0-8.6-10.5-12.9-16.5-6.8c-1.8,1.7-2.8,4.2-2.8,6.8  c0,16.8,31.4,2.2,31.4,31.4c0,9.8-6.5,18.2-15.7,20.8v5.3c0,3.3-2.7,6-6,6c-3.3,0-6-2.7-6-6v-5.3c-9.2-2.6-15.7-11.1-15.7-20.8  c0-3.3,2.7-6,6-6c3.3,0,6,2.7,6,6c0,8.6,10.4,12.9,16.5,6.8c1.8-1.8,2.8-4.2,2.8-6.8c0-16.8-31.4-2.2-31.4-31.4  C226.4,201.1,232.9,192.7,242.1,190L242.1,190z M178,256.7c-5.1-11.8-7.1-24.8-5.8-37.9h-39.9v37.9H178z M174.4,206.8  c1.8-6.7,4.5-13,7.9-18.9V134h-29.7v72.8H174.4z M233.2,151.8c9.8-1.9,20-1.9,29.8,0V97.1h-29.8V151.8z M313.8,187.9  c3.4,5.8,6.1,12.2,7.9,18.9h21.9v-145h-29.8V187.9z M323.9,218.8c1.3,13.1-0.7,26.1-5.8,37.9h45.8v-37.9H323.9z"/></svg>