<?xml version="1.0" encoding="UTF-8"?>
<svg  version="1.1" viewBox="0 0 1200 1200" xmlns="http://www.w3.org/2000/svg">
 <g>
  <path fill="white" d="m146.63 836.95c-22.051-42.434-38.051-87.742-47.539-134.61-3.5508-17.5-16.164-31.777-33.086-37.465-16.926-5.6875-35.598-1.9219-48.996 9.875-13.402 11.801-19.496 29.848-15.996 47.355 13.059 64.664 36.551 126.78 69.555 183.9 17.324-30.559 43.98-54.762 76.062-69.055z"/>
  <path fill="white" d="m497.66 1100.9c-47.09-9.5-92.586-25.676-135.11-48.039-14.312 32.219-38.613 58.973-69.309 76.312 57.305 33.051 119.57 56.621 184.4 69.809 3.2891 0.69141 6.6445 1.0273 10.008 1 16.688 0 32.277-8.3125 41.57-22.172s11.066-31.438 4.7344-46.875c-6.3359-15.438-19.949-26.703-36.301-30.035z"/>
  <path fill="white" d="m702.33 99.098c46.789 9.4844 92.016 25.488 134.36 47.539 14.422-32.164 38.809-58.836 69.559-76.062-57.258-32.902-119.44-56.387-184.15-69.559-13.027-2.6719-26.582-0.046875-37.672 7.293-11.086 7.3398-18.797 18.793-21.426 31.828-2.625 13.039 0.046875 26.582 7.4258 37.645 7.3789 11.062 18.859 18.734 31.902 21.316z"/>
  <path fill="white" d="m1052.9 362.81c22.32 42.449 38.496 87.855 48.039 134.86 2.3008 11.309 8.4375 21.469 17.375 28.766s20.125 11.277 31.664 11.27c3.3633 0.023438 6.7188-0.3125 10.008-1.0039 12.977-2.6172 24.379-10.281 31.699-21.309 7.3203-11.031 9.9609-24.516 7.332-37.488-13.141-64.918-36.715-127.28-69.809-184.65-17.391 30.711-44.121 55.078-76.309 69.559z"/>
  <path fill="white" d="m40.043 536.7c3.2891 0.70703 6.6445 1.043 10.008 1.0039 11.527-0.027343 22.695-4.0234 31.625-11.312 8.9336-7.293 15.082-17.434 17.414-28.723 9.5469-46.543 25.371-91.574 47.039-133.86-32.176-13.961-59.074-37.797-76.812-68.055-32.344 56.68-55.402 118.18-68.305 182.15-2.6289 12.973 0.007812 26.457 7.332 37.488 7.3203 11.027 18.723 18.691 31.699 21.309z"/>
  <path fill="white" d="m360.55 148.14c43.113-22.84 89.293-39.355 137.11-49.039 17.52-3.5781 31.805-16.227 37.469-33.188 5.6641-16.961 1.8477-35.656-10.008-49.039-11.859-13.387-29.953-19.43-47.473-15.855-65.293 13.199-128 36.945-185.65 70.309 30.512 17.57 54.551 44.508 68.555 76.812z"/>
  <path fill="white" d="m836.69 1053.4c-42.34 22.051-87.57 38.055-134.36 47.539-16.391 3.25-30.078 14.473-36.477 29.914-6.3984 15.438-4.6602 33.051 4.625 46.945 9.2891 13.895 24.898 22.23 41.613 22.223 3.3594 0.039062 6.7188-0.29688 10.008-1 64.711-13.172 126.89-36.656 184.15-69.559-30.75-17.23-55.137-43.898-69.559-76.062z"/>
  <path fill="white" d="m1160 663.31c-13.004-2.6328-26.52 0-37.586 7.3125-11.07 7.3164-18.785 18.723-21.461 31.719-9.543 47-25.719 92.406-48.039 134.86 32.188 14.477 58.918 38.844 76.309 69.555 33.094-57.375 56.668-119.73 69.809-184.65 2.625-12.973-0.011719-26.461-7.332-37.488-7.3203-11.027-18.723-18.695-31.699-21.309z"/>
  <path fill="white" d="m171.9 320.03c12.402 4.6484 25.539 7.0234 38.785 7.0039 36.855-0.070312 71.398-17.988 92.688-48.074 21.285-30.09 26.688-68.625 14.488-103.41s-40.484-61.5-75.902-71.699c-10.18-2.8477-20.703-4.2773-31.273-4.2539-35.949-0.054687-69.801 16.906-91.277 45.738-21.473 28.828-28.035 66.121-17.688 100.55 10.344 34.426 36.375 61.926 70.18 74.145z"/>
  <path fill="white" d="m872.47 213.19c0.027344 30.188 12.027 59.129 33.375 80.473 21.344 21.348 50.285 33.348 80.473 33.371 14.043 0.015625 27.961-2.6172 41.031-7.7539 34.012-13.102 59.625-41.789 68.809-77.062 2.5234-9.4688 3.7852-19.227 3.7539-29.027 0.019532-30.133-11.941-59.039-33.25-80.344-21.305-21.309-50.211-33.27-80.344-33.246-9.8828-0.050781-19.727 1.2109-29.273 3.75-35.078 9.4375-63.586 34.977-76.816 68.809-5.1367 13.07-7.7695 26.988-7.7578 41.031z"/>
  <path fill="white" d="m326.53 986.82c-0.023438-30.184-12.027-59.125-33.371-80.469s-50.285-33.348-80.473-33.371c-13.785-0.097657-27.457 2.4492-40.281 7.5039-34.016 12.832-59.801 41.223-69.309 76.312-2.625 9.793-3.9688 19.887-4.0039 30.023-0.019532 30.137 11.941 59.039 33.246 80.348 21.309 21.309 50.215 33.27 80.348 33.246 10.055-0.046874 20.062-1.3945 29.773-4.0039 24.113-6.4805 45.418-20.73 60.613-40.543 15.199-19.809 23.441-44.078 23.457-69.047z"/>
  <path fill="white" d="m1027.3 880.73c-13.07-5.1406-26.988-7.7695-41.031-7.7578-30.188 0.027344-59.129 12.027-80.473 33.371-21.348 21.344-33.348 50.289-33.375 80.473-0.011719 14.043 2.6211 27.965 7.7578 41.035 13.227 33.832 41.738 59.367 76.816 68.805 9.5469 2.543 19.391 3.8047 29.27 3.7539 30.137 0.023438 59.043-11.938 80.348-33.246 21.309-21.309 33.27-50.211 33.25-80.348 0.03125-9.7969-1.2305-19.555-3.7539-29.02-9.1836-35.273-34.797-63.965-68.809-77.066z"/>
  <path fill="white" d="m599.5 800.17c-50.793-0.082031-99.652-19.461-136.7-54.215-37.039-34.754-59.492-82.281-62.809-132.96l21.234 24.254c8.8398 10.062 22.375 14.652 35.512 12.043 13.141-2.6133 23.891-12.023 28.219-24.703 4.3242-12.676 1.5664-26.699-7.2383-36.793l-87.668-100.13-0.003907-0.003906c-7.125-8.1328-17.414-12.797-28.227-12.801-10.812-0.003907-21.105 4.6523-28.238 12.777l-87.695 100.04c-8.8438 10.082-11.637 24.117-7.3242 36.816 4.3086 12.699 15.066 22.133 28.223 24.75 13.152 2.6172 26.703-1.9805 35.543-12.062l22.523-25.695v-0.003906c2.9805 70.879 33.207 137.87 84.375 187.01s119.33 76.633 190.27 76.746c13.41 0 25.797-7.1523 32.504-18.766 6.7031-11.613 6.7031-25.918 0-37.531-6.707-11.609-19.094-18.766-32.504-18.766z"/>
  <path fill="white" d="m599.5 399.84c50.797 0.082031 99.664 19.465 136.71 54.227 37.039 34.758 59.488 82.293 62.801 132.98l-21.262-24.285v0.003906c-6.5547-7.4961-15.82-12.082-25.758-12.742-9.9375-0.66406-19.73 2.6523-27.223 9.2148-7.4922 6.5586-12.066 15.828-12.723 25.766-0.65234 9.9375 2.668 19.727 9.2344 27.215l87.668 100.13h0.003907c7.125 8.1367 17.418 12.805 28.234 12.805s21.105-4.668 28.23-12.805l87.668-100.03h0.003907c8.832-10.082 11.617-24.113 7.3008-36.805-4.3125-12.691-15.07-22.117-28.219-24.727-13.148-2.6094-26.691 1.9961-35.527 12.078l-22.496 25.66c-2.9844-70.875-33.211-137.87-84.379-187-51.168-49.137-119.32-76.629-190.27-76.742-9.9688-0.027344-19.543 3.918-26.602 10.957-7.0586 7.043-11.027 16.602-11.027 26.574 0 9.9688 3.9688 19.531 11.027 26.57 7.0586 7.043 16.633 10.984 26.602 10.961z"/>
 </g>
</svg>
