<svg xmlns="http://www.w3.org/2000/svg" data-name="Layer 1" viewBox="0 0 100 125" x="0px" y="0px"><path  fill="white" d="M50,78.37a28.34,28.34,0,1,1,11-2.23A28.16,28.16,0,0,1,50,78.37Zm0-53.74A25.38,25.38,0,1,0,75.37,50,25.4,25.4,0,0,0,50,24.63Z"/><path fill="white" d="M58.58,96.47H41.42a1.5,1.5,0,0,1-1.5-1.5V88.09a39.06,39.06,0,0,1-9.73-4l-4.86,4.86a1.5,1.5,0,0,1-2.13,0L11.08,76.8a1.5,1.5,0,0,1,0-2.13l4.86-4.86a39.35,39.35,0,0,1-4-9.74H5a1.5,1.5,0,0,1-1.5-1.5V41.43A1.5,1.5,0,0,1,5,39.93h6.88a39.35,39.35,0,0,1,4-9.74l-4.86-4.86a1.5,1.5,0,0,1,0-2.13L23.2,11.08a1.5,1.5,0,0,1,2.13,0l4.86,4.86a39.06,39.06,0,0,1,9.73-4V5a1.5,1.5,0,0,1,1.5-1.5H58.58A1.5,1.5,0,0,1,60.08,5v6.88a39.06,39.06,0,0,1,9.73,4l4.86-4.86a1.5,1.5,0,0,1,2.13,0L88.92,23.2a1.5,1.5,0,0,1,0,2.13l-4.86,4.86a39.35,39.35,0,0,1,4,9.74H95a1.5,1.5,0,0,1,1.5,1.5V58.57a1.5,1.5,0,0,1-1.5,1.5H88.09a39.35,39.35,0,0,1-4,9.74l4.86,4.86a1.5,1.5,0,0,1,0,2.13L76.8,88.92a1.5,1.5,0,0,1-2.13,0l-4.86-4.86a39.06,39.06,0,0,1-9.73,4V95A1.5,1.5,0,0,1,58.58,96.47Zm-15.66-3H57.08V86.91a1.51,1.51,0,0,1,1.16-1.46,35.9,35.9,0,0,0,11-4.56,1.49,1.49,0,0,1,1.85.22l4.64,4.63,10-10L81.11,71.1a1.49,1.49,0,0,1-.22-1.85,36.15,36.15,0,0,0,4.56-11,1.52,1.52,0,0,1,1.47-1.17h6.55V42.93H86.92a1.52,1.52,0,0,1-1.47-1.17,36.15,36.15,0,0,0-4.56-11,1.49,1.49,0,0,1,.22-1.85l4.63-4.63-10-10L71.1,18.89a1.49,1.49,0,0,1-1.85.22,35.9,35.9,0,0,0-11-4.56,1.51,1.51,0,0,1-1.16-1.46V6.53H42.92v6.56a1.51,1.51,0,0,1-1.16,1.46,35.9,35.9,0,0,0-11,4.56,1.49,1.49,0,0,1-1.85-.22l-4.64-4.63-10,10,4.63,4.63a1.49,1.49,0,0,1,.22,1.85,36.15,36.15,0,0,0-4.56,11,1.52,1.52,0,0,1-1.47,1.17H6.53V57.07h6.55a1.52,1.52,0,0,1,1.47,1.17,36.15,36.15,0,0,0,4.56,11,1.49,1.49,0,0,1-.22,1.85l-4.63,4.63,10,10,4.64-4.63a1.49,1.49,0,0,1,1.85-.22,35.9,35.9,0,0,0,11,4.56,1.51,1.51,0,0,1,1.16,1.46Z"/><path fill="white" d="M39.05,59.62a4.15,4.15,0,1,1,4.15-4.15A4.15,4.15,0,0,1,39.05,59.62Zm0-5.29a1.15,1.15,0,1,0,1.15,1.14A1.14,1.14,0,0,0,39.05,54.33Z"/><path fill="white" d="M61,48.67a4.15,4.15,0,1,1,4.14-4.14A4.15,4.15,0,0,1,61,48.67Zm0-5.29a1.15,1.15,0,1,0,1.14,1.15A1.15,1.15,0,0,0,61,43.38Z"/><path fill="white" d="M50,54.14A4.14,4.14,0,1,1,54.14,50,4.14,4.14,0,0,1,50,54.14Zm0-5.28A1.14,1.14,0,1,0,51.14,50,1.14,1.14,0,0,0,50,48.86Z"/><path fill="white" d="M50,48.86a1.5,1.5,0,0,1-1.5-1.5V34.78a1.5,1.5,0,0,1,3,0V47.36A1.5,1.5,0,0,1,50,48.86Z"/><path fill="white" d="M61,43.38a1.5,1.5,0,0,1-1.5-1.5v-7.1a1.5,1.5,0,0,1,3,0v7.1A1.5,1.5,0,0,1,61,43.38Z"/><path fill="white" d="M39.05,66.72a1.5,1.5,0,0,1-1.5-1.5v-7.1a1.5,1.5,0,1,1,3,0v7.1A1.5,1.5,0,0,1,39.05,66.72Z"/><path fill="white" d="M50,66.72a1.5,1.5,0,0,1-1.5-1.5V52.64a1.5,1.5,0,0,1,3,0V65.22A1.5,1.5,0,0,1,50,66.72Z"/><path fill="white" d="M61,66.72a1.5,1.5,0,0,1-1.5-1.5v-18a1.5,1.5,0,0,1,3,0v18A1.5,1.5,0,0,1,61,66.72Z"/><path fill="white" d="M39.05,54.33a1.5,1.5,0,0,1-1.5-1.5v-18a1.5,1.5,0,0,1,3,0v18A1.5,1.5,0,0,1,39.05,54.33Z"/></svg>